<svg xmlns="http://www.w3.org/2000/svg" xmlns:xlink="http://www.w3.org/1999/xlink" width="244pt" height="391pt" viewBox="11.00 11.00 233.00 381.00">
<g id="graph0" class="graph" transform="scale(1 1) rotate(0) translate(25.2 366.2)">
<title>G</title>
<polygon fill="white" stroke="none" points="-14.4,14.4 -14.4,-355.4 207.82,-355.4 207.82,14.4 -14.4,14.4"/>
<!-- actor1 -->
<g id="node1" class="node">
<title>actor1</title>
<path fill="#ffffff" stroke="#444444" stroke-width="1.2" d="M42,-158C42,-158 12,-158 12,-158 6,-158 0,-152 0,-146 0,-146 0,-134 0,-134 0,-128 6,-122 12,-122 12,-122 42,-122 42,-122 48,-122 54,-128 54,-134 54,-134 54,-146 54,-146 54,-152 48,-158 42,-158"/>
<text xml:space="preserve" text-anchor="middle" x="27" y="-136.4" font-family="Microsoft YaHei" font-size="12.00">学生</text>
</g>
<!-- uc1 -->
<g id="node4" class="node">
<title>uc1</title>
<ellipse fill="#ffffff" stroke="#444444" stroke-width="1.2" cx="148.71" cy="-262" rx="33.21" ry="18"/>
<text xml:space="preserve" text-anchor="middle" x="148.71" y="-258.4" font-family="Microsoft YaHei" font-size="12.00">创建会话</text>
</g>
<!-- actor1&#45;&gt;uc1 -->
<g id="edge1" class="edge">
<title>actor1-&gt;uc1</title>
<path fill="none" stroke="#666666" d="M46.18,-158.53C67.68,-180.44 103.41,-216.85 126.24,-240.12"/>
<polygon fill="#666666" stroke="#666666" points="124.32,-241.66 130.97,-244.94 127.82,-238.23 124.32,-241.66"/>
</g>
<!-- uc2 -->
<g id="node5" class="node">
<title>uc2</title>
<ellipse fill="#ffffff" stroke="#444444" stroke-width="1.2" cx="148.71" cy="-201" rx="33.21" ry="18"/>
<text xml:space="preserve" text-anchor="middle" x="148.71" y="-197.4" font-family="Microsoft YaHei" font-size="12.00">多轮提问</text>
</g>
<!-- actor1&#45;&gt;uc2 -->
<g id="edge2" class="edge">
<title>actor1-&gt;uc2</title>
<path fill="none" stroke="#666666" d="M54.57,-153.54C72.81,-162.83 97.1,-175.21 116.3,-185"/>
<polygon fill="#666666" stroke="#666666" points="114.96,-187.06 122.31,-188.06 117.18,-182.69 114.96,-187.06"/>
</g>
<!-- uc3 -->
<g id="node6" class="node">
<title>uc3</title>
<ellipse fill="#ffffff" stroke="#444444" stroke-width="1.2" cx="148.71" cy="-18" rx="33.21" ry="18"/>
<text xml:space="preserve" text-anchor="middle" x="148.71" y="-14.4" font-family="Microsoft YaHei" font-size="12.00">推荐问题</text>
</g>
<!-- actor1&#45;&gt;uc3 -->
<g id="edge3" class="edge">
<title>actor1-&gt;uc3</title>
<path fill="none" stroke="#666666" d="M46.18,-121.47C67.68,-99.56 103.41,-63.15 126.24,-39.88"/>
<polygon fill="#666666" stroke="#666666" points="127.82,-41.77 130.97,-35.06 124.32,-38.34 127.82,-41.77"/>
</g>
<!-- uc4 -->
<g id="node7" class="node">
<title>uc4</title>
<ellipse fill="#ffffff" stroke="#444444" stroke-width="1.2" cx="148.71" cy="-79" rx="44.71" ry="18"/>
<text xml:space="preserve" text-anchor="middle" x="148.71" y="-75.4" font-family="Microsoft YaHei" font-size="12.00">规则回退回答</text>
</g>
<!-- actor1&#45;&gt;uc4 -->
<g id="edge4" class="edge">
<title>actor1-&gt;uc4</title>
<path fill="none" stroke="#666666" d="M54.57,-126.46C71.72,-117.72 94.21,-106.26 112.79,-96.79"/>
<polygon fill="#666666" stroke="#666666" points="113.49,-99.18 118.62,-93.82 111.27,-94.82 113.49,-99.18"/>
</g>
<!-- uc6 -->
<g id="node9" class="node">
<title>uc6</title>
<ellipse fill="#ffffff" stroke="#444444" stroke-width="1.2" cx="148.71" cy="-140" rx="44.71" ry="18"/>
<text xml:space="preserve" text-anchor="middle" x="148.71" y="-136.4" font-family="Microsoft YaHei" font-size="12.00">查看历史消息</text>
</g>
<!-- actor1&#45;&gt;uc6 -->
<g id="edge5" class="edge">
<title>actor1-&gt;uc6</title>
<path fill="none" stroke="#666666" d="M54.57,-140C66.66,-140 81.41,-140 95.57,-140"/>
<polygon fill="#666666" stroke="#666666" points="95.31,-142.45 102.31,-140 95.31,-137.55 95.31,-142.45"/>
</g>
<!-- actor2 -->
<g id="node2" class="node">
<title>actor2</title>
<path fill="#ffffff" stroke="#444444" stroke-width="1.2" d="M42,-341C42,-341 12,-341 12,-341 6,-341 0,-335 0,-329 0,-329 0,-317 0,-317 0,-311 6,-305 12,-305 12,-305 42,-305 42,-305 48,-305 54,-311 54,-317 54,-317 54,-329 54,-329 54,-335 48,-341 42,-341"/>
<text xml:space="preserve" text-anchor="middle" x="27" y="-319.4" font-family="Microsoft YaHei" font-size="12.00">教师</text>
</g>
<!-- uc5 -->
<g id="node8" class="node">
<title>uc5</title>
<ellipse fill="#ffffff" stroke="#444444" stroke-width="1.2" cx="148.71" cy="-323" rx="44.71" ry="18"/>
<text xml:space="preserve" text-anchor="middle" x="148.71" y="-319.4" font-family="Microsoft YaHei" font-size="12.00">题目草稿生成</text>
</g>
<!-- actor2&#45;&gt;uc5 -->
<g id="edge6" class="edge">
<title>actor2-&gt;uc5</title>
<path fill="none" stroke="#666666" d="M54.57,-323C66.66,-323 81.41,-323 95.57,-323"/>
<polygon fill="#666666" stroke="#666666" points="95.31,-325.45 102.31,-323 95.31,-320.55 95.31,-325.45"/>
</g>
<!-- actor3 -->
<g id="node3" class="node">
<title>actor3</title>
<path fill="#ffffff" stroke="#444444" stroke-width="1.2" d="M42,-219C42,-219 12,-219 12,-219 6,-219 0,-213 0,-207 0,-207 0,-195 0,-195 0,-189 6,-183 12,-183 12,-183 42,-183 42,-183 48,-183 54,-189 54,-195 54,-195 54,-207 54,-207 54,-213 48,-219 42,-219"/>
<text xml:space="preserve" text-anchor="middle" x="27" y="-197.4" font-family="Microsoft YaHei" font-size="12.00">管理员</text>
</g>
<!-- actor3&#45;&gt;uc1 -->
<g id="edge7" class="edge">
<title>actor3-&gt;uc1</title>
<path fill="none" stroke="#666666" d="M54.57,-214.54C72.81,-223.83 97.1,-236.21 116.3,-246"/>
<polygon fill="#666666" stroke="#666666" points="114.96,-248.06 122.31,-249.06 117.18,-243.69 114.96,-248.06"/>
</g>
<!-- actor3&#45;&gt;uc2 -->
<g id="edge8" class="edge">
<title>actor3-&gt;uc2</title>
<path fill="none" stroke="#666666" d="M54.57,-201C69.96,-201 89.65,-201 106.97,-201"/>
<polygon fill="#666666" stroke="#666666" points="106.73,-203.45 113.73,-201 106.73,-198.55 106.73,-203.45"/>
</g>
<!-- actor3&#45;&gt;uc6 -->
<g id="edge9" class="edge">
<title>actor3-&gt;uc6</title>
<path fill="none" stroke="#666666" d="M54.57,-187.46C71.72,-178.72 94.21,-167.26 112.79,-157.79"/>
<polygon fill="#666666" stroke="#666666" points="113.49,-160.18 118.62,-154.82 111.27,-155.82 113.49,-160.18"/>
</g>
</g>
</svg>