<svg xmlns="http://www.w3.org/2000/svg" xmlns:xlink="http://www.w3.org/1999/xlink" width="221pt" height="208pt" viewBox="11.00 11.00 210.00 198.00">
<g id="graph0" class="graph" transform="scale(1 1) rotate(0) translate(25.2 183.2)">
<title>G</title>
<polygon fill="white" stroke="none" points="-14.4,14.4 -14.4,-172.4 184.82,-172.4 184.82,14.4 -14.4,14.4"/>
<!-- actor1 -->
<g id="node1" class="node">
<title>actor1</title>
<path fill="#ffffff" stroke="#444444" stroke-width="1.2" d="M42,-97C42,-97 12,-97 12,-97 6,-97 0,-91 0,-85 0,-85 0,-73 0,-73 0,-67 6,-61 12,-61 12,-61 42,-61 42,-61 48,-61 54,-67 54,-73 54,-73 54,-85 54,-85 54,-91 48,-97 42,-97"/>
<text xml:space="preserve" text-anchor="middle" x="27" y="-75.4" font-family="Microsoft YaHei" font-size="12.00">用户</text>
</g>
<!-- uc1 -->
<g id="node2" class="node">
<title>uc1</title>
<ellipse fill="#ffffff" stroke="#444444" stroke-width="1.2" cx="137.21" cy="-140" rx="33.21" ry="18"/>
<text xml:space="preserve" text-anchor="middle" x="137.21" y="-136.4" font-family="Microsoft YaHei" font-size="12.00">系统登录</text>
</g>
<!-- actor1&#45;&gt;uc1 -->
<g id="edge1" class="edge">
<title>actor1-&gt;uc1</title>
<path fill="none" stroke="#666666" d="M54.47,-93.92C70.1,-102.73 89.93,-113.91 106.15,-123.05"/>
<polygon fill="#666666" stroke="#666666" points="104.69,-125.04 111.99,-126.35 107.1,-120.78 104.69,-125.04"/>
</g>
<!-- uc2 -->
<g id="node3" class="node">
<title>uc2</title>
<ellipse fill="#ffffff" stroke="#444444" stroke-width="1.2" cx="137.21" cy="-79" rx="33.21" ry="18"/>
<text xml:space="preserve" text-anchor="middle" x="137.21" y="-75.4" font-family="Microsoft YaHei" font-size="12.00">重置密码</text>
</g>
<!-- actor1&#45;&gt;uc2 -->
<g id="edge2" class="edge">
<title>actor1-&gt;uc2</title>
<path fill="none" stroke="#666666" d="M54.47,-79C66.7,-79 81.5,-79 95.13,-79"/>
<polygon fill="#666666" stroke="#666666" points="94.92,-81.45 101.92,-79 94.92,-76.55 94.92,-81.45"/>
</g>
<!-- uc3 -->
<g id="node4" class="node">
<title>uc3</title>
<ellipse fill="#ffffff" stroke="#444444" stroke-width="1.2" cx="137.21" cy="-18" rx="33.21" ry="18"/>
<text xml:space="preserve" text-anchor="middle" x="137.21" y="-14.4" font-family="Microsoft YaHei" font-size="12.00">退出系统</text>
</g>
<!-- actor1&#45;&gt;uc3 -->
<g id="edge3" class="edge">
<title>actor1-&gt;uc3</title>
<path fill="none" stroke="#666666" d="M54.47,-64.08C70.1,-55.27 89.93,-44.09 106.15,-34.95"/>
<polygon fill="#666666" stroke="#666666" points="107.1,-37.22 111.99,-31.65 104.69,-32.96 107.1,-37.22"/>
</g>
</g>
</svg>