<svg xmlns="http://www.w3.org/2000/svg" xmlns:xlink="http://www.w3.org/1999/xlink" width="264pt" height="391pt" viewBox="11.00 11.00 253.00 381.00">
<g id="graph0" class="graph" transform="scale(1 1) rotate(0) translate(25.2 366.2)">
<title>G</title>
<polygon fill="white" stroke="none" points="-14.4,14.4 -14.4,-355.4 227.82,-355.4 227.82,14.4 -14.4,14.4"/>
<!-- actor1 -->
<g id="node1" class="node">
<title>actor1</title>
<path fill="#ffffff" stroke="#444444" stroke-width="1.2" d="M42,-127C42,-127 12,-127 12,-127 6,-127 0,-121 0,-115 0,-115 0,-103 0,-103 0,-97 6,-91 12,-91 12,-91 42,-91 42,-91 48,-91 54,-97 54,-103 54,-103 54,-115 54,-115 54,-121 48,-127 42,-127"/>
<text xml:space="preserve" text-anchor="middle" x="27" y="-105.4" font-family="Microsoft YaHei" font-size="12.00">教师</text>
</g>
<!-- uc1 -->
<g id="node3" class="node">
<title>uc1</title>
<ellipse fill="#ffffff" stroke="#444444" stroke-width="1.2" cx="158.71" cy="-201" rx="33.21" ry="18"/>
<text xml:space="preserve" text-anchor="middle" x="158.71" y="-197.4" font-family="Microsoft YaHei" font-size="12.00">题库管理</text>
</g>
<!-- actor1&#45;&gt;uc1 -->
<g id="edge1" class="edge">
<title>actor1-&gt;uc1</title>
<path fill="none" stroke="#666666" d="M53.94,-127.4C76.32,-143.27 108.5,-166.1 131.08,-182.11"/>
<polygon fill="#666666" stroke="#666666" points="129.4,-183.92 136.52,-185.97 132.23,-179.92 129.4,-183.92"/>
</g>
<!-- uc2 -->
<g id="node4" class="node">
<title>uc2</title>
<ellipse fill="#ffffff" stroke="#444444" stroke-width="1.2" cx="158.71" cy="-140" rx="54.71" ry="18"/>
<text xml:space="preserve" text-anchor="middle" x="158.71" y="-136.4" font-family="Microsoft YaHei" font-size="12.00">AI 生成题目草稿</text>
</g>
<!-- actor1&#45;&gt;uc2 -->
<g id="edge2" class="edge">
<title>actor1-&gt;uc2</title>
<path fill="none" stroke="#666666" d="M54.56,-115.35C69.22,-118.85 87.94,-123.32 105.39,-127.5"/>
<polygon fill="#666666" stroke="#666666" points="104.46,-129.79 111.84,-129.04 105.6,-125.03 104.46,-129.79"/>
</g>
<!-- uc3 -->
<g id="node5" class="node">
<title>uc3</title>
<ellipse fill="#ffffff" stroke="#444444" stroke-width="1.2" cx="158.71" cy="-79" rx="33.21" ry="18"/>
<text xml:space="preserve" text-anchor="middle" x="158.71" y="-75.4" font-family="Microsoft YaHei" font-size="12.00">发布考试</text>
</g>
<!-- actor1&#45;&gt;uc3 -->
<g id="edge3" class="edge">
<title>actor1-&gt;uc3</title>
<path fill="none" stroke="#666666" d="M54.56,-102.86C73.28,-98.53 98.62,-92.67 119.5,-87.84"/>
<polygon fill="#666666" stroke="#666666" points="119.81,-90.28 126.08,-86.32 118.71,-85.51 119.81,-90.28"/>
</g>
<!-- uc6 -->
<g id="node8" class="node">
<title>uc6</title>
<ellipse fill="#ffffff" stroke="#444444" stroke-width="1.2" cx="158.71" cy="-18" rx="50.46" ry="18"/>
<text xml:space="preserve" text-anchor="middle" x="158.71" y="-14.4" font-family="Microsoft YaHei" font-size="12.00">阅卷与成绩汇总</text>
</g>
<!-- actor1&#45;&gt;uc6 -->
<g id="edge4" class="edge">
<title>actor1-&gt;uc6</title>
<path fill="none" stroke="#666666" d="M54.25,-90.58C75.49,-75.68 105.42,-54.69 127.63,-39.11"/>
<polygon fill="#666666" stroke="#666666" points="128.98,-41.15 133.31,-35.12 126.17,-37.14 128.98,-41.15"/>
</g>
<!-- actor2 -->
<g id="node2" class="node">
<title>actor2</title>
<path fill="#ffffff" stroke="#444444" stroke-width="1.2" d="M42,-310C42,-310 12,-310 12,-310 6,-310 0,-304 0,-298 0,-298 0,-286 0,-286 0,-280 6,-274 12,-274 12,-274 42,-274 42,-274 48,-274 54,-280 54,-286 54,-286 54,-298 54,-298 54,-304 48,-310 42,-310"/>
<text xml:space="preserve" text-anchor="middle" x="27" y="-288.4" font-family="Microsoft YaHei" font-size="12.00">学生</text>
</g>
<!-- uc4 -->
<g id="node6" class="node">
<title>uc4</title>
<ellipse fill="#ffffff" stroke="#444444" stroke-width="1.2" cx="158.71" cy="-323" rx="33.21" ry="18"/>
<text xml:space="preserve" text-anchor="middle" x="158.71" y="-319.4" font-family="Microsoft YaHei" font-size="12.00">在线答题</text>
</g>
<!-- actor2&#45;&gt;uc4 -->
<g id="edge5" class="edge">
<title>actor2-&gt;uc4</title>
<path fill="none" stroke="#666666" d="M54.56,-298.35C73.28,-302.82 98.62,-308.88 119.5,-313.87"/>
<polygon fill="#666666" stroke="#666666" points="118.7,-316.2 126.08,-315.44 119.84,-311.43 118.7,-316.2"/>
</g>
<!-- uc5 -->
<g id="node7" class="node">
<title>uc5</title>
<ellipse fill="#ffffff" stroke="#444444" stroke-width="1.2" cx="158.71" cy="-262" rx="33.21" ry="18"/>
<text xml:space="preserve" text-anchor="middle" x="158.71" y="-258.4" font-family="Microsoft YaHei" font-size="12.00">自动判分</text>
</g>
<!-- actor2&#45;&gt;uc5 -->
<g id="edge6" class="edge">
<title>actor2-&gt;uc5</title>
<path fill="none" stroke="#666666" d="M54.56,-285.86C73.28,-281.53 98.62,-275.67 119.5,-270.84"/>
<polygon fill="#666666" stroke="#666666" points="119.81,-273.28 126.08,-269.32 118.71,-268.51 119.81,-273.28"/>
</g>
</g>
</svg>