<svg xmlns="http://www.w3.org/2000/svg" xmlns:xlink="http://www.w3.org/1999/xlink" width="244pt" height="391pt" viewBox="11.00 11.00 233.00 381.00">
<g id="graph0" class="graph" transform="scale(1 1) rotate(0) translate(25.2 366.2)">
<title>G</title>
<polygon fill="white" stroke="none" points="-14.4,14.4 -14.4,-355.4 207.82,-355.4 207.82,14.4 -14.4,14.4"/>
<!-- actor1 -->
<g id="node1" class="node">
<title>actor1</title>
<path fill="#ffffff" stroke="#444444" stroke-width="1.2" d="M42,-97C42,-97 12,-97 12,-97 6,-97 0,-91 0,-85 0,-85 0,-73 0,-73 0,-67 6,-61 12,-61 12,-61 42,-61 42,-61 48,-61 54,-67 54,-73 54,-73 54,-85 54,-85 54,-91 48,-97 42,-97"/>
<text xml:space="preserve" text-anchor="middle" x="27" y="-75.4" font-family="Microsoft YaHei" font-size="12.00">教师</text>
</g>
<!-- uc1 -->
<g id="node4" class="node">
<title>uc1</title>
<ellipse fill="#ffffff" stroke="#444444" stroke-width="1.2" cx="148.71" cy="-140" rx="33.21" ry="18"/>
<text xml:space="preserve" text-anchor="middle" x="148.71" y="-136.4" font-family="Microsoft YaHei" font-size="12.00">创建课程</text>
</g>
<!-- actor1&#45;&gt;uc1 -->
<g id="edge1" class="edge">
<title>actor1-&gt;uc1</title>
<path fill="none" stroke="#666666" d="M54.57,-92.54C72.81,-101.83 97.1,-114.21 116.3,-124"/>
<polygon fill="#666666" stroke="#666666" points="114.96,-126.06 122.31,-127.06 117.18,-121.69 114.96,-126.06"/>
</g>
<!-- uc3 -->
<g id="node6" class="node">
<title>uc3</title>
<ellipse fill="#ffffff" stroke="#444444" stroke-width="1.2" cx="148.71" cy="-79" rx="33.21" ry="18"/>
<text xml:space="preserve" text-anchor="middle" x="148.71" y="-75.4" font-family="Microsoft YaHei" font-size="12.00">维护章节</text>
</g>
<!-- actor1&#45;&gt;uc3 -->
<g id="edge2" class="edge">
<title>actor1-&gt;uc3</title>
<path fill="none" stroke="#666666" d="M54.57,-79C69.96,-79 89.65,-79 106.97,-79"/>
<polygon fill="#666666" stroke="#666666" points="106.73,-81.45 113.73,-79 106.73,-76.55 106.73,-81.45"/>
</g>
<!-- uc4 -->
<g id="node7" class="node">
<title>uc4</title>
<ellipse fill="#ffffff" stroke="#444444" stroke-width="1.2" cx="148.71" cy="-18" rx="44.71" ry="18"/>
<text xml:space="preserve" text-anchor="middle" x="148.71" y="-14.4" font-family="Microsoft YaHei" font-size="12.00">上传课程资源</text>
</g>
<!-- actor1&#45;&gt;uc4 -->
<g id="edge3" class="edge">
<title>actor1-&gt;uc4</title>
<path fill="none" stroke="#666666" d="M54.57,-65.46C71.72,-56.72 94.21,-45.26 112.79,-35.79"/>
<polygon fill="#666666" stroke="#666666" points="113.49,-38.18 118.62,-32.82 111.27,-33.82 113.49,-38.18"/>
</g>
<!-- actor2 -->
<g id="node2" class="node">
<title>actor2</title>
<path fill="#ffffff" stroke="#444444" stroke-width="1.2" d="M42,-249C42,-249 12,-249 12,-249 6,-249 0,-243 0,-237 0,-237 0,-225 0,-225 0,-219 6,-213 12,-213 12,-213 42,-213 42,-213 48,-213 54,-219 54,-225 54,-225 54,-237 54,-237 54,-243 48,-249 42,-249"/>
<text xml:space="preserve" text-anchor="middle" x="27" y="-227.4" font-family="Microsoft YaHei" font-size="12.00">管理员</text>
</g>
<!-- uc2 -->
<g id="node5" class="node">
<title>uc2</title>
<ellipse fill="#ffffff" stroke="#444444" stroke-width="1.2" cx="148.71" cy="-262" rx="33.21" ry="18"/>
<text xml:space="preserve" text-anchor="middle" x="148.71" y="-258.4" font-family="Microsoft YaHei" font-size="12.00">审核课程</text>
</g>
<!-- actor2&#45;&gt;uc2 -->
<g id="edge4" class="edge">
<title>actor2-&gt;uc2</title>
<path fill="none" stroke="#666666" d="M54.57,-237.88C70.93,-242.12 92.17,-247.62 110.23,-252.29"/>
<polygon fill="#666666" stroke="#666666" points="109.42,-254.62 116.81,-254 110.65,-249.87 109.42,-254.62"/>
</g>
<!-- uc5 -->
<g id="node8" class="node">
<title>uc5</title>
<ellipse fill="#ffffff" stroke="#444444" stroke-width="1.2" cx="148.71" cy="-201" rx="33.21" ry="18"/>
<text xml:space="preserve" text-anchor="middle" x="148.71" y="-197.4" font-family="Microsoft YaHei" font-size="12.00">审核资源</text>
</g>
<!-- actor2&#45;&gt;uc5 -->
<g id="edge5" class="edge">
<title>actor2-&gt;uc5</title>
<path fill="none" stroke="#666666" d="M54.57,-224.34C70.81,-220.27 91.86,-215 109.83,-210.49"/>
<polygon fill="#666666" stroke="#666666" points="110.19,-212.93 116.38,-208.85 108.99,-208.18 110.19,-212.93"/>
</g>
<!-- actor3 -->
<g id="node3" class="node">
<title>actor3</title>
<path fill="#ffffff" stroke="#444444" stroke-width="1.2" d="M42,-341C42,-341 12,-341 12,-341 6,-341 0,-335 0,-329 0,-329 0,-317 0,-317 0,-311 6,-305 12,-305 12,-305 42,-305 42,-305 48,-305 54,-311 54,-317 54,-317 54,-329 54,-329 54,-335 48,-341 42,-341"/>
<text xml:space="preserve" text-anchor="middle" x="27" y="-319.4" font-family="Microsoft YaHei" font-size="12.00">学生</text>
</g>
<!-- uc6 -->
<g id="node9" class="node">
<title>uc6</title>
<ellipse fill="#ffffff" stroke="#444444" stroke-width="1.2" cx="148.71" cy="-323" rx="44.71" ry="18"/>
<text xml:space="preserve" text-anchor="middle" x="148.71" y="-319.4" font-family="Microsoft YaHei" font-size="12.00">浏览课程详情</text>
</g>
<!-- actor3&#45;&gt;uc6 -->
<g id="edge6" class="edge">
<title>actor3-&gt;uc6</title>
<path fill="none" stroke="#666666" d="M54.57,-323C66.66,-323 81.41,-323 95.57,-323"/>
<polygon fill="#666666" stroke="#666666" points="95.31,-325.45 102.31,-323 95.31,-320.55 95.31,-325.45"/>
</g>
</g>
</svg>