<?xml version="1.0" encoding="UTF-8" standalone="no"?>
<!DOCTYPE svg PUBLIC "-//W3C//DTD SVG 1.1//EN"
 "http://www.w3.org/Graphics/SVG/1.1/DTD/svg11.dtd">
<!-- Generated by graphviz version 12.2.0 (20241103.1931)
 -->
<!-- Title: G Pages: 1 -->
<svg width="593pt" height="115pt"
 viewBox="8.64 8.64 584.64 105.87" xmlns="http://www.w3.org/2000/svg" xmlns:xlink="http://www.w3.org/1999/xlink">
<g id="graph0" class="graph" transform="scale(0.543437 0.543437) rotate(0) translate(28.86 181.86)">
<title>G</title>
<polygon fill="white" stroke="none" points="-12.96,12.96 -12.96,-165.96 1046.96,-165.96 1046.96,12.96 -12.96,12.96"/>
<text text-anchor="middle" x="517" y="-128.1" font-family="Microsoft YaHei" font-size="22.00">AI会话实体E&#45;R图</text>
<!-- entity -->
<g id="node1" class="node">
<title>entity</title>
<path fill="#ffffff" stroke="#333333" stroke-width="1.35" d="M532,-115C532,-115 502,-115 502,-115 496,-115 490,-109 490,-103 490,-103 490,-91 490,-91 490,-85 496,-79 502,-79 502,-79 532,-79 532,-79 538,-79 544,-85 544,-91 544,-91 544,-103 544,-103 544,-109 538,-115 532,-115"/>
<text text-anchor="middle" x="517" y="-94.62" font-family="Microsoft YaHei" font-size="10.00">AI会话</text>
</g>
<!-- a1 -->
<g id="node2" class="node">
<title>a1</title>
<ellipse fill="#ffffff" stroke="#333333" stroke-width="1.35" cx="27" cy="-18" rx="27" ry="18"/>
<text text-anchor="middle" x="27" y="-15.62" font-family="Microsoft YaHei" font-size="10.00">编号</text>
</g>
<!-- entity&#45;&gt;a1 -->
<g id="edge1" class="edge">
<title>entity&#45;&gt;a1</title>
<path fill="none" stroke="#333333" d="M489.61,-91.7C403.34,-78.14 138.04,-36.45 53.3,-23.13"/>
</g>
<!-- a2 -->
<g id="node3" class="node">
<title>a2</title>
<ellipse fill="#ffffff" stroke="#333333" stroke-width="1.35" cx="121" cy="-18" rx="34.98" ry="18"/>
<text text-anchor="middle" x="121" y="-15.62" font-family="Microsoft YaHei" font-size="10.00">用户编号</text>
</g>
<!-- entity&#45;&gt;a2 -->
<g id="edge2" class="edge">
<title>entity&#45;&gt;a2</title>
<path fill="none" stroke="#333333" d="M489.78,-90.71C419.01,-76.95 229.45,-40.09 153.31,-25.28"/>
</g>
<!-- a3 -->
<g id="node4" class="node">
<title>a3</title>
<ellipse fill="#ffffff" stroke="#333333" stroke-width="1.35" cx="217" cy="-18" rx="28.78" ry="18"/>
<text text-anchor="middle" x="217" y="-15.62" font-family="Microsoft YaHei" font-size="10.00">用户表</text>
</g>
<!-- entity&#45;&gt;a3 -->
<g id="edge3" class="edge">
<title>entity&#45;&gt;a3</title>
<path fill="none" stroke="#333333" d="M489.58,-88.96C432.16,-74.22 299.9,-40.28 243.39,-25.77"/>
</g>
<!-- a4 -->
<g id="node5" class="node">
<title>a4</title>
<ellipse fill="#ffffff" stroke="#333333" stroke-width="1.35" cx="313" cy="-18" rx="34.98" ry="18"/>
<text text-anchor="middle" x="313" y="-15.62" font-family="Microsoft YaHei" font-size="10.00">角色类型</text>
</g>
<!-- entity&#45;&gt;a4 -->
<g id="edge4" class="edge">
<title>entity&#45;&gt;a4</title>
<path fill="none" stroke="#333333" d="M489.91,-85.77C451,-71.09 379.68,-44.17 340.53,-29.39"/>
</g>
<!-- a5 -->
<g id="node6" class="node">
<title>a5</title>
<ellipse fill="#ffffff" stroke="#333333" stroke-width="1.35" cx="415" cy="-18" rx="34.98" ry="18"/>
<text text-anchor="middle" x="415" y="-15.62" font-family="Microsoft YaHei" font-size="10.00">会话标题</text>
</g>
<!-- entity&#45;&gt;a5 -->
<g id="edge5" class="edge">
<title>entity&#45;&gt;a5</title>
<path fill="none" stroke="#333333" d="M493.85,-78.53C475.75,-64.86 450.89,-46.1 433.96,-33.31"/>
</g>
<!-- a6 -->
<g id="node7" class="node">
<title>a6</title>
<ellipse fill="#ffffff" stroke="#333333" stroke-width="1.35" cx="517" cy="-18" rx="34.98" ry="18"/>
<text text-anchor="middle" x="517" y="-15.62" font-family="Microsoft YaHei" font-size="10.00">业务场景</text>
</g>
<!-- entity&#45;&gt;a6 -->
<g id="edge6" class="edge">
<title>entity&#45;&gt;a6</title>
<path fill="none" stroke="#333333" d="M517,-78.53C517,-65.93 517,-48.99 517,-36.4"/>
</g>
<!-- a7 -->
<g id="node8" class="node">
<title>a7</title>
<ellipse fill="#ffffff" stroke="#333333" stroke-width="1.35" cx="619" cy="-18" rx="34.98" ry="18"/>
<text text-anchor="middle" x="619" y="-15.62" font-family="Microsoft YaHei" font-size="10.00">课程编号</text>
</g>
<!-- entity&#45;&gt;a7 -->
<g id="edge7" class="edge">
<title>entity&#45;&gt;a7</title>
<path fill="none" stroke="#333333" d="M540.15,-78.53C558.25,-64.86 583.11,-46.1 600.04,-33.31"/>
</g>
<!-- a8 -->
<g id="node9" class="node">
<title>a8</title>
<ellipse fill="#ffffff" stroke="#333333" stroke-width="1.35" cx="721" cy="-18" rx="34.98" ry="18"/>
<text text-anchor="middle" x="721" y="-15.62" font-family="Microsoft YaHei" font-size="10.00">章节编号</text>
</g>
<!-- entity&#45;&gt;a8 -->
<g id="edge8" class="edge">
<title>entity&#45;&gt;a8</title>
<path fill="none" stroke="#333333" d="M544.09,-85.77C583,-71.09 654.32,-44.17 693.47,-29.39"/>
</g>
<!-- a9 -->
<g id="node10" class="node">
<title>a9</title>
<ellipse fill="#ffffff" stroke="#333333" stroke-width="1.35" cx="823" cy="-18" rx="34.98" ry="18"/>
<text text-anchor="middle" x="823" y="-15.62" font-family="Microsoft YaHei" font-size="10.00">资源编号</text>
</g>
<!-- entity&#45;&gt;a9 -->
<g id="edge9" class="edge">
<title>entity&#45;&gt;a9</title>
<path fill="none" stroke="#333333" d="M544.42,-89.1C601.34,-74.78 731.97,-41.91 791.91,-26.82"/>
</g>
<!-- a10 -->
<g id="node11" class="node">
<title>a10</title>
<ellipse fill="#ffffff" stroke="#333333" stroke-width="1.35" cx="919" cy="-18" rx="28.78" ry="18"/>
<text text-anchor="middle" x="919" y="-15.62" font-family="Microsoft YaHei" font-size="10.00">消息数</text>
</g>
<!-- entity&#45;&gt;a10 -->
<g id="edge10" class="edge">
<title>entity&#45;&gt;a10</title>
<path fill="none" stroke="#333333" d="M544.32,-90.77C617.65,-76.72 818.27,-38.29 891.65,-24.24"/>
</g>
<!-- a11 -->
<g id="node12" class="node">
<title>a11</title>
<ellipse fill="#ffffff" stroke="#333333" stroke-width="1.35" cx="1007" cy="-18" rx="27" ry="18"/>
<text text-anchor="middle" x="1007" y="-15.62" font-family="Microsoft YaHei" font-size="10.00">状态</text>
</g>
<!-- entity&#45;&gt;a11 -->
<g id="edge11" class="edge">
<title>entity&#45;&gt;a11</title>
<path fill="none" stroke="#333333" d="M544.39,-91.7C630.66,-78.14 895.96,-36.45 980.7,-23.13"/>
</g>
</g>
</svg>
