<?xml version="1.0" encoding="UTF-8" standalone="no"?>
<!DOCTYPE svg PUBLIC "-//W3C//DTD SVG 1.1//EN"
 "http://www.w3.org/Graphics/SVG/1.1/DTD/svg11.dtd">
<!-- Generated by graphviz version 12.2.0 (20241103.1931)
 -->
<!-- Title: G Pages: 1 -->
<svg width="593pt" height="122pt"
 viewBox="8.64 8.64 584.64 113.60" xmlns="http://www.w3.org/2000/svg" xmlns:xlink="http://www.w3.org/1999/xlink">
<g id="graph0" class="graph" transform="scale(0.586617 0.586617) rotate(0) translate(27.69 180.69)">
<title>G</title>
<polygon fill="white" stroke="none" points="-12.96,12.96 -12.96,-165.96 968.94,-165.96 968.94,12.96 -12.96,12.96"/>
<text text-anchor="middle" x="477.99" y="-128.1" font-family="Microsoft YaHei" font-size="22.00">作业实体E&#45;R图</text>
<!-- entity -->
<g id="node1" class="node">
<title>entity</title>
<path fill="#ffffff" stroke="#333333" stroke-width="1.35" d="M493,-115C493,-115 463,-115 463,-115 457,-115 451,-109 451,-103 451,-103 451,-91 451,-91 451,-85 457,-79 463,-79 463,-79 493,-79 493,-79 499,-79 505,-85 505,-91 505,-91 505,-103 505,-103 505,-109 499,-115 493,-115"/>
<text text-anchor="middle" x="478" y="-94.62" font-family="Microsoft YaHei" font-size="10.00">作业</text>
</g>
<!-- a1 -->
<g id="node2" class="node">
<title>a1</title>
<ellipse fill="#ffffff" stroke="#333333" stroke-width="1.35" cx="27" cy="-18" rx="27" ry="18"/>
<text text-anchor="middle" x="27" y="-15.62" font-family="Microsoft YaHei" font-size="10.00">编号</text>
</g>
<!-- entity&#45;&gt;a1 -->
<g id="edge1" class="edge">
<title>entity&#45;&gt;a1</title>
<path fill="none" stroke="#333333" d="M450.8,-91.36C370.06,-77.57 132.41,-37 53.1,-23.46"/>
</g>
<!-- a2 -->
<g id="node3" class="node">
<title>a2</title>
<ellipse fill="#ffffff" stroke="#333333" stroke-width="1.35" cx="121" cy="-18" rx="34.98" ry="18"/>
<text text-anchor="middle" x="121" y="-15.62" font-family="Microsoft YaHei" font-size="10.00">作业名称</text>
</g>
<!-- entity&#45;&gt;a2 -->
<g id="edge2" class="edge">
<title>entity&#45;&gt;a2</title>
<path fill="none" stroke="#333333" d="M450.58,-90.09C385.52,-76.05 222.08,-40.8 152.82,-25.86"/>
</g>
<!-- a3 -->
<g id="node4" class="node">
<title>a3</title>
<ellipse fill="#ffffff" stroke="#333333" stroke-width="1.35" cx="223" cy="-18" rx="34.98" ry="18"/>
<text text-anchor="middle" x="223" y="-15.62" font-family="Microsoft YaHei" font-size="10.00">课程编号</text>
</g>
<!-- entity&#45;&gt;a3 -->
<g id="edge3" class="edge">
<title>entity&#45;&gt;a3</title>
<path fill="none" stroke="#333333" d="M450.71,-87.76C402.53,-73.21 302.77,-43.09 252.84,-28.01"/>
</g>
<!-- a4 -->
<g id="node5" class="node">
<title>a4</title>
<ellipse fill="#ffffff" stroke="#333333" stroke-width="1.35" cx="325" cy="-18" rx="34.98" ry="18"/>
<text text-anchor="middle" x="325" y="-15.62" font-family="Microsoft YaHei" font-size="10.00">章节编号</text>
</g>
<!-- entity&#45;&gt;a4 -->
<g id="edge4" class="edge">
<title>entity&#45;&gt;a4</title>
<path fill="none" stroke="#333333" d="M450.65,-82.23C421.77,-67.7 376.68,-45.01 349.1,-31.13"/>
</g>
<!-- a5 -->
<g id="node6" class="node">
<title>a5</title>
<ellipse fill="#ffffff" stroke="#333333" stroke-width="1.35" cx="427" cy="-18" rx="34.98" ry="18"/>
<text text-anchor="middle" x="427" y="-15.62" font-family="Microsoft YaHei" font-size="10.00">开始时间</text>
</g>
<!-- entity&#45;&gt;a5 -->
<g id="edge5" class="edge">
<title>entity&#45;&gt;a5</title>
<path fill="none" stroke="#333333" d="M466.43,-78.53C457.85,-65.57 446.23,-48.03 437.83,-35.35"/>
</g>
<!-- a6 -->
<g id="node7" class="node">
<title>a6</title>
<ellipse fill="#ffffff" stroke="#333333" stroke-width="1.35" cx="529" cy="-18" rx="34.98" ry="18"/>
<text text-anchor="middle" x="529" y="-15.62" font-family="Microsoft YaHei" font-size="10.00">结束时间</text>
</g>
<!-- entity&#45;&gt;a6 -->
<g id="edge6" class="edge">
<title>entity&#45;&gt;a6</title>
<path fill="none" stroke="#333333" d="M489.57,-78.53C498.15,-65.57 509.77,-48.03 518.17,-35.35"/>
</g>
<!-- a7 -->
<g id="node8" class="node">
<title>a7</title>
<ellipse fill="#ffffff" stroke="#333333" stroke-width="1.35" cx="623" cy="-18" rx="27" ry="18"/>
<text text-anchor="middle" x="623" y="-15.62" font-family="Microsoft YaHei" font-size="10.00">总分</text>
</g>
<!-- entity&#45;&gt;a7 -->
<g id="edge7" class="edge">
<title>entity&#45;&gt;a7</title>
<path fill="none" stroke="#333333" d="M505.27,-81.52C533.49,-66.53 576.94,-43.46 602.41,-29.94"/>
</g>
<!-- a8 -->
<g id="node9" class="node">
<title>a8</title>
<ellipse fill="#ffffff" stroke="#333333" stroke-width="1.35" cx="717" cy="-18" rx="34.98" ry="18"/>
<text text-anchor="middle" x="717" y="-15.62" font-family="Microsoft YaHei" font-size="10.00">发布状态</text>
</g>
<!-- entity&#45;&gt;a8 -->
<g id="edge8" class="edge">
<title>entity&#45;&gt;a8</title>
<path fill="none" stroke="#333333" d="M505.42,-87.17C550.91,-72.51 641.56,-43.3 688.05,-28.33"/>
</g>
<!-- a9 -->
<g id="node10" class="node">
<title>a9</title>
<ellipse fill="#ffffff" stroke="#333333" stroke-width="1.35" cx="819" cy="-18" rx="34.98" ry="18"/>
<text text-anchor="middle" x="819" y="-15.62" font-family="Microsoft YaHei" font-size="10.00">题目集合</text>
</g>
<!-- entity&#45;&gt;a9 -->
<g id="edge9" class="edge">
<title>entity&#45;&gt;a9</title>
<path fill="none" stroke="#333333" d="M505.33,-89.83C567.84,-75.71 720.94,-41.14 787.38,-26.14"/>
</g>
<!-- a10 -->
<g id="node11" class="node">
<title>a10</title>
<ellipse fill="#ffffff" stroke="#333333" stroke-width="1.35" cx="921" cy="-18" rx="34.98" ry="18"/>
<text text-anchor="middle" x="921" y="-15.62" font-family="Microsoft YaHei" font-size="10.00">作业详情</text>
</g>
<!-- entity&#45;&gt;a10 -->
<g id="edge10" class="edge">
<title>entity&#45;&gt;a10</title>
<path fill="none" stroke="#333333" d="M505.38,-91.24C583,-77.75 804.32,-39.28 888.22,-24.7"/>
</g>
</g>
</svg>
