<?xml version="1.0" encoding="UTF-8" standalone="no"?>
<!DOCTYPE svg PUBLIC "-//W3C//DTD SVG 1.1//EN"
 "http://www.w3.org/Graphics/SVG/1.1/DTD/svg11.dtd">
<!-- Generated by graphviz version 12.2.0 (20241103.1931)
 -->
<!-- Title: G Pages: 1 -->
<svg width="593pt" height="131pt"
 viewBox="8.64 8.64 584.64 122.40" xmlns="http://www.w3.org/2000/svg" xmlns:xlink="http://www.w3.org/1999/xlink">
<g id="graph0" class="graph" transform="scale(0.635818 0.635818) rotate(0) translate(26.55 179.55)">
<title>G</title>
<polygon fill="white" stroke="none" points="-12.96,12.96 -12.96,-165.96 892.96,-165.96 892.96,12.96 -12.96,12.96"/>
<text text-anchor="middle" x="440" y="-128.1" font-family="Microsoft YaHei" font-size="22.00">学生实体E&#45;R图</text>
<!-- entity -->
<g id="node1" class="node">
<title>entity</title>
<path fill="#ffffff" stroke="#333333" stroke-width="1.35" d="M437,-115C437,-115 407,-115 407,-115 401,-115 395,-109 395,-103 395,-103 395,-91 395,-91 395,-85 401,-79 407,-79 407,-79 437,-79 437,-79 443,-79 449,-85 449,-91 449,-91 449,-103 449,-103 449,-109 443,-115 437,-115"/>
<text text-anchor="middle" x="422" y="-94.62" font-family="Microsoft YaHei" font-size="10.00">学生</text>
</g>
<!-- a1 -->
<g id="node2" class="node">
<title>a1</title>
<ellipse fill="#ffffff" stroke="#333333" stroke-width="1.35" cx="27" cy="-18" rx="27" ry="18"/>
<text text-anchor="middle" x="27" y="-15.62" font-family="Microsoft YaHei" font-size="10.00">编号</text>
</g>
<!-- entity&#45;&gt;a1 -->
<g id="edge1" class="edge">
<title>entity&#45;&gt;a1</title>
<path fill="none" stroke="#333333" d="M394.54,-90.65C321.58,-76.42 123.66,-37.84 52.73,-24.02"/>
</g>
<!-- a2 -->
<g id="node3" class="node">
<title>a2</title>
<ellipse fill="#ffffff" stroke="#333333" stroke-width="1.35" cx="115" cy="-18" rx="28.78" ry="18"/>
<text text-anchor="middle" x="115" y="-15.62" font-family="Microsoft YaHei" font-size="10.00">用户名</text>
</g>
<!-- entity&#45;&gt;a2 -->
<g id="edge2" class="edge">
<title>entity&#45;&gt;a2</title>
<path fill="none" stroke="#333333" d="M394.76,-89.17C336.2,-74.48 199.01,-40.07 141.31,-25.6"/>
</g>
<!-- a3 -->
<g id="node4" class="node">
<title>a3</title>
<ellipse fill="#ffffff" stroke="#333333" stroke-width="1.35" cx="203" cy="-18" rx="27" ry="18"/>
<text text-anchor="middle" x="203" y="-15.62" font-family="Microsoft YaHei" font-size="10.00">密码</text>
</g>
<!-- entity&#45;&gt;a3 -->
<g id="edge3" class="edge">
<title>entity&#45;&gt;a3</title>
<path fill="none" stroke="#333333" d="M394.71,-86.4C351.36,-71.16 267.53,-41.69 226.61,-27.3"/>
</g>
<!-- a4 -->
<g id="node5" class="node">
<title>a4</title>
<ellipse fill="#ffffff" stroke="#333333" stroke-width="1.35" cx="289" cy="-18" rx="27" ry="18"/>
<text text-anchor="middle" x="289" y="-15.62" font-family="Microsoft YaHei" font-size="10.00">姓名</text>
</g>
<!-- entity&#45;&gt;a4 -->
<g id="edge4" class="edge">
<title>entity&#45;&gt;a4</title>
<path fill="none" stroke="#333333" d="M394.76,-80.23C369.23,-65.45 331.66,-43.7 308.85,-30.49"/>
</g>
<!-- a5 -->
<g id="node6" class="node">
<title>a5</title>
<ellipse fill="#ffffff" stroke="#333333" stroke-width="1.35" cx="375" cy="-18" rx="27" ry="18"/>
<text text-anchor="middle" x="375" y="-15.62" font-family="Microsoft YaHei" font-size="10.00">头像</text>
</g>
<!-- entity&#45;&gt;a5 -->
<g id="edge5" class="edge">
<title>entity&#45;&gt;a5</title>
<path fill="none" stroke="#333333" d="M411.33,-78.53C403.37,-65.48 392.57,-47.79 384.82,-35.09"/>
</g>
<!-- a6 -->
<g id="node7" class="node">
<title>a6</title>
<ellipse fill="#ffffff" stroke="#333333" stroke-width="1.35" cx="469" cy="-18" rx="34.98" ry="18"/>
<text text-anchor="middle" x="469" y="-15.62" font-family="Microsoft YaHei" font-size="10.00">身份证号</text>
</g>
<!-- entity&#45;&gt;a6 -->
<g id="edge6" class="edge">
<title>entity&#45;&gt;a6</title>
<path fill="none" stroke="#333333" d="M432.67,-78.53C440.52,-65.66 451.13,-48.27 458.86,-35.61"/>
</g>
<!-- a7 -->
<g id="node8" class="node">
<title>a7</title>
<ellipse fill="#ffffff" stroke="#333333" stroke-width="1.35" cx="571" cy="-18" rx="34.98" ry="18"/>
<text text-anchor="middle" x="571" y="-15.62" font-family="Microsoft YaHei" font-size="10.00">电话号码</text>
</g>
<!-- entity&#45;&gt;a7 -->
<g id="edge7" class="edge">
<title>entity&#45;&gt;a7</title>
<path fill="none" stroke="#333333" d="M449.33,-81.88C477.22,-67.46 520.1,-45.3 546.8,-31.51"/>
</g>
<!-- a8 -->
<g id="node9" class="node">
<title>a8</title>
<ellipse fill="#ffffff" stroke="#333333" stroke-width="1.35" cx="673" cy="-18" rx="34.98" ry="18"/>
<text text-anchor="middle" x="673" y="-15.62" font-family="Microsoft YaHei" font-size="10.00">电子邮箱</text>
</g>
<!-- entity&#45;&gt;a8 -->
<g id="edge8" class="edge">
<title>entity&#45;&gt;a8</title>
<path fill="none" stroke="#333333" d="M449.34,-87.61C496.86,-73.04 594.3,-43.14 643.37,-28.09"/>
</g>
<!-- a9 -->
<g id="node10" class="node">
<title>a9</title>
<ellipse fill="#ffffff" stroke="#333333" stroke-width="1.35" cx="767" cy="-18" rx="27" ry="18"/>
<text text-anchor="middle" x="767" y="-15.62" font-family="Microsoft YaHei" font-size="10.00">班级</text>
</g>
<!-- entity&#45;&gt;a9 -->
<g id="edge9" class="edge">
<title>entity&#45;&gt;a9</title>
<path fill="none" stroke="#333333" d="M449.36,-89.89C514.54,-75.35 678.28,-38.8 741.52,-24.69"/>
</g>
<!-- a10 -->
<g id="node11" class="node">
<title>a10</title>
<ellipse fill="#ffffff" stroke="#333333" stroke-width="1.35" cx="853" cy="-18" rx="27" ry="18"/>
<text text-anchor="middle" x="853" y="-15.62" font-family="Microsoft YaHei" font-size="10.00">性别</text>
</g>
<!-- entity&#45;&gt;a10 -->
<g id="edge10" class="edge">
<title>entity&#45;&gt;a10</title>
<path fill="none" stroke="#333333" d="M449.29,-91.12C527.28,-77.19 750.47,-37.32 826.93,-23.66"/>
</g>
</g>
</svg>
