<?xml version="1.0" encoding="UTF-8" standalone="no"?>
<!DOCTYPE svg PUBLIC "-//W3C//DTD SVG 1.1//EN"
 "http://www.w3.org/Graphics/SVG/1.1/DTD/svg11.dtd">
<!-- Generated by graphviz version 12.2.0 (20241103.1931)
 -->
<!-- Title: G Pages: 1 -->
<svg width="593pt" height="143pt"
 viewBox="8.64 8.64 584.64 134.33" xmlns="http://www.w3.org/2000/svg" xmlns:xlink="http://www.w3.org/1999/xlink">
<g id="graph0" class="graph" transform="scale(0.702508 0.702508) rotate(0) translate(25.26 178.26)">
<title>G</title>
<polygon fill="white" stroke="none" points="-12.96,12.96 -12.96,-165.96 806.96,-165.96 806.96,12.96 -12.96,12.96"/>
<text text-anchor="middle" x="397" y="-128.1" font-family="Microsoft YaHei" font-size="22.00">教师实体E&#45;R图</text>
<!-- entity -->
<g id="node1" class="node">
<title>entity</title>
<path fill="#ffffff" stroke="#333333" stroke-width="1.35" d="M390,-115C390,-115 360,-115 360,-115 354,-115 348,-109 348,-103 348,-103 348,-91 348,-91 348,-85 354,-79 360,-79 360,-79 390,-79 390,-79 396,-79 402,-85 402,-91 402,-91 402,-103 402,-103 402,-109 396,-115 390,-115"/>
<text text-anchor="middle" x="375" y="-94.62" font-family="Microsoft YaHei" font-size="10.00">教师</text>
</g>
<!-- a1 -->
<g id="node2" class="node">
<title>a1</title>
<ellipse fill="#ffffff" stroke="#333333" stroke-width="1.35" cx="27" cy="-18" rx="27" ry="18"/>
<text text-anchor="middle" x="27" y="-15.62" font-family="Microsoft YaHei" font-size="10.00">编号</text>
</g>
<!-- entity&#45;&gt;a1 -->
<g id="edge1" class="edge">
<title>entity&#45;&gt;a1</title>
<path fill="none" stroke="#333333" d="M347.69,-89.96C282,-75.42 115.87,-38.66 52.29,-24.6"/>
</g>
<!-- a2 -->
<g id="node3" class="node">
<title>a2</title>
<ellipse fill="#ffffff" stroke="#333333" stroke-width="1.35" cx="115" cy="-18" rx="28.78" ry="18"/>
<text text-anchor="middle" x="115" y="-15.62" font-family="Microsoft YaHei" font-size="10.00">用户名</text>
</g>
<!-- entity&#45;&gt;a2 -->
<g id="edge2" class="edge">
<title>entity&#45;&gt;a2</title>
<path fill="none" stroke="#333333" d="M347.67,-87.91C297.21,-72.96 190.1,-41.24 140.81,-26.64"/>
</g>
<!-- a3 -->
<g id="node4" class="node">
<title>a3</title>
<ellipse fill="#ffffff" stroke="#333333" stroke-width="1.35" cx="203" cy="-18" rx="27" ry="18"/>
<text text-anchor="middle" x="203" y="-15.62" font-family="Microsoft YaHei" font-size="10.00">密码</text>
</g>
<!-- entity&#45;&gt;a3 -->
<g id="edge3" class="edge">
<title>entity&#45;&gt;a3</title>
<path fill="none" stroke="#333333" d="M347.75,-83.8C313.74,-68.58 256.26,-42.84 224.94,-28.82"/>
</g>
<!-- a4 -->
<g id="node5" class="node">
<title>a4</title>
<ellipse fill="#ffffff" stroke="#333333" stroke-width="1.35" cx="289" cy="-18" rx="27" ry="18"/>
<text text-anchor="middle" x="289" y="-15.62" font-family="Microsoft YaHei" font-size="10.00">姓名</text>
</g>
<!-- entity&#45;&gt;a4 -->
<g id="edge4" class="edge">
<title>entity&#45;&gt;a4</title>
<path fill="none" stroke="#333333" d="M355.49,-78.53C340.12,-64.77 318.99,-45.85 304.71,-33.06"/>
</g>
<!-- a5 -->
<g id="node6" class="node">
<title>a5</title>
<ellipse fill="#ffffff" stroke="#333333" stroke-width="1.35" cx="375" cy="-18" rx="27" ry="18"/>
<text text-anchor="middle" x="375" y="-15.62" font-family="Microsoft YaHei" font-size="10.00">头像</text>
</g>
<!-- entity&#45;&gt;a5 -->
<g id="edge5" class="edge">
<title>entity&#45;&gt;a5</title>
<path fill="none" stroke="#333333" d="M375,-78.53C375,-65.93 375,-48.99 375,-36.4"/>
</g>
<!-- a6 -->
<g id="node7" class="node">
<title>a6</title>
<ellipse fill="#ffffff" stroke="#333333" stroke-width="1.35" cx="469" cy="-18" rx="34.98" ry="18"/>
<text text-anchor="middle" x="469" y="-15.62" font-family="Microsoft YaHei" font-size="10.00">身份证号</text>
</g>
<!-- entity&#45;&gt;a6 -->
<g id="edge6" class="edge">
<title>entity&#45;&gt;a6</title>
<path fill="none" stroke="#333333" d="M396.33,-78.53C412.8,-65.04 435.33,-46.58 450.92,-33.81"/>
</g>
<!-- a7 -->
<g id="node8" class="node">
<title>a7</title>
<ellipse fill="#ffffff" stroke="#333333" stroke-width="1.35" cx="571" cy="-18" rx="34.98" ry="18"/>
<text text-anchor="middle" x="571" y="-15.62" font-family="Microsoft YaHei" font-size="10.00">电话号码</text>
</g>
<!-- entity&#45;&gt;a7 -->
<g id="edge7" class="edge">
<title>entity&#45;&gt;a7</title>
<path fill="none" stroke="#333333" d="M402.25,-85.29C439.59,-70.62 506.28,-44.43 543.66,-29.74"/>
</g>
<!-- a8 -->
<g id="node9" class="node">
<title>a8</title>
<ellipse fill="#ffffff" stroke="#333333" stroke-width="1.35" cx="673" cy="-18" rx="34.98" ry="18"/>
<text text-anchor="middle" x="673" y="-15.62" font-family="Microsoft YaHei" font-size="10.00">电子邮箱</text>
</g>
<!-- entity&#45;&gt;a8 -->
<g id="edge8" class="edge">
<title>entity&#45;&gt;a8</title>
<path fill="none" stroke="#333333" d="M402.24,-88.96C457.84,-74.6 584.08,-41.98 642.41,-26.9"/>
</g>
<!-- a9 -->
<g id="node10" class="node">
<title>a9</title>
<ellipse fill="#ffffff" stroke="#333333" stroke-width="1.35" cx="767" cy="-18" rx="27" ry="18"/>
<text text-anchor="middle" x="767" y="-15.62" font-family="Microsoft YaHei" font-size="10.00">性别</text>
</g>
<!-- entity&#45;&gt;a9 -->
<g id="edge9" class="edge">
<title>entity&#45;&gt;a9</title>
<path fill="none" stroke="#333333" d="M402.25,-90.65C474.57,-76.44 670.6,-37.94 741.21,-24.07"/>
</g>
</g>
</svg>
