<?xml version="1.0" encoding="UTF-8" standalone="no"?>
<!DOCTYPE svg PUBLIC "-//W3C//DTD SVG 1.1//EN"
 "http://www.w3.org/Graphics/SVG/1.1/DTD/svg11.dtd">
<!-- Generated by graphviz version 12.2.0 (20241103.1931)
 -->
<!-- Title: G Pages: 1 -->
<svg width="593pt" height="249pt"
 viewBox="8.64 8.64 584.64 240.80" xmlns="http://www.w3.org/2000/svg" xmlns:xlink="http://www.w3.org/1999/xlink">
<g id="graph0" class="graph" transform="scale(1.29759 1.29759) rotate(0) translate(19.62 172.62)">
<title>G</title>
<polygon fill="white" stroke="none" points="-12.96,12.96 -12.96,-165.96 430.94,-165.96 430.94,12.96 -12.96,12.96"/>
<text text-anchor="middle" x="208.99" y="-128.1" font-family="Microsoft YaHei" font-size="22.00">管理员实体E&#45;R图</text>
<!-- entity -->
<g id="node1" class="node">
<title>entity</title>
<path fill="#ffffff" stroke="#333333" stroke-width="1.35" d="M218,-115C218,-115 188,-115 188,-115 182,-115 176,-109 176,-103 176,-103 176,-91 176,-91 176,-85 182,-79 188,-79 188,-79 218,-79 218,-79 224,-79 230,-85 230,-91 230,-91 230,-103 230,-103 230,-109 224,-115 218,-115"/>
<text text-anchor="middle" x="203" y="-94.62" font-family="Microsoft YaHei" font-size="10.00">管理员</text>
</g>
<!-- a1 -->
<g id="node2" class="node">
<title>a1</title>
<ellipse fill="#ffffff" stroke="#333333" stroke-width="1.35" cx="27" cy="-18" rx="27" ry="18"/>
<text text-anchor="middle" x="27" y="-15.62" font-family="Microsoft YaHei" font-size="10.00">编号</text>
</g>
<!-- entity&#45;&gt;a1 -->
<g id="edge1" class="edge">
<title>entity&#45;&gt;a1</title>
<path fill="none" stroke="#333333" d="M175.5,-83.97C140.7,-68.74 81.42,-42.81 49.29,-28.75"/>
</g>
<!-- a2 -->
<g id="node3" class="node">
<title>a2</title>
<ellipse fill="#ffffff" stroke="#333333" stroke-width="1.35" cx="115" cy="-18" rx="28.78" ry="18"/>
<text text-anchor="middle" x="115" y="-15.62" font-family="Microsoft YaHei" font-size="10.00">用户名</text>
</g>
<!-- entity&#45;&gt;a2 -->
<g id="edge2" class="edge">
<title>entity&#45;&gt;a2</title>
<path fill="none" stroke="#333333" d="M183.03,-78.53C167.41,-64.86 145.97,-46.1 131.36,-33.31"/>
</g>
<!-- a3 -->
<g id="node4" class="node">
<title>a3</title>
<ellipse fill="#ffffff" stroke="#333333" stroke-width="1.35" cx="203" cy="-18" rx="27" ry="18"/>
<text text-anchor="middle" x="203" y="-15.62" font-family="Microsoft YaHei" font-size="10.00">密码</text>
</g>
<!-- entity&#45;&gt;a3 -->
<g id="edge3" class="edge">
<title>entity&#45;&gt;a3</title>
<path fill="none" stroke="#333333" d="M203,-78.53C203,-65.93 203,-48.99 203,-36.4"/>
</g>
<!-- a4 -->
<g id="node5" class="node">
<title>a4</title>
<ellipse fill="#ffffff" stroke="#333333" stroke-width="1.35" cx="289" cy="-18" rx="27" ry="18"/>
<text text-anchor="middle" x="289" y="-15.62" font-family="Microsoft YaHei" font-size="10.00">角色</text>
</g>
<!-- entity&#45;&gt;a4 -->
<g id="edge4" class="edge">
<title>entity&#45;&gt;a4</title>
<path fill="none" stroke="#333333" d="M222.51,-78.53C237.88,-64.77 259.01,-45.85 273.29,-33.06"/>
</g>
<!-- a5 -->
<g id="node6" class="node">
<title>a5</title>
<ellipse fill="#ffffff" stroke="#333333" stroke-width="1.35" cx="383" cy="-18" rx="34.98" ry="18"/>
<text text-anchor="middle" x="383" y="-15.62" font-family="Microsoft YaHei" font-size="10.00">创建时间</text>
</g>
<!-- entity&#45;&gt;a5 -->
<g id="edge5" class="edge">
<title>entity&#45;&gt;a5</title>
<path fill="none" stroke="#333333" d="M230.34,-84.31C264.56,-69.66 322.79,-44.76 356.58,-30.3"/>
</g>
</g>
</svg>
