<?xml version="1.0" encoding="UTF-8" standalone="no"?>
<!DOCTYPE svg PUBLIC "-//W3C//DTD SVG 1.1//EN"
 "http://www.w3.org/Graphics/SVG/1.1/DTD/svg11.dtd">
<!-- Generated by graphviz version 12.2.0 (20241103.1931)
 -->
<!-- Title: G Pages: 1 -->
<svg width="620pt" height="672pt"
 viewBox="10.80 10.80 609.49 661.43" xmlns="http://www.w3.org/2000/svg" xmlns:xlink="http://www.w3.org/1999/xlink">
<g id="graph0" class="graph" transform="scale(1 1) rotate(0) translate(25.2 647.03)">
<title>G</title>
<polygon fill="white" stroke="none" points="-14.4,14.4 -14.4,-636.23 584.29,-636.23 584.29,14.4 -14.4,14.4"/>
<text text-anchor="middle" x="284.94" y="-596.93" font-family="Microsoft YaHei" font-size="22.00">系统总体E&#45;R图</text>
<!-- 管理员 -->
<g id="node1" class="node">
<title>管理员</title>
<path fill="#ffffff" stroke="#333333" stroke-width="1.2" d="M117.76,-576.7C117.76,-576.7 75.73,-576.7 75.73,-576.7 69.73,-576.7 63.73,-570.7 63.73,-564.7 63.73,-564.7 63.73,-520.18 63.73,-520.18 63.73,-514.18 69.73,-508.18 75.73,-508.18 75.73,-508.18 117.76,-508.18 117.76,-508.18 123.76,-508.18 129.76,-514.18 129.76,-520.18 129.76,-520.18 129.76,-564.7 129.76,-564.7 129.76,-570.7 123.76,-576.7 117.76,-576.7"/>
<text text-anchor="middle" x="96.75" y="-561.44" font-family="Microsoft YaHei" font-size="10.00">管理员</text>
<text text-anchor="middle" x="96.75" y="-547.19" font-family="Microsoft YaHei" font-size="10.00">管理员编号</text>
<text text-anchor="middle" x="96.75" y="-532.94" font-family="Microsoft YaHei" font-size="10.00">用户名</text>
<text text-anchor="middle" x="96.75" y="-518.69" font-family="Microsoft YaHei" font-size="10.00">角色</text>
</g>
<!-- 课程 -->
<g id="node4" class="node">
<title>课程</title>
<path fill="#ffffff" stroke="#333333" stroke-width="1.2" d="M169.51,-426.31C169.51,-426.31 107.98,-426.31 107.98,-426.31 101.98,-426.31 95.98,-420.31 95.98,-414.31 95.98,-414.31 95.98,-341.29 95.98,-341.29 95.98,-335.29 101.98,-329.29 107.98,-329.29 107.98,-329.29 169.51,-329.29 169.51,-329.29 175.51,-329.29 181.51,-335.29 181.51,-341.29 181.51,-341.29 181.51,-414.31 181.51,-414.31 181.51,-420.31 175.51,-426.31 169.51,-426.31"/>
<text text-anchor="middle" x="138.75" y="-411.05" font-family="Microsoft YaHei" font-size="10.00">课程</text>
<text text-anchor="middle" x="138.75" y="-396.8" font-family="Microsoft YaHei" font-size="10.00">课程编号</text>
<text text-anchor="middle" x="138.75" y="-382.55" font-family="Microsoft YaHei" font-size="10.00">课程名称</text>
<text text-anchor="middle" x="138.75" y="-368.3" font-family="Microsoft YaHei" font-size="10.00">课程类型</text>
<text text-anchor="middle" x="138.75" y="-354.05" font-family="Microsoft YaHei" font-size="10.00">教师编号</text>
<text text-anchor="middle" x="138.75" y="-339.8" font-family="Microsoft YaHei" font-size="10.00">审核管理员编号</text>
</g>
<!-- 管理员&#45;&gt;课程 -->
<g id="edge1" class="edge">
<title>管理员&#45;&gt;课程</title>
<path fill="none" stroke="#555555" d="M94.51,-507.84C93.28,-489.33 92,-470.06 92,-470.06 92,-470.06 92,-457.31 92,-457.31 92,-457.31 97.92,-447.36 105.55,-434.55"/>
<polygon fill="#555555" stroke="#555555" points="107.75,-436.34 109.43,-428.03 102.94,-433.47 107.75,-436.34"/>
<text text-anchor="middle" x="108.88" y="-461.51" font-family="Microsoft YaHei" font-size="9.00">1:n 审核</text>
</g>
<!-- 教师 -->
<g id="node2" class="node">
<title>教师</title>
<path fill="#ffffff" stroke="#333333" stroke-width="1.2" d="M232.89,-576.7C232.89,-576.7 200.61,-576.7 200.61,-576.7 194.61,-576.7 188.61,-570.7 188.61,-564.7 188.61,-564.7 188.61,-520.18 188.61,-520.18 188.61,-514.18 194.61,-508.18 200.61,-508.18 200.61,-508.18 232.89,-508.18 232.89,-508.18 238.89,-508.18 244.89,-514.18 244.89,-520.18 244.89,-520.18 244.89,-564.7 244.89,-564.7 244.89,-570.7 238.89,-576.7 232.89,-576.7"/>
<text text-anchor="middle" x="216.75" y="-561.44" font-family="Microsoft YaHei" font-size="10.00">教师</text>
<text text-anchor="middle" x="216.75" y="-547.19" font-family="Microsoft YaHei" font-size="10.00">教师编号</text>
<text text-anchor="middle" x="216.75" y="-532.94" font-family="Microsoft YaHei" font-size="10.00">用户名</text>
<text text-anchor="middle" x="216.75" y="-518.69" font-family="Microsoft YaHei" font-size="10.00">姓名</text>
</g>
<!-- 教师&#45;&gt;课程 -->
<g id="edge2" class="edge">
<title>教师&#45;&gt;课程</title>
<path fill="none" stroke="#555555" d="M195.21,-507.84C183.35,-489.33 171,-470.06 171,-470.06 171,-470.06 165.36,-454.1 158.8,-435.53"/>
<polygon fill="#555555" stroke="#555555" points="161.44,-434.61 156.13,-428 156.16,-436.47 161.44,-434.61"/>
<text text-anchor="middle" x="187.88" y="-461.51" font-family="Microsoft YaHei" font-size="9.00">1:n 创建</text>
</g>
<!-- 作业 -->
<g id="node7" class="node">
<title>作业</title>
<path fill="#ffffff" stroke="#333333" stroke-width="1.2" d="M319.89,-254.54C319.89,-254.54 287.61,-254.54 287.61,-254.54 281.61,-254.54 275.61,-248.54 275.61,-242.54 275.61,-242.54 275.61,-169.52 275.61,-169.52 275.61,-163.52 281.61,-157.52 287.61,-157.52 287.61,-157.52 319.89,-157.52 319.89,-157.52 325.89,-157.52 331.89,-163.52 331.89,-169.52 331.89,-169.52 331.89,-242.54 331.89,-242.54 331.89,-248.54 325.89,-254.54 319.89,-254.54"/>
<text text-anchor="middle" x="303.75" y="-239.28" font-family="Microsoft YaHei" font-size="10.00">作业</text>
<text text-anchor="middle" x="303.75" y="-225.03" font-family="Microsoft YaHei" font-size="10.00">作业编号</text>
<text text-anchor="middle" x="303.75" y="-210.78" font-family="Microsoft YaHei" font-size="10.00">课程编号</text>
<text text-anchor="middle" x="303.75" y="-196.53" font-family="Microsoft YaHei" font-size="10.00">章节编号</text>
<text text-anchor="middle" x="303.75" y="-182.28" font-family="Microsoft YaHei" font-size="10.00">教师编号</text>
<text text-anchor="middle" x="303.75" y="-168.03" font-family="Microsoft YaHei" font-size="10.00">作业名称</text>
</g>
<!-- 教师&#45;&gt;作业 -->
<g id="edge5" class="edge">
<title>教师&#45;&gt;作业</title>
<path fill="none" stroke="#555555" d="M225.49,-507.85C240.36,-450.7 270.72,-333.98 288.95,-263.92"/>
<polygon fill="#555555" stroke="#555555" points="291.64,-264.69 290.95,-256.24 286.22,-263.28 291.64,-264.69"/>
<text text-anchor="middle" x="288.6" y="-375.62" font-family="Microsoft YaHei" font-size="9.00">1:n 发布</text>
</g>
<!-- 学生 -->
<g id="node3" class="node">
<title>学生</title>
<path fill="#ffffff" stroke="#333333" stroke-width="1.2" d="M468.89,-583.83C468.89,-583.83 436.61,-583.83 436.61,-583.83 430.61,-583.83 424.61,-577.83 424.61,-571.83 424.61,-571.83 424.61,-513.06 424.61,-513.06 424.61,-507.06 430.61,-501.06 436.61,-501.06 436.61,-501.06 468.89,-501.06 468.89,-501.06 474.89,-501.06 480.89,-507.06 480.89,-513.06 480.89,-513.06 480.89,-571.83 480.89,-571.83 480.89,-577.83 474.89,-583.83 468.89,-583.83"/>
<text text-anchor="middle" x="452.75" y="-568.57" font-family="Microsoft YaHei" font-size="10.00">学生</text>
<text text-anchor="middle" x="452.75" y="-554.32" font-family="Microsoft YaHei" font-size="10.00">学生编号</text>
<text text-anchor="middle" x="452.75" y="-540.07" font-family="Microsoft YaHei" font-size="10.00">用户名</text>
<text text-anchor="middle" x="452.75" y="-525.82" font-family="Microsoft YaHei" font-size="10.00">姓名</text>
<text text-anchor="middle" x="452.75" y="-511.57" font-family="Microsoft YaHei" font-size="10.00">班级</text>
</g>
<!-- 考试记录 -->
<g id="node10" class="node">
<title>考试记录</title>
<path fill="#ffffff" stroke="#333333" stroke-width="1.2" d="M385.89,-82.77C385.89,-82.77 353.61,-82.77 353.61,-82.77 347.61,-82.77 341.61,-76.77 341.61,-70.77 341.61,-70.77 341.61,-12 341.61,-12 341.61,-6 347.61,0 353.61,0 353.61,0 385.89,0 385.89,0 391.89,0 397.89,-6 397.89,-12 397.89,-12 397.89,-70.77 397.89,-70.77 397.89,-76.77 391.89,-82.77 385.89,-82.77"/>
<text text-anchor="middle" x="369.75" y="-67.51" font-family="Microsoft YaHei" font-size="10.00">考试记录</text>
<text text-anchor="middle" x="369.75" y="-53.26" font-family="Microsoft YaHei" font-size="10.00">记录编号</text>
<text text-anchor="middle" x="369.75" y="-39.01" font-family="Microsoft YaHei" font-size="10.00">考试编号</text>
<text text-anchor="middle" x="369.75" y="-24.76" font-family="Microsoft YaHei" font-size="10.00">学生编号</text>
<text text-anchor="middle" x="369.75" y="-10.51" font-family="Microsoft YaHei" font-size="10.00">成绩</text>
</g>
<!-- 学生&#45;&gt;考试记录 -->
<g id="edge12" class="edge">
<title>学生&#45;&gt;考试记录</title>
<path fill="none" stroke="#555555" d="M445.96,-500.6C430.84,-409.72 394.47,-191.02 378.05,-92.26"/>
<polygon fill="#555555" stroke="#555555" points="380.84,-92.01 376.77,-84.58 375.32,-92.93 380.84,-92.01"/>
<text text-anchor="middle" x="429.08" y="-289.74" font-family="Microsoft YaHei" font-size="9.00">1:n 参加</text>
</g>
<!-- 学分记录 -->
<g id="node11" class="node">
<title>学分记录</title>
<path fill="#ffffff" stroke="#333333" stroke-width="1.2" d="M557.89,-419.18C557.89,-419.18 525.61,-419.18 525.61,-419.18 519.61,-419.18 513.61,-413.18 513.61,-407.18 513.61,-407.18 513.61,-348.41 513.61,-348.41 513.61,-342.41 519.61,-336.41 525.61,-336.41 525.61,-336.41 557.89,-336.41 557.89,-336.41 563.89,-336.41 569.89,-342.41 569.89,-348.41 569.89,-348.41 569.89,-407.18 569.89,-407.18 569.89,-413.18 563.89,-419.18 557.89,-419.18"/>
<text text-anchor="middle" x="541.75" y="-403.92" font-family="Microsoft YaHei" font-size="10.00">学分记录</text>
<text text-anchor="middle" x="541.75" y="-389.67" font-family="Microsoft YaHei" font-size="10.00">记录编号</text>
<text text-anchor="middle" x="541.75" y="-375.42" font-family="Microsoft YaHei" font-size="10.00">课程编号</text>
<text text-anchor="middle" x="541.75" y="-361.17" font-family="Microsoft YaHei" font-size="10.00">学生编号</text>
<text text-anchor="middle" x="541.75" y="-346.92" font-family="Microsoft YaHei" font-size="10.00">学分</text>
</g>
<!-- 学生&#45;&gt;学分记录 -->
<g id="edge14" class="edge">
<title>学生&#45;&gt;学分记录</title>
<path fill="none" stroke="#555555" d="M474.98,-500.82C487.14,-478.6 502.29,-450.92 515.08,-427.54"/>
<polygon fill="#555555" stroke="#555555" points="517.39,-429.16 518.77,-420.8 512.47,-426.47 517.39,-429.16"/>
<text text-anchor="middle" x="514.12" y="-461.51" font-family="Microsoft YaHei" font-size="9.00">1:n 获得</text>
</g>
<!-- AI会话 -->
<g id="node12" class="node">
<title>AI会话</title>
<path fill="#ffffff" stroke="#333333" stroke-width="1.2" d="M379.89,-426.31C379.89,-426.31 347.61,-426.31 347.61,-426.31 341.61,-426.31 335.61,-420.31 335.61,-414.31 335.61,-414.31 335.61,-341.29 335.61,-341.29 335.61,-335.29 341.61,-329.29 347.61,-329.29 347.61,-329.29 379.89,-329.29 379.89,-329.29 385.89,-329.29 391.89,-335.29 391.89,-341.29 391.89,-341.29 391.89,-414.31 391.89,-414.31 391.89,-420.31 385.89,-426.31 379.89,-426.31"/>
<text text-anchor="middle" x="363.75" y="-411.05" font-family="Microsoft YaHei" font-size="10.00">AI会话</text>
<text text-anchor="middle" x="363.75" y="-396.8" font-family="Microsoft YaHei" font-size="10.00">会话编号</text>
<text text-anchor="middle" x="363.75" y="-382.55" font-family="Microsoft YaHei" font-size="10.00">学生编号</text>
<text text-anchor="middle" x="363.75" y="-368.3" font-family="Microsoft YaHei" font-size="10.00">课程编号</text>
<text text-anchor="middle" x="363.75" y="-354.05" font-family="Microsoft YaHei" font-size="10.00">章节编号</text>
<text text-anchor="middle" x="363.75" y="-339.8" font-family="Microsoft YaHei" font-size="10.00">会话标题</text>
</g>
<!-- 学生&#45;&gt;AI会话 -->
<g id="edge15" class="edge">
<title>学生&#45;&gt;AI会话</title>
<path fill="none" stroke="#555555" d="M424.16,-509.93C406.82,-490.8 388,-470.06 388,-470.06 388,-470.06 383.76,-454.1 378.83,-435.53"/>
<polygon fill="#555555" stroke="#555555" points="381.59,-435.04 376.83,-428.03 376.18,-436.48 381.59,-435.04"/>
<text text-anchor="middle" x="404.88" y="-461.51" font-family="Microsoft YaHei" font-size="9.00">1:n 发起</text>
</g>
<!-- 章节 -->
<g id="node5" class="node">
<title>章节</title>
<path fill="#ffffff" stroke="#333333" stroke-width="1.2" d="M87.89,-240.29C87.89,-240.29 55.61,-240.29 55.61,-240.29 49.61,-240.29 43.61,-234.29 43.61,-228.29 43.61,-228.29 43.61,-183.77 43.61,-183.77 43.61,-177.77 49.61,-171.77 55.61,-171.77 55.61,-171.77 87.89,-171.77 87.89,-171.77 93.89,-171.77 99.89,-177.77 99.89,-183.77 99.89,-183.77 99.89,-228.29 99.89,-228.29 99.89,-234.29 93.89,-240.29 87.89,-240.29"/>
<text text-anchor="middle" x="71.75" y="-225.03" font-family="Microsoft YaHei" font-size="10.00">章节</text>
<text text-anchor="middle" x="71.75" y="-210.78" font-family="Microsoft YaHei" font-size="10.00">章节编号</text>
<text text-anchor="middle" x="71.75" y="-196.53" font-family="Microsoft YaHei" font-size="10.00">课程编号</text>
<text text-anchor="middle" x="71.75" y="-182.28" font-family="Microsoft YaHei" font-size="10.00">章节名称</text>
</g>
<!-- 课程&#45;&gt;章节 -->
<g id="edge3" class="edge">
<title>课程&#45;&gt;章节</title>
<path fill="none" stroke="#555555" d="M95.61,-352.39C54.88,-329.34 0,-298.29 0,-298.29 0,-298.29 0,-285.54 0,-285.54 0,-285.54 18.84,-264.93 37.21,-244.83"/>
<polygon fill="#555555" stroke="#555555" points="39.04,-246.97 42.37,-239.18 34.91,-243.19 39.04,-246.97"/>
<text text-anchor="middle" x="16.88" y="-289.74" font-family="Microsoft YaHei" font-size="9.00">1:n 包含</text>
</g>
<!-- 课程&#45;&gt;作业 -->
<g id="edge6" class="edge">
<title>课程&#45;&gt;作业</title>
<path fill="none" stroke="#555555" d="M148.83,-329.03C153.48,-306.95 158,-285.54 158,-285.54 158,-285.54 255.75,-254.54 255.75,-254.54 255.75,-254.54 261.36,-248.99 268.74,-241.68"/>
<polygon fill="#555555" stroke="#555555" points="270.48,-243.9 274.2,-236.28 266.54,-239.92 270.48,-243.9"/>
<text text-anchor="middle" x="174.88" y="-289.74" font-family="Microsoft YaHei" font-size="9.00">1:n 布置</text>
</g>
<!-- 考试 -->
<g id="node8" class="node">
<title>考试</title>
<path fill="#ffffff" stroke="#333333" stroke-width="1.2" d="M223.89,-247.41C223.89,-247.41 191.61,-247.41 191.61,-247.41 185.61,-247.41 179.61,-241.41 179.61,-235.41 179.61,-235.41 179.61,-176.64 179.61,-176.64 179.61,-170.64 185.61,-164.64 191.61,-164.64 191.61,-164.64 223.89,-164.64 223.89,-164.64 229.89,-164.64 235.89,-170.64 235.89,-176.64 235.89,-176.64 235.89,-235.41 235.89,-235.41 235.89,-241.41 229.89,-247.41 223.89,-247.41"/>
<text text-anchor="middle" x="207.75" y="-232.15" font-family="Microsoft YaHei" font-size="10.00">考试</text>
<text text-anchor="middle" x="207.75" y="-217.9" font-family="Microsoft YaHei" font-size="10.00">考试编号</text>
<text text-anchor="middle" x="207.75" y="-203.65" font-family="Microsoft YaHei" font-size="10.00">课程编号</text>
<text text-anchor="middle" x="207.75" y="-189.4" font-family="Microsoft YaHei" font-size="10.00">章节编号</text>
<text text-anchor="middle" x="207.75" y="-175.15" font-family="Microsoft YaHei" font-size="10.00">考试名称</text>
</g>
<!-- 课程&#45;&gt;考试 -->
<g id="edge8" class="edge">
<title>课程&#45;&gt;考试</title>
<path fill="none" stroke="#555555" d="M102.27,-328.87C89.83,-312.52 79,-298.29 79,-298.29 79,-298.29 79,-285.54 79,-285.54 79,-285.54 133.25,-252.46 171.32,-229.24"/>
<polygon fill="#555555" stroke="#555555" points="172.51,-231.8 177.88,-225.24 169.6,-227.02 172.51,-231.8"/>
<text text-anchor="middle" x="95.88" y="-289.74" font-family="Microsoft YaHei" font-size="9.00">1:n 包含</text>
</g>
<!-- 课程&#45;&gt;学分记录 -->
<g id="edge13" class="edge">
<title>课程&#45;&gt;学分记录</title>
<path fill="none" stroke="#555555" d="M181.64,-406.3C197.53,-416.86 211.75,-426.31 211.75,-426.31 211.75,-426.31 304.88,-455.75 304.88,-455.75 304.88,-455.75 338.62,-455.75 338.62,-455.75 338.62,-455.75 446.35,-414.41 504.9,-391.94"/>
<polygon fill="#555555" stroke="#555555" points="505.63,-394.66 512.09,-389.18 503.62,-389.43 505.63,-394.66"/>
<text text-anchor="middle" x="321.75" y="-461.51" font-family="Microsoft YaHei" font-size="9.00">1:n 发放</text>
</g>
<!-- 课程&#45;&gt;AI会话 -->
<g id="edge16" class="edge">
<title>课程&#45;&gt;AI会话</title>
<path fill="none" stroke="#555555" d="M181.64,-406.3C197.53,-416.86 211.75,-426.31 211.75,-426.31 211.75,-426.31 261.88,-455.75 261.88,-455.75 261.88,-455.75 295.62,-455.75 295.62,-455.75 295.62,-455.75 312.25,-436.72 329.08,-417.47"/>
<polygon fill="#555555" stroke="#555555" points="331.1,-419.41 334.26,-411.54 326.88,-415.73 331.1,-419.41"/>
<text text-anchor="middle" x="278.75" y="-461.51" font-family="Microsoft YaHei" font-size="9.00">1:n 关联</text>
</g>
<!-- 资源 -->
<g id="node6" class="node">
<title>资源</title>
<path fill="#ffffff" stroke="#333333" stroke-width="1.2" d="M87.89,-82.77C87.89,-82.77 55.61,-82.77 55.61,-82.77 49.61,-82.77 43.61,-76.77 43.61,-70.77 43.61,-70.77 43.61,-12 43.61,-12 43.61,-6 49.61,0 55.61,0 55.61,0 87.89,0 87.89,0 93.89,0 99.89,-6 99.89,-12 99.89,-12 99.89,-70.77 99.89,-70.77 99.89,-76.77 93.89,-82.77 87.89,-82.77"/>
<text text-anchor="middle" x="71.75" y="-67.51" font-family="Microsoft YaHei" font-size="10.00">资源</text>
<text text-anchor="middle" x="71.75" y="-53.26" font-family="Microsoft YaHei" font-size="10.00">资源编号</text>
<text text-anchor="middle" x="71.75" y="-39.01" font-family="Microsoft YaHei" font-size="10.00">章节编号</text>
<text text-anchor="middle" x="71.75" y="-24.76" font-family="Microsoft YaHei" font-size="10.00">资源名称</text>
<text text-anchor="middle" x="71.75" y="-10.51" font-family="Microsoft YaHei" font-size="10.00">资源类型</text>
</g>
<!-- 章节&#45;&gt;资源 -->
<g id="edge4" class="edge">
<title>章节&#45;&gt;资源</title>
<path fill="none" stroke="#555555" d="M71.75,-171.33C71.75,-148.54 71.75,-118.05 71.75,-92.44"/>
<polygon fill="#555555" stroke="#555555" points="74.55,-92.76 71.75,-84.76 68.95,-92.76 74.55,-92.76"/>
<text text-anchor="middle" x="88.62" y="-117.97" font-family="Microsoft YaHei" font-size="9.00">1:n 包含</text>
</g>
<!-- 章节&#45;&gt;作业 -->
<g id="edge7" class="edge">
<title>章节&#45;&gt;作业</title>
<path fill="none" stroke="#555555" d="M100.31,-223.14C138.61,-246.08 201.88,-283.98 201.88,-283.98 201.88,-283.98 235.62,-283.98 235.62,-283.98 235.62,-283.98 252.25,-264.95 269.08,-245.7"/>
<polygon fill="#555555" stroke="#555555" points="271.1,-247.64 274.26,-239.77 266.88,-243.96 271.1,-247.64"/>
<text text-anchor="middle" x="218.75" y="-289.74" font-family="Microsoft YaHei" font-size="9.00">1:n 对应</text>
</g>
<!-- 章节&#45;&gt;考试 -->
<g id="edge9" class="edge">
<title>章节&#45;&gt;考试</title>
<path fill="none" stroke="#555555" d="M100.26,-206.03C120.48,-206.03 147.83,-206.03 169.88,-206.03"/>
<polygon fill="#555555" stroke="#555555" points="169.76,-208.83 177.76,-206.03 169.76,-203.23 169.76,-208.83"/>
<text text-anchor="middle" x="139.75" y="-213.23" font-family="Microsoft YaHei" font-size="9.00">1:n 对应</text>
</g>
<!-- 章节&#45;&gt;AI会话 -->
<g id="edge17" class="edge">
<title>章节&#45;&gt;AI会话</title>
<path fill="none" stroke="#555555" d="M100.08,-222.32C125.8,-236.21 159.75,-254.54 159.75,-254.54 159.75,-254.54 245.75,-285.54 245.75,-285.54 245.75,-285.54 305.75,-329.29 305.75,-329.29 305.75,-329.29 316.2,-337.85 328.23,-347.71"/>
<polygon fill="#555555" stroke="#555555" points="326.3,-349.74 334.26,-352.64 329.84,-345.41 326.3,-349.74"/>
<text text-anchor="middle" x="278.72" y="-289.74" font-family="Microsoft YaHei" font-size="9.00">1:n 关联</text>
</g>
<!-- 题目 -->
<g id="node9" class="node">
<title>题目</title>
<path fill="#ffffff" stroke="#333333" stroke-width="1.2" d="M223.89,-82.77C223.89,-82.77 191.61,-82.77 191.61,-82.77 185.61,-82.77 179.61,-76.77 179.61,-70.77 179.61,-70.77 179.61,-12 179.61,-12 179.61,-6 185.61,0 191.61,0 191.61,0 223.89,0 223.89,0 229.89,0 235.89,-6 235.89,-12 235.89,-12 235.89,-70.77 235.89,-70.77 235.89,-76.77 229.89,-82.77 223.89,-82.77"/>
<text text-anchor="middle" x="207.75" y="-67.51" font-family="Microsoft YaHei" font-size="10.00">题目</text>
<text text-anchor="middle" x="207.75" y="-53.26" font-family="Microsoft YaHei" font-size="10.00">题目编号</text>
<text text-anchor="middle" x="207.75" y="-39.01" font-family="Microsoft YaHei" font-size="10.00">考试编号</text>
<text text-anchor="middle" x="207.75" y="-24.76" font-family="Microsoft YaHei" font-size="10.00">题型</text>
<text text-anchor="middle" x="207.75" y="-10.51" font-family="Microsoft YaHei" font-size="10.00">题目内容</text>
</g>
<!-- 考试&#45;&gt;题目 -->
<g id="edge10" class="edge">
<title>考试&#45;&gt;题目</title>
<path fill="none" stroke="#555555" d="M207.75,-164.41C207.75,-142.58 207.75,-115.47 207.75,-92.36"/>
<polygon fill="#555555" stroke="#555555" points="210.55,-92.57 207.75,-84.57 204.95,-92.57 210.55,-92.57"/>
<text text-anchor="middle" x="224.62" y="-117.97" font-family="Microsoft YaHei" font-size="9.00">1:n 生成</text>
</g>
<!-- 考试&#45;&gt;考试记录 -->
<g id="edge11" class="edge">
<title>考试&#45;&gt;考试记录</title>
<path fill="none" stroke="#555555" d="M236.34,-176.33C263.78,-148.77 305.3,-107.09 334.72,-77.56"/>
<polygon fill="#555555" stroke="#555555" points="336.44,-79.79 340.11,-72.15 332.48,-75.84 336.44,-79.79"/>
<text text-anchor="middle" x="315.32" y="-117.97" font-family="Microsoft YaHei" font-size="9.00">1:n 产生</text>
</g>
</g>
</svg>
