<?xml version="1.0" encoding="UTF-8" standalone="no"?>
<!DOCTYPE svg PUBLIC "-//W3C//DTD SVG 1.1//EN"
 "http://www.w3.org/Graphics/SVG/1.1/DTD/svg11.dtd">
<!-- Generated by graphviz version 12.2.0 (20241103.1931)
 -->
<!-- Title: G Pages: 1 -->
<svg width="593pt" height="113pt"
 viewBox="8.64 8.64 584.64 104.78" xmlns="http://www.w3.org/2000/svg" xmlns:xlink="http://www.w3.org/1999/xlink">
<g id="graph0" class="graph" transform="scale(0.537363 0.537363) rotate(0) translate(29.04 182.04)">
<title>G</title>
<polygon fill="white" stroke="none" points="-12.96,12.96 -12.96,-165.96 1058.94,-165.96 1058.94,12.96 -12.96,12.96"/>
<text text-anchor="middle" x="522.99" y="-128.1" font-family="Microsoft YaHei" font-size="22.00">考试实体E&#45;R图</text>
<!-- entity -->
<g id="node1" class="node">
<title>entity</title>
<path fill="#ffffff" stroke="#333333" stroke-width="1.35" d="M544,-115C544,-115 514,-115 514,-115 508,-115 502,-109 502,-103 502,-103 502,-91 502,-91 502,-85 508,-79 514,-79 514,-79 544,-79 544,-79 550,-79 556,-85 556,-91 556,-91 556,-103 556,-103 556,-109 550,-115 544,-115"/>
<text text-anchor="middle" x="529" y="-94.62" font-family="Microsoft YaHei" font-size="10.00">考试</text>
</g>
<!-- a1 -->
<g id="node2" class="node">
<title>a1</title>
<ellipse fill="#ffffff" stroke="#333333" stroke-width="1.35" cx="27" cy="-18" rx="27" ry="18"/>
<text text-anchor="middle" x="27" y="-15.62" font-family="Microsoft YaHei" font-size="10.00">编号</text>
</g>
<!-- entity&#45;&gt;a1 -->
<g id="edge1" class="edge">
<title>entity&#45;&gt;a1</title>
<path fill="none" stroke="#333333" d="M501.65,-91.81C413.78,-78.33 139.32,-36.23 53.16,-23.01"/>
</g>
<!-- a2 -->
<g id="node3" class="node">
<title>a2</title>
<ellipse fill="#ffffff" stroke="#333333" stroke-width="1.35" cx="121" cy="-18" rx="34.98" ry="18"/>
<text text-anchor="middle" x="121" y="-15.62" font-family="Microsoft YaHei" font-size="10.00">课程编号</text>
</g>
<!-- entity&#45;&gt;a2 -->
<g id="edge2" class="edge">
<title>entity&#45;&gt;a2</title>
<path fill="none" stroke="#333333" d="M501.6,-90.83C428.97,-77.12 231.76,-39.9 153.57,-25.15"/>
</g>
<!-- a3 -->
<g id="node4" class="node">
<title>a3</title>
<ellipse fill="#ffffff" stroke="#333333" stroke-width="1.35" cx="223" cy="-18" rx="34.98" ry="18"/>
<text text-anchor="middle" x="223" y="-15.62" font-family="Microsoft YaHei" font-size="10.00">章节编号</text>
</g>
<!-- entity&#45;&gt;a3 -->
<g id="edge3" class="edge">
<title>entity&#45;&gt;a3</title>
<path fill="none" stroke="#333333" d="M501.58,-89.1C444.66,-74.78 314.03,-41.91 254.09,-26.82"/>
</g>
<!-- a4 -->
<g id="node5" class="node">
<title>a4</title>
<ellipse fill="#ffffff" stroke="#333333" stroke-width="1.35" cx="325" cy="-18" rx="34.98" ry="18"/>
<text text-anchor="middle" x="325" y="-15.62" font-family="Microsoft YaHei" font-size="10.00">考试名称</text>
</g>
<!-- entity&#45;&gt;a4 -->
<g id="edge4" class="edge">
<title>entity&#45;&gt;a4</title>
<path fill="none" stroke="#333333" d="M501.91,-85.77C463,-71.09 391.68,-44.17 352.53,-29.39"/>
</g>
<!-- a5 -->
<g id="node6" class="node">
<title>a5</title>
<ellipse fill="#ffffff" stroke="#333333" stroke-width="1.35" cx="427" cy="-18" rx="34.98" ry="18"/>
<text text-anchor="middle" x="427" y="-15.62" font-family="Microsoft YaHei" font-size="10.00">考试说明</text>
</g>
<!-- entity&#45;&gt;a5 -->
<g id="edge5" class="edge">
<title>entity&#45;&gt;a5</title>
<path fill="none" stroke="#333333" d="M505.85,-78.53C487.75,-64.86 462.89,-46.1 445.96,-33.31"/>
</g>
<!-- a6 -->
<g id="node7" class="node">
<title>a6</title>
<ellipse fill="#ffffff" stroke="#333333" stroke-width="1.35" cx="529" cy="-18" rx="34.98" ry="18"/>
<text text-anchor="middle" x="529" y="-15.62" font-family="Microsoft YaHei" font-size="10.00">考试时长</text>
</g>
<!-- entity&#45;&gt;a6 -->
<g id="edge6" class="edge">
<title>entity&#45;&gt;a6</title>
<path fill="none" stroke="#333333" d="M529,-78.53C529,-65.93 529,-48.99 529,-36.4"/>
</g>
<!-- a7 -->
<g id="node8" class="node">
<title>a7</title>
<ellipse fill="#ffffff" stroke="#333333" stroke-width="1.35" cx="623" cy="-18" rx="27" ry="18"/>
<text text-anchor="middle" x="623" y="-15.62" font-family="Microsoft YaHei" font-size="10.00">总分</text>
</g>
<!-- entity&#45;&gt;a7 -->
<g id="edge7" class="edge">
<title>entity&#45;&gt;a7</title>
<path fill="none" stroke="#333333" d="M550.33,-78.53C567.34,-64.59 590.82,-45.36 606.43,-32.57"/>
</g>
<!-- a8 -->
<g id="node9" class="node">
<title>a8</title>
<ellipse fill="#ffffff" stroke="#333333" stroke-width="1.35" cx="711" cy="-18" rx="28.78" ry="18"/>
<text text-anchor="middle" x="711" y="-15.62" font-family="Microsoft YaHei" font-size="10.00">及格分</text>
</g>
<!-- entity&#45;&gt;a8 -->
<g id="edge8" class="edge">
<title>entity&#45;&gt;a8</title>
<path fill="none" stroke="#333333" d="M556.25,-84.47C591.95,-69.37 653.95,-43.14 687.62,-28.89"/>
</g>
<!-- a9 -->
<g id="node10" class="node">
<title>a9</title>
<ellipse fill="#ffffff" stroke="#333333" stroke-width="1.35" cx="807" cy="-18" rx="34.98" ry="18"/>
<text text-anchor="middle" x="807" y="-15.62" font-family="Microsoft YaHei" font-size="10.00">开始时间</text>
</g>
<!-- entity&#45;&gt;a9 -->
<g id="edge9" class="edge">
<title>entity&#45;&gt;a9</title>
<path fill="none" stroke="#333333" d="M556.42,-88.41C608.74,-73.91 722.48,-42.41 776.86,-27.35"/>
</g>
<!-- a10 -->
<g id="node11" class="node">
<title>a10</title>
<ellipse fill="#ffffff" stroke="#333333" stroke-width="1.35" cx="909" cy="-18" rx="34.98" ry="18"/>
<text text-anchor="middle" x="909" y="-15.62" font-family="Microsoft YaHei" font-size="10.00">结束时间</text>
</g>
<!-- entity&#45;&gt;a10 -->
<g id="edge10" class="edge">
<title>entity&#45;&gt;a10</title>
<path fill="none" stroke="#333333" d="M556.33,-90.46C624.74,-76.6 803.14,-40.45 876.63,-25.56"/>
</g>
<!-- a11 -->
<g id="node12" class="node">
<title>a11</title>
<ellipse fill="#ffffff" stroke="#333333" stroke-width="1.35" cx="1011" cy="-18" rx="34.98" ry="18"/>
<text text-anchor="middle" x="1011" y="-15.62" font-family="Microsoft YaHei" font-size="10.00">考试状态</text>
</g>
<!-- entity&#45;&gt;a11 -->
<g id="edge11" class="edge">
<title>entity&#45;&gt;a11</title>
<path fill="none" stroke="#333333" d="M556.3,-91.64C639.14,-78.4 887.54,-38.72 977.78,-24.31"/>
</g>
</g>
</svg>
