<?xml version="1.0" encoding="UTF-8" standalone="no"?>
<!DOCTYPE svg PUBLIC "-//W3C//DTD SVG 1.1//EN"
 "http://www.w3.org/Graphics/SVG/1.1/DTD/svg11.dtd">
<!-- Generated by graphviz version 12.2.0 (20241103.1931)
 -->
<!-- Title: G Pages: 1 -->
<svg width="593pt" height="121pt"
 viewBox="8.64 8.64 584.64 111.91" xmlns="http://www.w3.org/2000/svg" xmlns:xlink="http://www.w3.org/1999/xlink">
<g id="graph0" class="graph" transform="scale(0.577211 0.577211) rotate(0) translate(27.93 180.93)">
<title>G</title>
<polygon fill="white" stroke="none" points="-12.96,12.96 -12.96,-165.96 984.94,-165.96 984.94,12.96 -12.96,12.96"/>
<text text-anchor="middle" x="485.99" y="-128.1" font-family="Microsoft YaHei" font-size="22.00">课程实体E&#45;R图</text>
<!-- entity -->
<g id="node1" class="node">
<title>entity</title>
<path fill="#ffffff" stroke="#333333" stroke-width="1.35" d="M493,-115C493,-115 463,-115 463,-115 457,-115 451,-109 451,-103 451,-103 451,-91 451,-91 451,-85 457,-79 463,-79 463,-79 493,-79 493,-79 499,-79 505,-85 505,-91 505,-91 505,-103 505,-103 505,-109 499,-115 493,-115"/>
<text text-anchor="middle" x="478" y="-94.62" font-family="Microsoft YaHei" font-size="10.00">课程</text>
</g>
<!-- a1 -->
<g id="node2" class="node">
<title>a1</title>
<ellipse fill="#ffffff" stroke="#333333" stroke-width="1.35" cx="27" cy="-18" rx="27" ry="18"/>
<text text-anchor="middle" x="27" y="-15.62" font-family="Microsoft YaHei" font-size="10.00">编号</text>
</g>
<!-- entity&#45;&gt;a1 -->
<g id="edge1" class="edge">
<title>entity&#45;&gt;a1</title>
<path fill="none" stroke="#333333" d="M450.8,-91.36C370.06,-77.57 132.41,-37 53.1,-23.46"/>
</g>
<!-- a2 -->
<g id="node3" class="node">
<title>a2</title>
<ellipse fill="#ffffff" stroke="#333333" stroke-width="1.35" cx="121" cy="-18" rx="34.98" ry="18"/>
<text text-anchor="middle" x="121" y="-15.62" font-family="Microsoft YaHei" font-size="10.00">课程名称</text>
</g>
<!-- entity&#45;&gt;a2 -->
<g id="edge2" class="edge">
<title>entity&#45;&gt;a2</title>
<path fill="none" stroke="#333333" d="M450.58,-90.09C385.52,-76.05 222.08,-40.8 152.82,-25.86"/>
</g>
<!-- a3 -->
<g id="node4" class="node">
<title>a3</title>
<ellipse fill="#ffffff" stroke="#333333" stroke-width="1.35" cx="223" cy="-18" rx="34.98" ry="18"/>
<text text-anchor="middle" x="223" y="-15.62" font-family="Microsoft YaHei" font-size="10.00">课程封面</text>
</g>
<!-- entity&#45;&gt;a3 -->
<g id="edge3" class="edge">
<title>entity&#45;&gt;a3</title>
<path fill="none" stroke="#333333" d="M450.71,-87.76C402.53,-73.21 302.77,-43.09 252.84,-28.01"/>
</g>
<!-- a4 -->
<g id="node5" class="node">
<title>a4</title>
<ellipse fill="#ffffff" stroke="#333333" stroke-width="1.35" cx="325" cy="-18" rx="34.98" ry="18"/>
<text text-anchor="middle" x="325" y="-15.62" font-family="Microsoft YaHei" font-size="10.00">课程类型</text>
</g>
<!-- entity&#45;&gt;a4 -->
<g id="edge4" class="edge">
<title>entity&#45;&gt;a4</title>
<path fill="none" stroke="#333333" d="M450.65,-82.23C421.77,-67.7 376.68,-45.01 349.1,-31.13"/>
</g>
<!-- a5 -->
<g id="node6" class="node">
<title>a5</title>
<ellipse fill="#ffffff" stroke="#333333" stroke-width="1.35" cx="427" cy="-18" rx="34.98" ry="18"/>
<text text-anchor="middle" x="427" y="-15.62" font-family="Microsoft YaHei" font-size="10.00">课程时长</text>
</g>
<!-- entity&#45;&gt;a5 -->
<g id="edge5" class="edge">
<title>entity&#45;&gt;a5</title>
<path fill="none" stroke="#333333" d="M466.43,-78.53C457.85,-65.57 446.23,-48.03 437.83,-35.35"/>
</g>
<!-- a6 -->
<g id="node7" class="node">
<title>a6</title>
<ellipse fill="#ffffff" stroke="#333333" stroke-width="1.35" cx="529" cy="-18" rx="34.98" ry="18"/>
<text text-anchor="middle" x="529" y="-15.62" font-family="Microsoft YaHei" font-size="10.00">开始时间</text>
</g>
<!-- entity&#45;&gt;a6 -->
<g id="edge6" class="edge">
<title>entity&#45;&gt;a6</title>
<path fill="none" stroke="#333333" d="M489.57,-78.53C498.15,-65.57 509.77,-48.03 518.17,-35.35"/>
</g>
<!-- a7 -->
<g id="node8" class="node">
<title>a7</title>
<ellipse fill="#ffffff" stroke="#333333" stroke-width="1.35" cx="631" cy="-18" rx="34.98" ry="18"/>
<text text-anchor="middle" x="631" y="-15.62" font-family="Microsoft YaHei" font-size="10.00">结束时间</text>
</g>
<!-- entity&#45;&gt;a7 -->
<g id="edge7" class="edge">
<title>entity&#45;&gt;a7</title>
<path fill="none" stroke="#333333" d="M505.35,-82.23C534.23,-67.7 579.32,-45.01 606.9,-31.13"/>
</g>
<!-- a8 -->
<g id="node9" class="node">
<title>a8</title>
<ellipse fill="#ffffff" stroke="#333333" stroke-width="1.35" cx="733" cy="-18" rx="34.98" ry="18"/>
<text text-anchor="middle" x="733" y="-15.62" font-family="Microsoft YaHei" font-size="10.00">课程学分</text>
</g>
<!-- entity&#45;&gt;a8 -->
<g id="edge8" class="edge">
<title>entity&#45;&gt;a8</title>
<path fill="none" stroke="#333333" d="M505.29,-87.76C553.47,-73.21 653.23,-43.09 703.16,-28.01"/>
</g>
<!-- a9 -->
<g id="node10" class="node">
<title>a9</title>
<ellipse fill="#ffffff" stroke="#333333" stroke-width="1.35" cx="835" cy="-18" rx="34.98" ry="18"/>
<text text-anchor="middle" x="835" y="-15.62" font-family="Microsoft YaHei" font-size="10.00">审核状态</text>
</g>
<!-- entity&#45;&gt;a9 -->
<g id="edge9" class="edge">
<title>entity&#45;&gt;a9</title>
<path fill="none" stroke="#333333" d="M505.42,-90.09C570.48,-76.05 733.92,-40.8 803.18,-25.86"/>
</g>
<!-- a10 -->
<g id="node11" class="node">
<title>a10</title>
<ellipse fill="#ffffff" stroke="#333333" stroke-width="1.35" cx="937" cy="-18" rx="34.98" ry="18"/>
<text text-anchor="middle" x="937" y="-15.62" font-family="Microsoft YaHei" font-size="10.00">课程详情</text>
</g>
<!-- entity&#45;&gt;a10 -->
<g id="edge10" class="edge">
<title>entity&#45;&gt;a10</title>
<path fill="none" stroke="#333333" d="M505.34,-91.41C585.14,-78.03 817.59,-39.03 904.08,-24.52"/>
</g>
</g>
</svg>
