<?xml version="1.0" encoding="UTF-8" standalone="no"?>
<!DOCTYPE svg PUBLIC "-//W3C//DTD SVG 1.1//EN"
 "http://www.w3.org/Graphics/SVG/1.1/DTD/svg11.dtd">
<!-- Generated by graphviz version 12.2.0 (20241103.1931)
 -->
<!-- Title: G Pages: 1 -->
<svg width="593pt" height="120pt"
 viewBox="8.64 8.64 584.64 111.30" xmlns="http://www.w3.org/2000/svg" xmlns:xlink="http://www.w3.org/1999/xlink">
<g id="graph0" class="graph" transform="scale(0.573762 0.573762) rotate(0) translate(28.02 181.02)">
<title>G</title>
<polygon fill="white" stroke="none" points="-12.96,12.96 -12.96,-165.96 990.94,-165.96 990.94,12.96 -12.96,12.96"/>
<text text-anchor="middle" x="488.99" y="-128.1" font-family="Microsoft YaHei" font-size="22.00">题目实体E&#45;R图</text>
<!-- entity -->
<g id="node1" class="node">
<title>entity</title>
<path fill="#ffffff" stroke="#333333" stroke-width="1.35" d="M520,-115C520,-115 490,-115 490,-115 484,-115 478,-109 478,-103 478,-103 478,-91 478,-91 478,-85 484,-79 490,-79 490,-79 520,-79 520,-79 526,-79 532,-85 532,-91 532,-91 532,-103 532,-103 532,-109 526,-115 520,-115"/>
<text text-anchor="middle" x="505" y="-94.62" font-family="Microsoft YaHei" font-size="10.00">题目</text>
</g>
<!-- a1 -->
<g id="node2" class="node">
<title>a1</title>
<ellipse fill="#ffffff" stroke="#333333" stroke-width="1.35" cx="27" cy="-18" rx="27" ry="18"/>
<text text-anchor="middle" x="27" y="-15.62" font-family="Microsoft YaHei" font-size="10.00">编号</text>
</g>
<!-- entity&#45;&gt;a1 -->
<g id="edge1" class="edge">
<title>entity&#45;&gt;a1</title>
<path fill="none" stroke="#333333" d="M477.58,-91.58C392.88,-77.94 136.06,-36.57 53.13,-23.21"/>
</g>
<!-- a2 -->
<g id="node3" class="node">
<title>a2</title>
<ellipse fill="#ffffff" stroke="#333333" stroke-width="1.35" cx="121" cy="-18" rx="34.98" ry="18"/>
<text text-anchor="middle" x="121" y="-15.62" font-family="Microsoft YaHei" font-size="10.00">考试编号</text>
</g>
<!-- entity&#45;&gt;a2 -->
<g id="edge2" class="edge">
<title>entity&#45;&gt;a2</title>
<path fill="none" stroke="#333333" d="M477.69,-90.52C408.64,-76.68 227.31,-40.32 153.23,-25.46"/>
</g>
<!-- a3 -->
<g id="node4" class="node">
<title>a3</title>
<ellipse fill="#ffffff" stroke="#333333" stroke-width="1.35" cx="223" cy="-18" rx="34.98" ry="18"/>
<text text-anchor="middle" x="223" y="-15.62" font-family="Microsoft YaHei" font-size="10.00">课程编号</text>
</g>
<!-- entity&#45;&gt;a3 -->
<g id="edge3" class="edge">
<title>entity&#45;&gt;a3</title>
<path fill="none" stroke="#333333" d="M477.7,-88.55C424.76,-74.09 308.5,-42.35 253.28,-27.27"/>
</g>
<!-- a4 -->
<g id="node5" class="node">
<title>a4</title>
<ellipse fill="#ffffff" stroke="#333333" stroke-width="1.35" cx="317" cy="-18" rx="27" ry="18"/>
<text text-anchor="middle" x="317" y="-15.62" font-family="Microsoft YaHei" font-size="10.00">题型</text>
</g>
<!-- entity&#45;&gt;a4 -->
<g id="edge4" class="edge">
<title>entity&#45;&gt;a4</title>
<path fill="none" stroke="#333333" d="M477.66,-84.8C440.39,-69.54 374.31,-42.47 339.65,-28.28"/>
</g>
<!-- a5 -->
<g id="node6" class="node">
<title>a5</title>
<ellipse fill="#ffffff" stroke="#333333" stroke-width="1.35" cx="411" cy="-18" rx="34.98" ry="18"/>
<text text-anchor="middle" x="411" y="-15.62" font-family="Microsoft YaHei" font-size="10.00">题目内容</text>
</g>
<!-- entity&#45;&gt;a5 -->
<g id="edge5" class="edge">
<title>entity&#45;&gt;a5</title>
<path fill="none" stroke="#333333" d="M483.67,-78.53C467.2,-65.04 444.67,-46.58 429.08,-33.81"/>
</g>
<!-- a6 -->
<g id="node7" class="node">
<title>a6</title>
<ellipse fill="#ffffff" stroke="#333333" stroke-width="1.35" cx="505" cy="-18" rx="27" ry="18"/>
<text text-anchor="middle" x="505" y="-15.62" font-family="Microsoft YaHei" font-size="10.00">选项A</text>
</g>
<!-- entity&#45;&gt;a6 -->
<g id="edge6" class="edge">
<title>entity&#45;&gt;a6</title>
<path fill="none" stroke="#333333" d="M505,-78.53C505,-65.93 505,-48.99 505,-36.4"/>
</g>
<!-- a7 -->
<g id="node8" class="node">
<title>a7</title>
<ellipse fill="#ffffff" stroke="#333333" stroke-width="1.35" cx="591" cy="-18" rx="27" ry="18"/>
<text text-anchor="middle" x="591" y="-15.62" font-family="Microsoft YaHei" font-size="10.00">选项B</text>
</g>
<!-- entity&#45;&gt;a7 -->
<g id="edge7" class="edge">
<title>entity&#45;&gt;a7</title>
<path fill="none" stroke="#333333" d="M524.51,-78.53C539.88,-64.77 561.01,-45.85 575.29,-33.06"/>
</g>
<!-- a8 -->
<g id="node9" class="node">
<title>a8</title>
<ellipse fill="#ffffff" stroke="#333333" stroke-width="1.35" cx="677" cy="-18" rx="27" ry="18"/>
<text text-anchor="middle" x="677" y="-15.62" font-family="Microsoft YaHei" font-size="10.00">选项C</text>
</g>
<!-- entity&#45;&gt;a8 -->
<g id="edge8" class="edge">
<title>entity&#45;&gt;a8</title>
<path fill="none" stroke="#333333" d="M532.25,-83.8C566.26,-68.58 623.74,-42.84 655.06,-28.82"/>
</g>
<!-- a9 -->
<g id="node10" class="node">
<title>a9</title>
<ellipse fill="#ffffff" stroke="#333333" stroke-width="1.35" cx="763" cy="-18" rx="27.35" ry="18"/>
<text text-anchor="middle" x="763" y="-15.62" font-family="Microsoft YaHei" font-size="10.00">选项D</text>
</g>
<!-- entity&#45;&gt;a9 -->
<g id="edge9" class="edge">
<title>entity&#45;&gt;a9</title>
<path fill="none" stroke="#333333" d="M532.12,-87.91C582.58,-72.85 690.13,-40.75 738.52,-26.31"/>
</g>
<!-- a10 -->
<g id="node11" class="node">
<title>a10</title>
<ellipse fill="#ffffff" stroke="#333333" stroke-width="1.35" cx="849" cy="-18" rx="27" ry="18"/>
<text text-anchor="middle" x="849" y="-15.62" font-family="Microsoft YaHei" font-size="10.00">答案</text>
</g>
<!-- entity&#45;&gt;a10 -->
<g id="edge10" class="edge">
<title>entity&#45;&gt;a10</title>
<path fill="none" stroke="#333333" d="M532.28,-89.89C597.28,-75.35 760.54,-38.8 823.6,-24.69"/>
</g>
<!-- a11 -->
<g id="node12" class="node">
<title>a11</title>
<ellipse fill="#ffffff" stroke="#333333" stroke-width="1.35" cx="943" cy="-18" rx="34.98" ry="18"/>
<text text-anchor="middle" x="943" y="-15.62" font-family="Microsoft YaHei" font-size="10.00">题目分值</text>
</g>
<!-- entity&#45;&gt;a11 -->
<g id="edge11" class="edge">
<title>entity&#45;&gt;a11</title>
<path fill="none" stroke="#333333" d="M532.4,-91.18C609.28,-77.67 826.82,-39.42 910.05,-24.79"/>
</g>
</g>
</svg>
