<?xml version="1.0" encoding="UTF-8" standalone="no"?>
<!DOCTYPE svg PUBLIC "-//W3C//DTD SVG 1.1//EN"
 "http://www.w3.org/Graphics/SVG/1.1/DTD/svg11.dtd">
<!-- Generated by graphviz version 2.42.4 (0)
 -->
<!-- Title: G Pages: 1 -->
<svg width="298pt" height="828pt"
 viewBox="0.00 0.00 298.00 828.00" xmlns="http://www.w3.org/2000/svg" xmlns:xlink="http://www.w3.org/1999/xlink">
<g id="graph0" class="graph" transform="scale(1 1) rotate(0) translate(4 824)">
<title>G</title>
<polygon fill="white" stroke="transparent" points="-4,4 -4,-824 294,-824 294,4 -4,4"/>
<!-- start -->
<g id="node1" class="node">
<title>start</title>
<ellipse fill="#fbe7cf" stroke="#d08a3c" cx="221.5" cy="-802" rx="27" ry="18"/>
<text text-anchor="middle" x="221.5" y="-798.9" font-family="Microsoft YaHei" font-size="12.00">开始</text>
</g>
<!-- login -->
<g id="node2" class="node">
<title>login</title>
<path fill="#fff6ea" stroke="#d08a3c" d="M254,-757C254,-757 189,-757 189,-757 183,-757 177,-751 177,-745 177,-745 177,-733 177,-733 177,-727 183,-721 189,-721 189,-721 254,-721 254,-721 260,-721 266,-727 266,-733 266,-733 266,-745 266,-745 266,-751 260,-757 254,-757"/>
<text text-anchor="middle" x="221.5" y="-735.9" font-family="Microsoft YaHei" font-size="12.00">学生登录系统</text>
</g>
<!-- start&#45;&gt;login -->
<g id="edge1" class="edge">
<title>start&#45;&gt;login</title>
<path fill="none" stroke="#8b7e6a" d="M221.5,-783.78C221.5,-783.78 221.5,-764.9 221.5,-764.9"/>
<polygon fill="#8b7e6a" stroke="#8b7e6a" points="224.13,-764.9 221.5,-757.4 218.88,-764.9 224.13,-764.9"/>
</g>
<!-- browse -->
<g id="node3" class="node">
<title>browse</title>
<path fill="#fff6ea" stroke="#d08a3c" d="M272,-694C272,-694 171,-694 171,-694 165,-694 159,-688 159,-682 159,-682 159,-670 159,-670 159,-664 165,-658 171,-658 171,-658 272,-658 272,-658 278,-658 284,-664 284,-670 284,-670 284,-682 284,-682 284,-688 278,-694 272,-694"/>
<text text-anchor="middle" x="221.5" y="-672.9" font-family="Microsoft YaHei" font-size="12.00">浏览课程并查看详情</text>
</g>
<!-- login&#45;&gt;browse -->
<g id="edge2" class="edge">
<title>login&#45;&gt;browse</title>
<path fill="none" stroke="#8b7e6a" d="M221.5,-720.78C221.5,-720.78 221.5,-701.9 221.5,-701.9"/>
<polygon fill="#8b7e6a" stroke="#8b7e6a" points="224.13,-701.9 221.5,-694.4 218.88,-701.9 224.13,-701.9"/>
</g>
<!-- enroll -->
<g id="node4" class="node">
<title>enroll</title>
<path fill="#fff6ea" stroke="#d08a3c" d="M272,-631C272,-631 171,-631 171,-631 165,-631 159,-625 159,-619 159,-619 159,-607 159,-607 159,-601 165,-595 171,-595 171,-595 272,-595 272,-595 278,-595 284,-601 284,-607 284,-607 284,-619 284,-619 284,-625 278,-631 272,-631"/>
<text text-anchor="middle" x="221.5" y="-609.9" font-family="Microsoft YaHei" font-size="12.00">选择已审核通过课程</text>
</g>
<!-- browse&#45;&gt;enroll -->
<g id="edge3" class="edge">
<title>browse&#45;&gt;enroll</title>
<path fill="none" stroke="#8b7e6a" d="M221.5,-657.78C221.5,-657.78 221.5,-638.9 221.5,-638.9"/>
<polygon fill="#8b7e6a" stroke="#8b7e6a" points="224.13,-638.9 221.5,-631.4 218.88,-638.9 224.13,-638.9"/>
</g>
<!-- study -->
<g id="node5" class="node">
<title>study</title>
<path fill="#fff6ea" stroke="#d08a3c" d="M278,-568C278,-568 165,-568 165,-568 159,-568 153,-562 153,-556 153,-556 153,-544 153,-544 153,-538 159,-532 165,-532 165,-532 278,-532 278,-532 284,-532 290,-538 290,-544 290,-544 290,-556 290,-556 290,-562 284,-568 278,-568"/>
<text text-anchor="middle" x="221.5" y="-546.9" font-family="Microsoft YaHei" font-size="12.00">按章节学习视频与资源</text>
</g>
<!-- enroll&#45;&gt;study -->
<g id="edge4" class="edge">
<title>enroll&#45;&gt;study</title>
<path fill="none" stroke="#8b7e6a" d="M221.5,-594.78C221.5,-594.78 221.5,-575.9 221.5,-575.9"/>
<polygon fill="#8b7e6a" stroke="#8b7e6a" points="224.13,-575.9 221.5,-568.4 218.88,-575.9 224.13,-575.9"/>
</g>
<!-- progress -->
<g id="node6" class="node">
<title>progress</title>
<path fill="#fff6ea" stroke="#d08a3c" d="M223,-505C223,-505 134,-505 134,-505 128,-505 122,-499 122,-493 122,-493 122,-481 122,-481 122,-475 128,-469 134,-469 134,-469 223,-469 223,-469 229,-469 235,-475 235,-481 235,-481 235,-493 235,-493 235,-499 229,-505 223,-505"/>
<text text-anchor="middle" x="178.5" y="-483.9" font-family="Microsoft YaHei" font-size="12.00">系统保存学习进度</text>
</g>
<!-- study&#45;&gt;progress -->
<g id="edge5" class="edge">
<title>study&#45;&gt;progress</title>
<path fill="none" stroke="#8b7e6a" d="M194,-531.78C194,-531.78 194,-512.9 194,-512.9"/>
<polygon fill="#8b7e6a" stroke="#8b7e6a" points="196.63,-512.9 194,-505.4 191.38,-512.9 196.63,-512.9"/>
</g>
<!-- homework -->
<g id="node7" class="node">
<title>homework</title>
<path fill="#fff6ea" stroke="#d08a3c" d="M211,-442C211,-442 110,-442 110,-442 104,-442 98,-436 98,-430 98,-430 98,-418 98,-418 98,-412 104,-406 110,-406 110,-406 211,-406 211,-406 217,-406 223,-412 223,-418 223,-418 223,-430 223,-430 223,-436 217,-442 211,-442"/>
<text text-anchor="middle" x="160.5" y="-420.9" font-family="Microsoft YaHei" font-size="12.00">进入作业并提交答案</text>
</g>
<!-- progress&#45;&gt;homework -->
<g id="edge6" class="edge">
<title>progress&#45;&gt;homework</title>
<path fill="none" stroke="#8b7e6a" d="M172.5,-468.78C172.5,-468.78 172.5,-449.9 172.5,-449.9"/>
<polygon fill="#8b7e6a" stroke="#8b7e6a" points="175.13,-449.9 172.5,-442.4 169.88,-449.9 175.13,-449.9"/>
</g>
<!-- examCheck -->
<g id="node8" class="node">
<title>examCheck</title>
<path fill="#fff1df" stroke="#d08a3c" d="M107.64,-377.17C107.64,-377.17 14.55,-362.83 14.55,-362.83 8.62,-361.91 8.62,-360.09 14.55,-359.17 14.55,-359.17 107.64,-344.83 107.64,-344.83 113.57,-343.91 125.43,-343.91 131.36,-344.83 131.36,-344.83 224.45,-359.17 224.45,-359.17 230.38,-360.09 230.38,-361.91 224.45,-362.83 224.45,-362.83 131.36,-377.17 131.36,-377.17 125.43,-378.09 113.57,-378.09 107.64,-377.17"/>
<text text-anchor="middle" x="119.5" y="-357.9" font-family="Microsoft YaHei" font-size="12.00">学习进度达到 100%？</text>
</g>
<!-- homework&#45;&gt;examCheck -->
<g id="edge7" class="edge">
<title>homework&#45;&gt;examCheck</title>
<path fill="none" stroke="#8b7e6a" d="M160.5,-405.78C160.5,-405.78 160.5,-380.32 160.5,-380.32"/>
<polygon fill="#8b7e6a" stroke="#8b7e6a" points="163.13,-380.32 160.5,-372.82 157.88,-380.32 163.13,-380.32"/>
</g>
<!-- exam -->
<g id="node9" class="node">
<title>exam</title>
<path fill="#fff6ea" stroke="#d08a3c" d="M160,-302C160,-302 59,-302 59,-302 53,-302 47,-296 47,-290 47,-290 47,-278 47,-278 47,-272 53,-266 59,-266 59,-266 160,-266 160,-266 166,-266 172,-272 172,-278 172,-278 172,-290 172,-290 172,-296 166,-302 160,-302"/>
<text text-anchor="middle" x="109.5" y="-280.9" font-family="Microsoft YaHei" font-size="12.00">参加考试并提交试卷</text>
</g>
<!-- examCheck&#45;&gt;exam -->
<g id="edge10" class="edge">
<title>examCheck&#45;&gt;exam</title>
<path fill="none" stroke="#8b7e6a" d="M109.5,-344.29C109.5,-344.29 109.5,-309.52 109.5,-309.52"/>
<polygon fill="#8b7e6a" stroke="#8b7e6a" points="112.13,-309.52 109.5,-302.02 106.88,-309.52 112.13,-309.52"/>
<text text-anchor="middle" x="124" y="-318.8" font-family="Times,serif" font-size="14.00">是</text>
</g>
<!-- continueStudy -->
<g id="node13" class="node">
<title>continueStudy</title>
<path fill="#fff6ea" stroke="#d08a3c" d="M273,-99C273,-99 172,-99 172,-99 166,-99 160,-93 160,-87 160,-87 160,-75 160,-75 160,-69 166,-63 172,-63 172,-63 273,-63 273,-63 279,-63 285,-69 285,-75 285,-75 285,-87 285,-87 285,-93 279,-99 273,-99"/>
<text text-anchor="middle" x="222.5" y="-77.9" font-family="Microsoft YaHei" font-size="12.00">继续学习或补交作业</text>
</g>
<!-- examCheck&#45;&gt;continueStudy -->
<g id="edge8" class="edge">
<title>examCheck&#45;&gt;continueStudy</title>
<path fill="none" stroke="#8b7e6a" d="M210.58,-356.6C210.58,-356.6 210.58,-106.71 210.58,-106.71"/>
<polygon fill="#8b7e6a" stroke="#8b7e6a" points="213.2,-106.71 210.58,-99.21 207.95,-106.71 213.2,-106.71"/>
<text text-anchor="middle" x="229" y="-217.3" font-family="Times,serif" font-size="14.00">否</text>
</g>
<!-- settle -->
<g id="node10" class="node">
<title>settle</title>
<path fill="#fff6ea" stroke="#d08a3c" d="M173,-239C173,-239 12,-239 12,-239 6,-239 0,-233 0,-227 0,-227 0,-215 0,-215 0,-209 6,-203 12,-203 12,-203 173,-203 173,-203 179,-203 185,-209 185,-215 185,-215 185,-227 185,-227 185,-233 179,-239 173,-239"/>
<text text-anchor="middle" x="92.5" y="-217.9" font-family="Microsoft YaHei" font-size="12.00">系统汇总进度、作业、考试结果</text>
</g>
<!-- exam&#45;&gt;settle -->
<g id="edge11" class="edge">
<title>exam&#45;&gt;settle</title>
<path fill="none" stroke="#8b7e6a" d="M109.5,-265.78C109.5,-265.78 109.5,-246.9 109.5,-246.9"/>
<polygon fill="#8b7e6a" stroke="#8b7e6a" points="112.13,-246.9 109.5,-239.4 106.88,-246.9 112.13,-246.9"/>
</g>
<!-- credit -->
<g id="node11" class="node">
<title>credit</title>
<path fill="#fff1df" stroke="#d08a3c" d="M80.74,-173.59C80.74,-173.59 16.4,-160.41 16.4,-160.41 10.52,-159.2 10.52,-156.8 16.4,-155.59 16.4,-155.59 80.74,-142.41 80.74,-142.41 86.62,-141.2 98.38,-141.2 104.26,-142.41 104.26,-142.41 168.6,-155.59 168.6,-155.59 174.48,-156.8 174.48,-159.2 168.6,-160.41 168.6,-160.41 104.26,-173.59 104.26,-173.59 98.38,-174.8 86.62,-174.8 80.74,-173.59"/>
<text text-anchor="middle" x="92.5" y="-154.9" font-family="Microsoft YaHei" font-size="12.00">满足结课条件？</text>
</g>
<!-- settle&#45;&gt;credit -->
<g id="edge12" class="edge">
<title>settle&#45;&gt;credit</title>
<path fill="none" stroke="#8b7e6a" d="M92.5,-202.78C92.5,-202.78 92.5,-183.9 92.5,-183.9"/>
<polygon fill="#8b7e6a" stroke="#8b7e6a" points="95.13,-183.9 92.5,-176.4 89.88,-183.9 95.13,-183.9"/>
</g>
<!-- finish -->
<g id="node12" class="node">
<title>finish</title>
<path fill="#fff6ea" stroke="#d08a3c" d="M130,-99C130,-99 53,-99 53,-99 47,-99 41,-93 41,-87 41,-87 41,-75 41,-75 41,-69 47,-63 53,-63 53,-63 130,-63 130,-63 136,-63 142,-69 142,-75 142,-75 142,-87 142,-87 142,-93 136,-99 130,-99"/>
<text text-anchor="middle" x="91.5" y="-77.9" font-family="Microsoft YaHei" font-size="12.00">结课并发放学分</text>
</g>
<!-- credit&#45;&gt;finish -->
<g id="edge13" class="edge">
<title>credit&#45;&gt;finish</title>
<path fill="none" stroke="#8b7e6a" d="M91.5,-140.14C91.5,-140.14 91.5,-106.53 91.5,-106.53"/>
<polygon fill="#8b7e6a" stroke="#8b7e6a" points="94.13,-106.53 91.5,-99.03 88.88,-106.53 94.13,-106.53"/>
<text text-anchor="middle" x="100" y="-115.8" font-family="Times,serif" font-size="14.00">是</text>
</g>
<!-- credit&#45;&gt;continueStudy -->
<g id="edge14" class="edge">
<title>credit&#45;&gt;continueStudy</title>
<path fill="none" stroke="#8b7e6a" d="M170.21,-155.78C170.21,-155.78 170.21,-106.69 170.21,-106.69"/>
<polygon fill="#8b7e6a" stroke="#8b7e6a" points="172.84,-106.69 170.21,-99.19 167.59,-106.69 172.84,-106.69"/>
<text text-anchor="middle" x="169" y="-115.8" font-family="Times,serif" font-size="14.00">否</text>
</g>
<!-- end -->
<g id="node14" class="node">
<title>end</title>
<ellipse fill="#fbe7cf" stroke="#d08a3c" cx="91.5" cy="-18" rx="27" ry="18"/>
<text text-anchor="middle" x="91.5" y="-14.9" font-family="Microsoft YaHei" font-size="12.00">结束</text>
</g>
<!-- finish&#45;&gt;end -->
<g id="edge15" class="edge">
<title>finish&#45;&gt;end</title>
<path fill="none" stroke="#8b7e6a" d="M91.5,-62.78C91.5,-62.78 91.5,-43.9 91.5,-43.9"/>
<polygon fill="#8b7e6a" stroke="#8b7e6a" points="94.13,-43.9 91.5,-36.4 88.88,-43.9 94.13,-43.9"/>
</g>
<!-- continueStudy&#45;&gt;study -->
<g id="edge9" class="edge">
<title>continueStudy&#45;&gt;study</title>
<path fill="none" stroke="#8b7e6a" d="M260.58,-99.1C260.58,-99.1 260.58,-524.46 260.58,-524.46"/>
<polygon fill="#8b7e6a" stroke="#8b7e6a" points="257.95,-524.46 260.58,-531.96 263.2,-524.46 257.95,-524.46"/>
</g>
</g>
</svg>
