<?xml version="1.0" encoding="UTF-8" standalone="no"?>
<!DOCTYPE svg PUBLIC "-//W3C//DTD SVG 1.1//EN"
 "http://www.w3.org/Graphics/SVG/1.1/DTD/svg11.dtd">
<!-- Generated by graphviz version 12.2.0 (20241103.1931)
 -->
<!-- Title: G Pages: 1 -->
<svg width="320pt" height="674pt"
 viewBox="0.00 0.00 320.37 674.00" xmlns="http://www.w3.org/2000/svg" xmlns:xlink="http://www.w3.org/1999/xlink">
<g id="graph0" class="graph" transform="scale(1 1) rotate(0) translate(4 670)">
<title>G</title>
<polygon fill="white" stroke="none" points="-4,4 -4,-670 316.37,-670 316.37,4 -4,4"/>
<g id="clust1" class="cluster">
<title>cluster_sys</title>
<path fill="none" stroke="#d8d8d8" d="M130,-8C130,-8 294.5,-8 294.5,-8 300.5,-8 306.5,-14 306.5,-20 306.5,-20 306.5,-646 306.5,-646 306.5,-652 300.5,-658 294.5,-658 294.5,-658 130,-658 130,-658 124,-658 118,-652 118,-646 118,-646 118,-20 118,-20 118,-14 124,-8 130,-8"/>
<text text-anchor="middle" x="212.25" y="-640.7" font-family="Times New Roman,serif" font-size="14.00">线上教育培训管理系统</text>
</g>
<!-- actor -->
<g id="node1" class="node">
<title>actor</title>
<text text-anchor="middle" x="27" y="-318.85" font-family="Microsoft YaHei" font-size="12.00">教师</text>
</g>
<!-- uc1 -->
<g id="node2" class="node">
<title>uc1</title>
<ellipse fill="none" stroke="black" cx="211.75" cy="-34" rx="27.3" ry="18"/>
<text text-anchor="middle" x="211.75" y="-30.85" font-family="Microsoft YaHei" font-size="12.00">登录</text>
</g>
<!-- actor&#45;&gt;uc1 -->
<g id="edge1" class="edge">
<title>actor&#45;&gt;uc1</title>
<path fill="none" stroke="#7a8a99" d="M29.38,-304.11C33.82,-258.79 51.58,-138.25 118,-70 132.83,-54.76 154.86,-45.85 173.72,-40.71"/>
<polygon fill="#7a8a99" stroke="#7a8a99" points="174.32,-44.16 183.2,-38.39 172.66,-37.36 174.32,-44.16"/>
</g>
<!-- uc2 -->
<g id="node3" class="node">
<title>uc2</title>
<ellipse fill="none" stroke="black" cx="211.75" cy="-106" rx="43.67" ry="18"/>
<text text-anchor="middle" x="211.75" y="-102.85" font-family="Microsoft YaHei" font-size="12.00">维护课程</text>
</g>
<!-- actor&#45;&gt;uc2 -->
<g id="edge2" class="edge">
<title>actor&#45;&gt;uc2</title>
<path fill="none" stroke="#7a8a99" d="M32.31,-304.02C41.78,-268.3 67.63,-187.87 118,-142 130.13,-130.96 146.02,-123.15 161.21,-117.7"/>
<polygon fill="#7a8a99" stroke="#7a8a99" points="162.24,-121.05 170.65,-114.61 160.06,-114.4 162.24,-121.05"/>
</g>
<!-- uc3 -->
<g id="node4" class="node">
<title>uc3</title>
<ellipse fill="none" stroke="black" cx="211.75" cy="-178" rx="68.24" ry="18"/>
<text text-anchor="middle" x="211.75" y="-174.85" font-family="Microsoft YaHei" font-size="12.00">维护章节与资源</text>
</g>
<!-- actor&#45;&gt;uc3 -->
<g id="edge3" class="edge">
<title>actor&#45;&gt;uc3</title>
<path fill="none" stroke="#7a8a99" d="M38.65,-304.3C53.66,-280.72 83.12,-239.07 118,-214 128.52,-206.44 140.84,-200.22 153.01,-195.2"/>
<polygon fill="#7a8a99" stroke="#7a8a99" points="154.13,-198.52 162.19,-191.64 151.6,-191.99 154.13,-198.52"/>
</g>
<!-- uc4 -->
<g id="node5" class="node">
<title>uc4</title>
<ellipse fill="none" stroke="black" cx="211.75" cy="-250" rx="43.67" ry="18"/>
<text text-anchor="middle" x="211.75" y="-246.85" font-family="Microsoft YaHei" font-size="12.00">发布作业</text>
</g>
<!-- actor&#45;&gt;uc4 -->
<g id="edge4" class="edge">
<title>actor&#45;&gt;uc4</title>
<path fill="none" stroke="#7a8a99" d="M53.97,-311.53C71.93,-304.31 96.39,-294.51 118,-286 134.45,-279.52 152.58,-272.46 168.41,-266.33"/>
<polygon fill="#7a8a99" stroke="#7a8a99" points="169.48,-269.67 177.54,-262.8 166.95,-263.14 169.48,-269.67"/>
</g>
<!-- uc5 -->
<g id="node6" class="node">
<title>uc5</title>
<ellipse fill="none" stroke="black" cx="211.75" cy="-322" rx="43.67" ry="18"/>
<text text-anchor="middle" x="211.75" y="-318.85" font-family="Microsoft YaHei" font-size="12.00">维护题库</text>
</g>
<!-- actor&#45;&gt;uc5 -->
<g id="edge5" class="edge">
<title>actor&#45;&gt;uc5</title>
<path fill="none" stroke="#7a8a99" d="M53.8,-322C80.4,-322 122.69,-322 156.67,-322"/>
<polygon fill="#7a8a99" stroke="#7a8a99" points="156.33,-325.5 166.33,-322 156.33,-318.5 156.33,-325.5"/>
</g>
<!-- uc6 -->
<g id="node7" class="node">
<title>uc6</title>
<ellipse fill="none" stroke="black" cx="211.75" cy="-394" rx="43.67" ry="18"/>
<text text-anchor="middle" x="211.75" y="-390.85" font-family="Microsoft YaHei" font-size="12.00">发布考试</text>
</g>
<!-- actor&#45;&gt;uc6 -->
<g id="edge6" class="edge">
<title>actor&#45;&gt;uc6</title>
<path fill="none" stroke="#7a8a99" d="M53.97,-332.47C71.93,-339.69 96.39,-349.49 118,-358 134.45,-364.48 152.58,-371.54 168.41,-377.67"/>
<polygon fill="#7a8a99" stroke="#7a8a99" points="166.95,-380.86 177.54,-381.2 169.48,-374.33 166.95,-380.86"/>
</g>
<!-- uc7 -->
<g id="node8" class="node">
<title>uc7</title>
<ellipse fill="none" stroke="black" cx="211.75" cy="-466" rx="68.24" ry="18"/>
<text text-anchor="middle" x="211.75" y="-462.85" font-family="Microsoft YaHei" font-size="12.00">批改作业与阅卷</text>
</g>
<!-- actor&#45;&gt;uc7 -->
<g id="edge7" class="edge">
<title>actor&#45;&gt;uc7</title>
<path fill="none" stroke="#7a8a99" d="M38.65,-339.7C53.66,-363.28 83.12,-404.93 118,-430 128.52,-437.56 140.84,-443.78 153.01,-448.8"/>
<polygon fill="#7a8a99" stroke="#7a8a99" points="151.6,-452.01 162.19,-452.36 154.13,-445.48 151.6,-452.01"/>
</g>
<!-- uc8 -->
<g id="node9" class="node">
<title>uc8</title>
<ellipse fill="none" stroke="black" cx="211.75" cy="-538" rx="84.62" ry="18"/>
<text text-anchor="middle" x="211.75" y="-534.85" font-family="Microsoft YaHei" font-size="12.00">查看选课与学习进度</text>
</g>
<!-- actor&#45;&gt;uc8 -->
<g id="edge8" class="edge">
<title>actor&#45;&gt;uc8</title>
<path fill="none" stroke="#7a8a99" d="M32.31,-339.98C41.78,-375.7 67.63,-456.13 118,-502 125.96,-509.25 135.55,-515.1 145.49,-519.81"/>
<polygon fill="#7a8a99" stroke="#7a8a99" points="143.97,-522.97 154.54,-523.72 146.75,-516.54 143.97,-522.97"/>
</g>
<!-- uc9 -->
<g id="node10" class="node">
<title>uc9</title>
<ellipse fill="none" stroke="black" cx="211.75" cy="-610" rx="54.42" ry="18"/>
<text text-anchor="middle" x="211.75" y="-606.85" font-family="Microsoft YaHei" font-size="12.00">AI 辅助出题</text>
</g>
<!-- actor&#45;&gt;uc9 -->
<g id="edge9" class="edge">
<title>actor&#45;&gt;uc9</title>
<path fill="none" stroke="#7a8a99" d="M29.38,-339.89C33.82,-385.21 51.58,-505.75 118,-574 127.89,-584.16 140.96,-591.5 154.17,-596.79"/>
<polygon fill="#7a8a99" stroke="#7a8a99" points="152.72,-599.99 163.31,-600.1 155.1,-593.41 152.72,-599.99"/>
</g>
</g>
</svg>
