<?xml version="1.0" encoding="UTF-8" standalone="no"?>
<!DOCTYPE svg PUBLIC "-//W3C//DTD SVG 1.1//EN"
 "http://www.w3.org/Graphics/SVG/1.1/DTD/svg11.dtd">
<!-- Generated by graphviz version 2.42.4 (0)
 -->
<!-- Title: G Pages: 1 -->
<svg width="306pt" height="625pt"
 viewBox="0.00 0.00 306.00 625.00" xmlns="http://www.w3.org/2000/svg" xmlns:xlink="http://www.w3.org/1999/xlink">
<g id="graph0" class="graph" transform="scale(1 1) rotate(0) translate(4 621)">
<title>G</title>
<polygon fill="white" stroke="transparent" points="-4,4 -4,-621 302,-621 302,4 -4,4"/>
<!-- start -->
<g id="node1" class="node">
<title>start</title>
<ellipse fill="#dcebfa" stroke="#5d8cc0" cx="192.5" cy="-599" rx="27" ry="18"/>
<text text-anchor="middle" x="192.5" y="-595.9" font-family="Microsoft YaHei" font-size="12.00">开始</text>
</g>
<!-- login -->
<g id="node2" class="node">
<title>login</title>
<path fill="#eef5ff" stroke="#5d8cc0" d="M225,-554C225,-554 160,-554 160,-554 154,-554 148,-548 148,-542 148,-542 148,-530 148,-530 148,-524 154,-518 160,-518 160,-518 225,-518 225,-518 231,-518 237,-524 237,-530 237,-530 237,-542 237,-542 237,-548 231,-554 225,-554"/>
<text text-anchor="middle" x="192.5" y="-532.9" font-family="Microsoft YaHei" font-size="12.00">教师登录系统</text>
</g>
<!-- start&#45;&gt;login -->
<g id="edge1" class="edge">
<title>start&#45;&gt;login</title>
<path fill="none" stroke="#6c7f93" d="M192.5,-580.78C192.5,-580.78 192.5,-561.9 192.5,-561.9"/>
<polygon fill="#6c7f93" stroke="#6c7f93" points="195.13,-561.9 192.5,-554.4 189.88,-561.9 195.13,-561.9"/>
</g>
<!-- course -->
<g id="node3" class="node">
<title>course</title>
<path fill="#eef5ff" stroke="#5d8cc0" d="M231,-491C231,-491 154,-491 154,-491 148,-491 142,-485 142,-479 142,-479 142,-467 142,-467 142,-461 148,-455 154,-455 154,-455 231,-455 231,-455 237,-455 243,-461 243,-467 243,-467 243,-479 243,-479 243,-485 237,-491 231,-491"/>
<text text-anchor="middle" x="192.5" y="-469.9" font-family="Microsoft YaHei" font-size="12.00">创建或编辑课程</text>
</g>
<!-- login&#45;&gt;course -->
<g id="edge2" class="edge">
<title>login&#45;&gt;course</title>
<path fill="none" stroke="#6c7f93" d="M192.5,-517.78C192.5,-517.78 192.5,-498.9 192.5,-498.9"/>
<polygon fill="#6c7f93" stroke="#6c7f93" points="195.13,-498.9 192.5,-491.4 189.88,-498.9 195.13,-498.9"/>
</g>
<!-- submit -->
<g id="node4" class="node">
<title>submit</title>
<path fill="#eef5ff" stroke="#5d8cc0" d="M184,-428C184,-428 119,-428 119,-428 113,-428 107,-422 107,-416 107,-416 107,-404 107,-404 107,-398 113,-392 119,-392 119,-392 184,-392 184,-392 190,-392 196,-398 196,-404 196,-404 196,-416 196,-416 196,-422 190,-428 184,-428"/>
<text text-anchor="middle" x="151.5" y="-406.9" font-family="Microsoft YaHei" font-size="12.00">提交课程审核</text>
</g>
<!-- course&#45;&gt;submit -->
<g id="edge3" class="edge">
<title>course&#45;&gt;submit</title>
<path fill="none" stroke="#6c7f93" d="M169,-454.78C169,-454.78 169,-435.9 169,-435.9"/>
<polygon fill="#6c7f93" stroke="#6c7f93" points="171.63,-435.9 169,-428.4 166.38,-435.9 171.63,-435.9"/>
</g>
<!-- review -->
<g id="node5" class="node">
<title>review</title>
<path fill="#fff5e8" stroke="#d08a3c" d="M122.91,-361.89C122.91,-361.89 79.02,-350.11 79.02,-350.11 73.23,-348.56 73.23,-345.44 79.02,-343.89 79.02,-343.89 122.91,-332.11 122.91,-332.11 128.71,-330.56 140.29,-330.56 146.09,-332.11 146.09,-332.11 189.98,-343.89 189.98,-343.89 195.77,-345.44 195.77,-348.56 189.98,-350.11 189.98,-350.11 146.09,-361.89 146.09,-361.89 140.29,-363.44 128.71,-363.44 122.91,-361.89"/>
<text text-anchor="middle" x="134.5" y="-343.9" font-family="Microsoft YaHei" font-size="12.00">审核通过？</text>
</g>
<!-- submit&#45;&gt;review -->
<g id="edge4" class="edge">
<title>submit&#45;&gt;review</title>
<path fill="none" stroke="#6c7f93" d="M151.5,-391.78C151.5,-391.78 151.5,-368.28 151.5,-368.28"/>
<polygon fill="#6c7f93" stroke="#6c7f93" points="154.13,-368.28 151.5,-360.78 148.88,-368.28 154.13,-368.28"/>
</g>
<!-- revise -->
<g id="node6" class="node">
<title>revise</title>
<path fill="#eef5ff" stroke="#5d8cc0" d="M286,-288C286,-288 173,-288 173,-288 167,-288 161,-282 161,-276 161,-276 161,-264 161,-264 161,-258 167,-252 173,-252 173,-252 286,-252 286,-252 292,-252 298,-258 298,-264 298,-264 298,-276 298,-276 298,-282 292,-288 286,-288"/>
<text text-anchor="middle" x="229.5" y="-266.9" font-family="Microsoft YaHei" font-size="12.00">根据驳回意见修改课程</text>
</g>
<!-- review&#45;&gt;revise -->
<g id="edge5" class="edge">
<title>review&#45;&gt;revise</title>
<path fill="none" stroke="#6c7f93" d="M181.27,-341.46C181.27,-341.46 181.27,-295.78 181.27,-295.78"/>
<polygon fill="#6c7f93" stroke="#6c7f93" points="183.89,-295.78 181.27,-288.28 178.64,-295.78 183.89,-295.78"/>
<text text-anchor="middle" x="185" y="-304.8" font-family="Times,serif" font-size="14.00">否</text>
</g>
<!-- chapter -->
<g id="node7" class="node">
<title>chapter</title>
<path fill="#eef5ff" stroke="#5d8cc0" d="M131,-288C131,-288 66,-288 66,-288 60,-288 54,-282 54,-276 54,-276 54,-264 54,-264 54,-258 60,-252 66,-252 66,-252 131,-252 131,-252 137,-252 143,-258 143,-264 143,-264 143,-276 143,-276 143,-282 137,-288 131,-288"/>
<text text-anchor="middle" x="98.5" y="-266.9" font-family="Microsoft YaHei" font-size="12.00">维护课程章节</text>
</g>
<!-- review&#45;&gt;chapter -->
<g id="edge7" class="edge">
<title>review&#45;&gt;chapter</title>
<path fill="none" stroke="#6c7f93" d="M105.23,-336.62C105.23,-336.62 105.23,-295.67 105.23,-295.67"/>
<polygon fill="#6c7f93" stroke="#6c7f93" points="107.86,-295.67 105.23,-288.17 102.61,-295.67 107.86,-295.67"/>
<text text-anchor="middle" x="124" y="-304.8" font-family="Times,serif" font-size="14.00">是</text>
</g>
<!-- revise&#45;&gt;course -->
<g id="edge6" class="edge">
<title>revise&#45;&gt;course</title>
<path fill="none" stroke="#6c7f93" d="M222.27,-288.01C222.27,-288.01 222.27,-447.23 222.27,-447.23"/>
<polygon fill="#6c7f93" stroke="#6c7f93" points="219.64,-447.23 222.27,-454.73 224.89,-447.23 219.64,-447.23"/>
</g>
<!-- resource -->
<g id="node8" class="node">
<title>resource</title>
<path fill="#eef5ff" stroke="#5d8cc0" d="M161,-225C161,-225 36,-225 36,-225 30,-225 24,-219 24,-213 24,-213 24,-201 24,-201 24,-195 30,-189 36,-189 36,-189 161,-189 161,-189 167,-189 173,-195 173,-201 173,-201 173,-213 173,-213 173,-219 167,-225 161,-225"/>
<text text-anchor="middle" x="98.5" y="-203.9" font-family="Microsoft YaHei" font-size="12.00">上传资源并提交资源审核</text>
</g>
<!-- chapter&#45;&gt;resource -->
<g id="edge8" class="edge">
<title>chapter&#45;&gt;resource</title>
<path fill="none" stroke="#6c7f93" d="M98.5,-251.78C98.5,-251.78 98.5,-232.9 98.5,-232.9"/>
<polygon fill="#6c7f93" stroke="#6c7f93" points="101.13,-232.9 98.5,-225.4 95.88,-232.9 101.13,-232.9"/>
</g>
<!-- publish -->
<g id="node9" class="node">
<title>publish</title>
<path fill="#eef5ff" stroke="#5d8cc0" d="M155,-162C155,-162 42,-162 42,-162 36,-162 30,-156 30,-150 30,-150 30,-138 30,-138 30,-132 36,-126 42,-126 42,-126 155,-126 155,-126 161,-126 167,-132 167,-138 167,-138 167,-150 167,-150 167,-156 161,-162 155,-162"/>
<text text-anchor="middle" x="98.5" y="-140.9" font-family="Microsoft YaHei" font-size="12.00">发布作业、题库与考试</text>
</g>
<!-- resource&#45;&gt;publish -->
<g id="edge9" class="edge">
<title>resource&#45;&gt;publish</title>
<path fill="none" stroke="#6c7f93" d="M98.5,-188.78C98.5,-188.78 98.5,-169.9 98.5,-169.9"/>
<polygon fill="#6c7f93" stroke="#6c7f93" points="101.13,-169.9 98.5,-162.4 95.88,-169.9 101.13,-169.9"/>
</g>
<!-- tracking -->
<g id="node10" class="node">
<title>tracking</title>
<path fill="#eef5ff" stroke="#5d8cc0" d="M185,-99C185,-99 12,-99 12,-99 6,-99 0,-93 0,-87 0,-87 0,-75 0,-75 0,-69 6,-63 12,-63 12,-63 185,-63 185,-63 191,-63 197,-69 197,-75 197,-75 197,-87 197,-87 197,-93 191,-99 185,-99"/>
<text text-anchor="middle" x="98.5" y="-77.9" font-family="Microsoft YaHei" font-size="12.00">查看选课、进度、作业和考试结果</text>
</g>
<!-- publish&#45;&gt;tracking -->
<g id="edge10" class="edge">
<title>publish&#45;&gt;tracking</title>
<path fill="none" stroke="#6c7f93" d="M98.5,-125.78C98.5,-125.78 98.5,-106.9 98.5,-106.9"/>
<polygon fill="#6c7f93" stroke="#6c7f93" points="101.13,-106.9 98.5,-99.4 95.88,-106.9 101.13,-106.9"/>
</g>
<!-- end -->
<g id="node11" class="node">
<title>end</title>
<ellipse fill="#dcebfa" stroke="#5d8cc0" cx="98.5" cy="-18" rx="27" ry="18"/>
<text text-anchor="middle" x="98.5" y="-14.9" font-family="Microsoft YaHei" font-size="12.00">结束</text>
</g>
<!-- tracking&#45;&gt;end -->
<g id="edge11" class="edge">
<title>tracking&#45;&gt;end</title>
<path fill="none" stroke="#6c7f93" d="M98.5,-62.78C98.5,-62.78 98.5,-43.9 98.5,-43.9"/>
<polygon fill="#6c7f93" stroke="#6c7f93" points="101.13,-43.9 98.5,-36.4 95.88,-43.9 101.13,-43.9"/>
</g>
</g>
</svg>
