<?xml version="1.0" encoding="UTF-8" standalone="no"?>
<!DOCTYPE svg PUBLIC "-//W3C//DTD SVG 1.1//EN"
 "http://www.w3.org/Graphics/SVG/1.1/DTD/svg11.dtd">
<!-- Generated by graphviz version 12.2.0 (20241103.1931)
 -->
<!-- Title: G Pages: 1 -->
<svg width="872pt" height="808pt"
 viewBox="4.32 4.32 867.36 803.61" xmlns="http://www.w3.org/2000/svg" xmlns:xlink="http://www.w3.org/1999/xlink">
<g id="graph0" class="graph" transform="scale(1 1) rotate(0) translate(15.84 792.09)">
<title>G</title>
<polygon fill="white" stroke="none" points="-11.52,11.52 -11.52,-787.77 851.52,-787.77 851.52,11.52 -11.52,11.52"/>
<text text-anchor="middle" x="420" y="-749.45" font-family="Microsoft YaHei" font-size="24.00">线上教育培训管理系统总体架构</text>
<!-- access -->
<g id="node1" class="node">
<title>access</title>
<polygon fill="#f8fbff" stroke="none" points="19,-645.5 19,-736 821,-736 821,-645.5 19,-645.5"/>
<text text-anchor="start" x="27" y="-716.65" font-family="Microsoft YaHei" font-weight="bold" font-size="13.00">用户与访问层</text>
<polygon fill="white" stroke="none" points="33,-659.5 33,-690 807,-690 807,-659.5 33,-659.5"/>
<polygon fill="none" stroke="#46617a" points="33,-659.5 33,-690 807,-690 807,-659.5 33,-659.5"/>
<text text-anchor="start" x="365.25" y="-671.6" font-family="Microsoft YaHei" font-size="12.00">学生 / 教师 / 管理员</text>
<polygon fill="none" stroke="#a9b8c8" points="19,-645.5 19,-736 821,-736 821,-645.5 19,-645.5"/>
</g>
<!-- ui -->
<g id="node2" class="node">
<title>ui</title>
<polygon fill="#f8fbff" stroke="none" points="19,-511.5 19,-622.5 821,-622.5 821,-511.5 19,-511.5"/>
<text text-anchor="start" x="27" y="-603.15" font-family="Microsoft YaHei" font-weight="bold" font-size="13.00">表现层：Web 前端</text>
<polygon fill="#eef5ff" stroke="none" points="35,-527.5 35,-574.5 416,-574.5 416,-527.5 35,-527.5"/>
<polygon fill="none" stroke="#3b82f6" points="35,-527.5 35,-574.5 416,-574.5 416,-527.5 35,-527.5"/>
<text text-anchor="start" x="180.5" y="-556.1" font-family="Microsoft YaHei" font-size="12.00">前台用户端 Web</text>
<text text-anchor="start" x="105.5" y="-539.6" font-family="Microsoft YaHei" font-size="12.00">首页、课程、章节、作业、考试、论坛、问AI</text>
<polygon fill="#eef5ff" stroke="none" points="424,-527.5 424,-574.5 805,-574.5 805,-527.5 424,-527.5"/>
<polygon fill="none" stroke="#3b82f6" points="424,-527.5 424,-574.5 805,-574.5 805,-527.5 424,-527.5"/>
<text text-anchor="start" x="569.5" y="-556.1" font-family="Microsoft YaHei" font-size="12.00">后台管理端 Web</text>
<text text-anchor="start" x="500.5" y="-539.6" font-family="Microsoft YaHei" font-size="12.00">用户、课程、审核、公告、题库、系统配置</text>
<polygon fill="none" stroke="#a9b8c8" points="19,-511.5 19,-622.5 821,-622.5 821,-511.5 19,-511.5"/>
</g>
<!-- access&#45;&gt;ui -->
<g id="edge1" class="edge">
<title>access&#45;&gt;ui</title>
<path fill="none" stroke="#3f4d5f" stroke-width="1.15" d="M420,-645.72C420,-645.72 420,-631.57 420,-631.57"/>
<polygon fill="#3f4d5f" stroke="#3f4d5f" stroke-width="1.15" points="422.63,-631.57 420,-624.07 417.38,-631.57 422.63,-631.57"/>
</g>
<!-- api -->
<g id="node3" class="node">
<title>api</title>
<polygon fill="#f8fbff" stroke="none" points="19,-381.5 19,-488.5 821,-488.5 821,-381.5 19,-381.5"/>
<text text-anchor="start" x="27" y="-469.15" font-family="Microsoft YaHei" font-weight="bold" font-size="13.00">接口层：Spring Boot Controller</text>
<polygon fill="white" stroke="none" points="33,-395.5 33,-442.5 182,-442.5 182,-395.5 33,-395.5"/>
<polygon fill="none" stroke="#3b82f6" points="33,-395.5 33,-442.5 182,-442.5 182,-395.5 33,-395.5"/>
<text text-anchor="start" x="71.5" y="-424.1" font-family="Microsoft YaHei" font-size="12.00">认证授权接口</text>
<text text-anchor="start" x="42.62" y="-407.6" font-family="Microsoft YaHei" font-size="12.00">登录、Token、角色校验</text>
<polygon fill="white" stroke="none" points="188,-395.5 188,-442.5 339.25,-442.5 339.25,-395.5 188,-395.5"/>
<polygon fill="none" stroke="#3b82f6" points="188,-395.5 188,-442.5 339.25,-442.5 339.25,-395.5 188,-395.5"/>
<text text-anchor="start" x="227.62" y="-424.1" font-family="Microsoft YaHei" font-size="12.00">课程教学接口</text>
<text text-anchor="start" x="197.62" y="-407.6" font-family="Microsoft YaHei" font-size="12.00">课程、章节、资源、选课</text>
<polygon fill="white" stroke="none" points="345.25,-395.5 345.25,-442.5 496.5,-442.5 496.5,-395.5 345.25,-395.5"/>
<polygon fill="none" stroke="#3b82f6" points="345.25,-395.5 345.25,-442.5 496.5,-442.5 496.5,-395.5 345.25,-395.5"/>
<text text-anchor="start" x="384.88" y="-424.1" font-family="Microsoft YaHei" font-size="12.00">作业考试接口</text>
<text text-anchor="start" x="354.88" y="-407.6" font-family="Microsoft YaHei" font-size="12.00">作业、题库、考试、成绩</text>
<polygon fill="white" stroke="none" points="502.5,-395.5 502.5,-442.5 653.75,-442.5 653.75,-395.5 502.5,-395.5"/>
<polygon fill="none" stroke="#3b82f6" points="502.5,-395.5 502.5,-442.5 653.75,-442.5 653.75,-395.5 502.5,-395.5"/>
<text text-anchor="start" x="542.12" y="-424.1" font-family="Microsoft YaHei" font-size="12.00">内容互动接口</text>
<text text-anchor="start" x="512.12" y="-407.6" font-family="Microsoft YaHei" font-size="12.00">公告、论坛、会议、评论</text>
<polygon fill="white" stroke="none" points="659.75,-395.5 659.75,-442.5 807,-442.5 807,-395.5 659.75,-395.5"/>
<polygon fill="none" stroke="#3b82f6" points="659.75,-395.5 659.75,-442.5 807,-442.5 807,-395.5 659.75,-395.5"/>
<text text-anchor="start" x="697.38" y="-424.1" font-family="Microsoft YaHei" font-size="12.00">智能问答接口</text>
<text text-anchor="start" x="673.38" y="-407.6" font-family="Microsoft YaHei" font-size="12.00">会话、消息、推荐问题</text>
<polygon fill="none" stroke="#a9b8c8" points="19,-381.5 19,-488.5 821,-488.5 821,-381.5 19,-381.5"/>
</g>
<!-- ui&#45;&gt;api -->
<g id="edge2" class="edge">
<title>ui&#45;&gt;api</title>
<path fill="none" stroke="#3f4d5f" stroke-width="1.15" d="M420,-511.78C420,-511.78 420,-497.54 420,-497.54"/>
<polygon fill="#3f4d5f" stroke="#3f4d5f" stroke-width="1.15" points="422.63,-497.54 420,-490.04 417.38,-497.54 422.63,-497.54"/>
</g>
<!-- service -->
<g id="node4" class="node">
<title>service</title>
<polygon fill="#f8fbff" stroke="none" points="19,-247.5 19,-358.5 821,-358.5 821,-247.5 19,-247.5"/>
<text text-anchor="start" x="27" y="-339.15" font-family="Microsoft YaHei" font-weight="bold" font-size="13.00">业务层：Service</text>
<polygon fill="#effaf2" stroke="none" points="35,-263.5 35,-310.5 218.5,-310.5 218.5,-263.5 35,-263.5"/>
<polygon fill="none" stroke="#4f8f62" points="35,-263.5 35,-310.5 218.5,-310.5 218.5,-263.5 35,-263.5"/>
<text text-anchor="start" x="90.75" y="-292.1" font-family="Microsoft YaHei" font-size="12.00">课程资源管理</text>
<text text-anchor="start" x="42.75" y="-275.6" font-family="Microsoft YaHei" font-size="12.00">课程审核、章节编排、资源维护</text>
<polygon fill="#effaf2" stroke="none" points="226.5,-263.5 226.5,-310.5 410,-310.5 410,-263.5 226.5,-263.5"/>
<polygon fill="none" stroke="#4f8f62" points="226.5,-263.5 226.5,-310.5 410,-310.5 410,-263.5 226.5,-263.5"/>
<text text-anchor="start" x="282.25" y="-292.1" font-family="Microsoft YaHei" font-size="12.00">学习过程管理</text>
<text text-anchor="start" x="234.25" y="-275.6" font-family="Microsoft YaHei" font-size="12.00">选课学习、进度记录、结课学分</text>
<polygon fill="#effaf2" stroke="none" points="418,-263.5 418,-310.5 601.5,-310.5 601.5,-263.5 418,-263.5"/>
<polygon fill="none" stroke="#4f8f62" points="418,-263.5 418,-310.5 601.5,-310.5 601.5,-263.5 418,-263.5"/>
<text text-anchor="start" x="473.75" y="-292.1" font-family="Microsoft YaHei" font-size="12.00">作业考试服务</text>
<text text-anchor="start" x="425.75" y="-275.6" font-family="Microsoft YaHei" font-size="12.00">提交批阅、自动判分、成绩汇总</text>
<polygon fill="#effaf2" stroke="none" points="609.5,-263.5 609.5,-310.5 805,-310.5 805,-263.5 609.5,-263.5"/>
<polygon fill="none" stroke="#4f8f62" points="609.5,-263.5 609.5,-310.5 805,-310.5 805,-263.5 609.5,-263.5"/>
<text text-anchor="start" x="671.25" y="-292.1" font-family="Microsoft YaHei" font-size="12.00">智能问答编排</text>
<text text-anchor="start" x="617.25" y="-275.6" font-family="Microsoft YaHei" font-size="12.00">上下文整理、模型调用、问题推荐</text>
<polygon fill="none" stroke="#a9b8c8" points="19,-247.5 19,-358.5 821,-358.5 821,-247.5 19,-247.5"/>
</g>
<!-- api&#45;&gt;service -->
<g id="edge3" class="edge">
<title>api&#45;&gt;service</title>
<path fill="none" stroke="#3f4d5f" stroke-width="1.15" d="M420,-381.69C420,-381.69 420,-367.47 420,-367.47"/>
<polygon fill="#3f4d5f" stroke="#3f4d5f" stroke-width="1.15" points="422.63,-367.47 420,-359.97 417.38,-367.47 422.63,-367.47"/>
</g>
<!-- dao -->
<g id="node5" class="node">
<title>dao</title>
<polygon fill="#f8fbff" stroke="none" points="19,-134 19,-224.5 821,-224.5 821,-134 19,-134"/>
<text text-anchor="start" x="27" y="-205.15" font-family="Microsoft YaHei" font-weight="bold" font-size="13.00">数据访问层：MyBatis&#45;Plus Mapper / DAO</text>
<polygon fill="white" stroke="none" points="33,-148 33,-178.5 807,-178.5 807,-148 33,-148"/>
<polygon fill="none" stroke="#46617a" points="33,-148 33,-178.5 807,-178.5 807,-148 33,-148"/>
<text text-anchor="start" x="306" y="-160.1" font-family="Microsoft YaHei" font-size="12.00">实体映射、分页查询、条件筛选、增删改查</text>
<polygon fill="none" stroke="#a9b8c8" points="19,-134 19,-224.5 821,-224.5 821,-134 19,-134"/>
</g>
<!-- service&#45;&gt;dao -->
<g id="edge4" class="edge">
<title>service&#45;&gt;dao</title>
<path fill="none" stroke="#3f4d5f" stroke-width="1.15" d="M420,-247.64C420,-247.64 420,-233.42 420,-233.42"/>
<polygon fill="#3f4d5f" stroke="#3f4d5f" stroke-width="1.15" points="422.63,-233.42 420,-225.92 417.38,-233.42 422.63,-233.42"/>
</g>
<!-- data -->
<g id="node6" class="node">
<title>data</title>
<polygon fill="#f8fbff" stroke="none" points="0,0 0,-111 840,-111 840,0 0,0"/>
<text text-anchor="start" x="8" y="-91.65" font-family="Microsoft YaHei" font-weight="bold" font-size="13.00">数据与外部能力层</text>
<polygon fill="#fff7ea" stroke="none" points="16,-16 16,-63 318,-63 318,-16 16,-16"/>
<polygon fill="none" stroke="#e28a1f" points="16,-16 16,-63 318,-63 318,-16 16,-16"/>
<text text-anchor="start" x="126.88" y="-44.6" font-family="Microsoft YaHei" font-size="12.00">MySQL 数据库</text>
<text text-anchor="start" x="23" y="-28.1" font-family="Microsoft YaHei" font-size="12.00">用户、课程、章节、资源、作业、考试、公告、AI会话</text>
<polygon fill="#fff7ea" stroke="none" points="326,-16 326,-63 571,-63 571,-16 326,-16"/>
<polygon fill="none" stroke="#e28a1f" points="326,-16 326,-63 571,-63 571,-16 326,-16"/>
<text text-anchor="start" x="394.12" y="-44.6" font-family="Microsoft YaHei" font-size="12.00">静态资源 / 上传文件</text>
<text text-anchor="start" x="370.5" y="-28.1" font-family="Microsoft YaHei" font-size="12.00">视频、封面、附件、公告图片</text>
<polygon fill="#fff7ea" stroke="none" points="579,-16 579,-63 824,-63 824,-16 579,-16"/>
<polygon fill="none" stroke="#e28a1f" points="579,-16 579,-63 824,-63 824,-16 579,-16"/>
<text text-anchor="start" x="665.5" y="-44.6" font-family="Microsoft YaHei" font-size="12.00">外部智能能力</text>
<text text-anchor="start" x="633.62" y="-28.1" font-family="Microsoft YaHei" font-size="12.00">大模型问答、AI 题目生成</text>
<polygon fill="none" stroke="#a9b8c8" points="0,0 0,-111 840,-111 840,0 0,0"/>
</g>
<!-- dao&#45;&gt;data -->
<g id="edge5" class="edge">
<title>dao&#45;&gt;data</title>
<path fill="none" stroke="#3f4d5f" stroke-width="1.15" d="M420,-134.22C420,-134.22 420,-120.07 420,-120.07"/>
<polygon fill="#3f4d5f" stroke="#3f4d5f" stroke-width="1.15" points="422.63,-120.07 420,-112.57 417.38,-120.07 422.63,-120.07"/>
</g>
</g>
</svg>
