<?xml version="1.0" encoding="UTF-8" standalone="no"?>
<!DOCTYPE svg PUBLIC "-//W3C//DTD SVG 1.1//EN"
 "http://www.w3.org/Graphics/SVG/1.1/DTD/svg11.dtd">
<!-- Generated by graphviz version 12.2.0 (20241103.1931)
 -->
<!-- Title: G Pages: 1 -->
<svg width="917pt" height="535pt"
 viewBox="2.88 2.88 914.40 532.48" xmlns="http://www.w3.org/2000/svg" xmlns:xlink="http://www.w3.org/1999/xlink">
<g id="graph0" class="graph" transform="scale(1 1) rotate(0) translate(11.52 523.84)">
<title>G</title>
<polygon fill="white" stroke="none" points="-8.64,8.64 -8.64,-520.96 902.88,-520.96 902.88,8.64 -8.64,8.64"/>
<!-- root&#45;&gt;split -->
<g id="edge1" class="edge">
<title>root&#45;&gt;split</title>
<path fill="none" stroke="#26313a" stroke-width="1.5" d="M447.12,-474.57C447.12,-465.19 447.12,-455.29 447.12,-452.42"/>
</g>
<!-- split&#45;&gt;top_left -->
<g id="edge2" class="edge">
<title>split&#45;&gt;top_left</title>
<path fill="none" stroke="#26313a" stroke-width="1.5" d="M446.4,-451.6C432.2,-451.6 211.57,-451.6 197.79,-451.6"/>
</g>
<!-- split&#45;&gt;top_right -->
<g id="edge3" class="edge">
<title>split&#45;&gt;top_right</title>
<path fill="none" stroke="#26313a" stroke-width="1.5" d="M447.84,-451.6C462.04,-451.6 682.67,-451.6 696.45,-451.6"/>
</g>
<!-- split&#45;&gt;admin -->
<g id="edge6" class="edge">
<title>split&#45;&gt;admin</title>
<path fill="none" stroke="#26313a" stroke-width="1.5" d="M447.12,-450.75C447.12,-450.75 447.12,-180.93 447.12,-180.93"/>
<polygon fill="#26313a" stroke="#26313a" stroke-width="1.5" points="449.75,-180.93 447.12,-173.43 444.5,-180.93 449.75,-180.93"/>
</g>
<!-- top_left&#45;&gt;student -->
<g id="edge4" class="edge">
<title>top_left&#45;&gt;student</title>
<path fill="none" stroke="#26313a" stroke-width="1.5" d="M197.12,-450.77C197.12,-450.77 197.12,-431 197.12,-431"/>
<polygon fill="#26313a" stroke="#26313a" stroke-width="1.5" points="199.75,-431 197.12,-423.5 194.5,-431 199.75,-431"/>
</g>
<!-- top_right&#45;&gt;teacher -->
<g id="edge5" class="edge">
<title>top_right&#45;&gt;teacher</title>
<path fill="none" stroke="#26313a" stroke-width="1.5" d="M697.12,-450.77C697.12,-450.77 697.12,-431 697.12,-431"/>
<polygon fill="#26313a" stroke="#26313a" stroke-width="1.5" points="699.75,-431 697.12,-423.5 694.5,-431 699.75,-431"/>
</g>
<!-- sp1&#45;&gt;sp2 -->
<g id="edge8" class="edge">
<title>sp1&#45;&gt;sp2</title>
<path fill="none" stroke="#26313a" stroke-width="1.5" d="M15.7,-351.6C20.95,-351.6 60.08,-351.6 66.17,-351.6"/>
</g>
<!-- sp1&#45;&gt;s1 -->
<g id="edge16" class="edge">
<title>sp1&#45;&gt;s1</title>
<path fill="none" stroke="#26313a" stroke-width="1.5" d="M15.12,-350.95C15.12,-350.95 15.12,-350.09 15.12,-350.09"/>
<polygon fill="#26313a" stroke="#26313a" stroke-width="1.5" points="17.75,-352.12 15.12,-344.62 12.5,-352.12 17.75,-352.12"/>
</g>
<!-- sp2&#45;&gt;sp3 -->
<g id="edge9" class="edge">
<title>sp2&#45;&gt;sp3</title>
<path fill="none" stroke="#26313a" stroke-width="1.5" d="M67.54,-351.6C72.79,-351.6 111.92,-351.6 118.01,-351.6"/>
</g>
<!-- sp2&#45;&gt;s2 -->
<g id="edge17" class="edge">
<title>sp2&#45;&gt;s2</title>
<path fill="none" stroke="#26313a" stroke-width="1.5" d="M66.96,-350.95C66.96,-350.95 66.96,-350.09 66.96,-350.09"/>
<polygon fill="#26313a" stroke="#26313a" stroke-width="1.5" points="69.59,-352.12 66.96,-344.62 64.34,-352.12 69.59,-352.12"/>
</g>
<!-- sp3&#45;&gt;sp4 -->
<g id="edge10" class="edge">
<title>sp3&#45;&gt;sp4</title>
<path fill="none" stroke="#26313a" stroke-width="1.5" d="M119.38,-351.6C124.63,-351.6 163.76,-351.6 169.85,-351.6"/>
</g>
<!-- sp3&#45;&gt;s3 -->
<g id="edge18" class="edge">
<title>sp3&#45;&gt;s3</title>
<path fill="none" stroke="#26313a" stroke-width="1.5" d="M118.8,-350.95C118.8,-350.95 118.8,-350.09 118.8,-350.09"/>
<polygon fill="#26313a" stroke="#26313a" stroke-width="1.5" points="121.43,-352.12 118.8,-344.62 116.18,-352.12 121.43,-352.12"/>
</g>
<!-- sp4&#45;&gt;sdrop -->
<g id="edge11" class="edge">
<title>sp4&#45;&gt;sdrop</title>
<path fill="none" stroke="#26313a" stroke-width="1.5" d="M171.29,-351.6C174.99,-351.6 193.2,-351.6 196.58,-351.6"/>
</g>
<!-- sp4&#45;&gt;s4 -->
<g id="edge19" class="edge">
<title>sp4&#45;&gt;s4</title>
<path fill="none" stroke="#26313a" stroke-width="1.5" d="M170.64,-350.95C170.64,-350.95 170.64,-350.09 170.64,-350.09"/>
<polygon fill="#26313a" stroke="#26313a" stroke-width="1.5" points="173.27,-352.12 170.64,-344.62 168.02,-352.12 173.27,-352.12"/>
</g>
<!-- sdrop&#45;&gt;sp5 -->
<g id="edge12" class="edge">
<title>sdrop&#45;&gt;sp5</title>
<path fill="none" stroke="#26313a" stroke-width="1.5" d="M197.75,-351.6C201.29,-351.6 218.72,-351.6 221.96,-351.6"/>
</g>
<!-- sp5&#45;&gt;sp6 -->
<g id="edge13" class="edge">
<title>sp5&#45;&gt;sp6</title>
<path fill="none" stroke="#26313a" stroke-width="1.5" d="M223.06,-351.6C228.31,-351.6 267.44,-351.6 273.53,-351.6"/>
</g>
<!-- sp5&#45;&gt;s5 -->
<g id="edge20" class="edge">
<title>sp5&#45;&gt;s5</title>
<path fill="none" stroke="#26313a" stroke-width="1.5" d="M222.48,-350.95C222.48,-350.95 222.48,-350.09 222.48,-350.09"/>
<polygon fill="#26313a" stroke="#26313a" stroke-width="1.5" points="225.11,-352.12 222.48,-344.62 219.86,-352.12 225.11,-352.12"/>
</g>
<!-- sp6&#45;&gt;sp7 -->
<g id="edge14" class="edge">
<title>sp6&#45;&gt;sp7</title>
<path fill="none" stroke="#26313a" stroke-width="1.5" d="M274.9,-351.6C280.15,-351.6 319.28,-351.6 325.37,-351.6"/>
</g>
<!-- sp6&#45;&gt;s6 -->
<g id="edge21" class="edge">
<title>sp6&#45;&gt;s6</title>
<path fill="none" stroke="#26313a" stroke-width="1.5" d="M274.32,-350.95C274.32,-350.95 274.32,-350.09 274.32,-350.09"/>
<polygon fill="#26313a" stroke="#26313a" stroke-width="1.5" points="276.95,-352.12 274.32,-344.62 271.7,-352.12 276.95,-352.12"/>
</g>
<!-- sp7&#45;&gt;sp8 -->
<g id="edge15" class="edge">
<title>sp7&#45;&gt;sp8</title>
<path fill="none" stroke="#26313a" stroke-width="1.5" d="M326.74,-351.6C331.99,-351.6 371.12,-351.6 377.21,-351.6"/>
</g>
<!-- sp7&#45;&gt;s7 -->
<g id="edge22" class="edge">
<title>sp7&#45;&gt;s7</title>
<path fill="none" stroke="#26313a" stroke-width="1.5" d="M326.16,-350.95C326.16,-350.95 326.16,-350.09 326.16,-350.09"/>
<polygon fill="#26313a" stroke="#26313a" stroke-width="1.5" points="328.79,-352.12 326.16,-344.62 323.54,-352.12 328.79,-352.12"/>
</g>
<!-- sp8&#45;&gt;s8 -->
<g id="edge23" class="edge">
<title>sp8&#45;&gt;s8</title>
<path fill="none" stroke="#26313a" stroke-width="1.5" d="M378,-350.95C378,-350.95 378,-350.09 378,-350.09"/>
<polygon fill="#26313a" stroke="#26313a" stroke-width="1.5" points="380.63,-352.12 378,-344.62 375.38,-352.12 380.63,-352.12"/>
</g>
<!-- tp1&#45;&gt;tp2 -->
<g id="edge25" class="edge">
<title>tp1&#45;&gt;tp2</title>
<path fill="none" stroke="#26313a" stroke-width="1.5" d="M516.82,-351.6C522.07,-351.6 561.2,-351.6 567.29,-351.6"/>
</g>
<!-- tp1&#45;&gt;t1 -->
<g id="edge33" class="edge">
<title>tp1&#45;&gt;t1</title>
<path fill="none" stroke="#26313a" stroke-width="1.5" d="M516.24,-350.95C516.24,-350.95 516.24,-350.09 516.24,-350.09"/>
<polygon fill="#26313a" stroke="#26313a" stroke-width="1.5" points="518.87,-352.12 516.24,-344.62 513.62,-352.12 518.87,-352.12"/>
</g>
<!-- tp2&#45;&gt;tp3 -->
<g id="edge26" class="edge">
<title>tp2&#45;&gt;tp3</title>
<path fill="none" stroke="#26313a" stroke-width="1.5" d="M568.66,-351.6C573.91,-351.6 613.04,-351.6 619.13,-351.6"/>
</g>
<!-- tp2&#45;&gt;t2 -->
<g id="edge34" class="edge">
<title>tp2&#45;&gt;t2</title>
<path fill="none" stroke="#26313a" stroke-width="1.5" d="M568.08,-350.95C568.08,-350.95 568.08,-350.09 568.08,-350.09"/>
<polygon fill="#26313a" stroke="#26313a" stroke-width="1.5" points="570.71,-352.12 568.08,-344.62 565.46,-352.12 570.71,-352.12"/>
</g>
<!-- tp3&#45;&gt;tp4 -->
<g id="edge27" class="edge">
<title>tp3&#45;&gt;tp4</title>
<path fill="none" stroke="#26313a" stroke-width="1.5" d="M620.5,-351.6C625.75,-351.6 664.88,-351.6 670.97,-351.6"/>
</g>
<!-- tp3&#45;&gt;t3 -->
<g id="edge35" class="edge">
<title>tp3&#45;&gt;t3</title>
<path fill="none" stroke="#26313a" stroke-width="1.5" d="M619.92,-350.95C619.92,-350.95 619.92,-350.09 619.92,-350.09"/>
<polygon fill="#26313a" stroke="#26313a" stroke-width="1.5" points="622.55,-352.12 619.92,-344.62 617.3,-352.12 622.55,-352.12"/>
</g>
<!-- tp4&#45;&gt;tdrop -->
<g id="edge28" class="edge">
<title>tp4&#45;&gt;tdrop</title>
<path fill="none" stroke="#26313a" stroke-width="1.5" d="M672.39,-351.6C675.93,-351.6 693.36,-351.6 696.6,-351.6"/>
</g>
<!-- tp4&#45;&gt;t4 -->
<g id="edge36" class="edge">
<title>tp4&#45;&gt;t4</title>
<path fill="none" stroke="#26313a" stroke-width="1.5" d="M671.76,-350.95C671.76,-350.95 671.76,-350.09 671.76,-350.09"/>
<polygon fill="#26313a" stroke="#26313a" stroke-width="1.5" points="674.39,-352.12 671.76,-344.62 669.14,-352.12 674.39,-352.12"/>
</g>
<!-- tdrop&#45;&gt;tp5 -->
<g id="edge29" class="edge">
<title>tdrop&#45;&gt;tp5</title>
<path fill="none" stroke="#26313a" stroke-width="1.5" d="M697.77,-351.6C701.47,-351.6 719.68,-351.6 723.06,-351.6"/>
</g>
<!-- tp5&#45;&gt;tp6 -->
<g id="edge30" class="edge">
<title>tp5&#45;&gt;tp6</title>
<path fill="none" stroke="#26313a" stroke-width="1.5" d="M724.18,-351.6C729.43,-351.6 768.56,-351.6 774.65,-351.6"/>
</g>
<!-- tp5&#45;&gt;t5 -->
<g id="edge37" class="edge">
<title>tp5&#45;&gt;t5</title>
<path fill="none" stroke="#26313a" stroke-width="1.5" d="M723.6,-350.95C723.6,-350.95 723.6,-350.09 723.6,-350.09"/>
<polygon fill="#26313a" stroke="#26313a" stroke-width="1.5" points="726.23,-352.12 723.6,-344.62 720.98,-352.12 726.23,-352.12"/>
</g>
<!-- tp6&#45;&gt;tp7 -->
<g id="edge31" class="edge">
<title>tp6&#45;&gt;tp7</title>
<path fill="none" stroke="#26313a" stroke-width="1.5" d="M776.02,-351.6C781.27,-351.6 820.4,-351.6 826.49,-351.6"/>
</g>
<!-- tp6&#45;&gt;t6 -->
<g id="edge38" class="edge">
<title>tp6&#45;&gt;t6</title>
<path fill="none" stroke="#26313a" stroke-width="1.5" d="M775.44,-350.95C775.44,-350.95 775.44,-350.09 775.44,-350.09"/>
<polygon fill="#26313a" stroke="#26313a" stroke-width="1.5" points="778.07,-352.12 775.44,-344.62 772.82,-352.12 778.07,-352.12"/>
</g>
<!-- tp7&#45;&gt;tp8 -->
<g id="edge32" class="edge">
<title>tp7&#45;&gt;tp8</title>
<path fill="none" stroke="#26313a" stroke-width="1.5" d="M827.86,-351.6C833.11,-351.6 872.24,-351.6 878.33,-351.6"/>
</g>
<!-- tp7&#45;&gt;t7 -->
<g id="edge39" class="edge">
<title>tp7&#45;&gt;t7</title>
<path fill="none" stroke="#26313a" stroke-width="1.5" d="M827.28,-350.95C827.28,-350.95 827.28,-350.09 827.28,-350.09"/>
<polygon fill="#26313a" stroke="#26313a" stroke-width="1.5" points="829.91,-352.12 827.28,-344.62 824.66,-352.12 829.91,-352.12"/>
</g>
<!-- tp8&#45;&gt;t8 -->
<g id="edge40" class="edge">
<title>tp8&#45;&gt;t8</title>
<path fill="none" stroke="#26313a" stroke-width="1.5" d="M879.12,-350.95C879.12,-350.95 879.12,-350.09 879.12,-350.09"/>
<polygon fill="#26313a" stroke="#26313a" stroke-width="1.5" points="881.75,-352.12 879.12,-344.62 876.5,-352.12 881.75,-352.12"/>
</g>
<!-- ap1&#45;&gt;ap2 -->
<g id="edge42" class="edge">
<title>ap1&#45;&gt;ap2</title>
<path fill="none" stroke="#26313a" stroke-width="1.5" d="M292.18,-108.6C297.43,-108.6 336.56,-108.6 342.65,-108.6"/>
</g>
<!-- ap1&#45;&gt;a1 -->
<g id="edge48" class="edge">
<title>ap1&#45;&gt;a1</title>
<path fill="none" stroke="#26313a" stroke-width="1.5" d="M291.6,-107.93C291.6,-107.93 291.6,-106.88 291.6,-106.88"/>
<polygon fill="#26313a" stroke="#26313a" stroke-width="1.5" points="294.23,-107.26 291.6,-99.76 288.98,-107.26 294.23,-107.26"/>
</g>
<!-- ap2&#45;&gt;ap3 -->
<g id="edge43" class="edge">
<title>ap2&#45;&gt;ap3</title>
<path fill="none" stroke="#26313a" stroke-width="1.5" d="M344.02,-108.6C349.27,-108.6 388.4,-108.6 394.49,-108.6"/>
</g>
<!-- ap2&#45;&gt;a2 -->
<g id="edge49" class="edge">
<title>ap2&#45;&gt;a2</title>
<path fill="none" stroke="#26313a" stroke-width="1.5" d="M343.44,-107.93C343.44,-107.93 343.44,-106.88 343.44,-106.88"/>
<polygon fill="#26313a" stroke="#26313a" stroke-width="1.5" points="346.07,-107.26 343.44,-99.76 340.82,-107.26 346.07,-107.26"/>
</g>
<!-- ap3&#45;&gt;ap4 -->
<g id="edge44" class="edge">
<title>ap3&#45;&gt;ap4</title>
<path fill="none" stroke="#26313a" stroke-width="1.5" d="M395.86,-108.6C401.11,-108.6 440.24,-108.6 446.33,-108.6"/>
</g>
<!-- ap3&#45;&gt;a3 -->
<g id="edge50" class="edge">
<title>ap3&#45;&gt;a3</title>
<path fill="none" stroke="#26313a" stroke-width="1.5" d="M395.28,-107.93C395.28,-107.93 395.28,-106.88 395.28,-106.88"/>
<polygon fill="#26313a" stroke="#26313a" stroke-width="1.5" points="397.91,-107.26 395.28,-99.76 392.66,-107.26 397.91,-107.26"/>
</g>
<!-- ap4&#45;&gt;ap5 -->
<g id="edge45" class="edge">
<title>ap4&#45;&gt;ap5</title>
<path fill="none" stroke="#26313a" stroke-width="1.5" d="M447.7,-108.6C452.95,-108.6 492.08,-108.6 498.17,-108.6"/>
</g>
<!-- ap4&#45;&gt;a4 -->
<g id="edge51" class="edge">
<title>ap4&#45;&gt;a4</title>
<path fill="none" stroke="#26313a" stroke-width="1.5" d="M447.12,-107.93C447.12,-107.93 447.12,-106.88 447.12,-106.88"/>
<polygon fill="#26313a" stroke="#26313a" stroke-width="1.5" points="449.75,-107.26 447.12,-99.76 444.5,-107.26 449.75,-107.26"/>
</g>
<!-- ap5&#45;&gt;ap6 -->
<g id="edge46" class="edge">
<title>ap5&#45;&gt;ap6</title>
<path fill="none" stroke="#26313a" stroke-width="1.5" d="M499.54,-108.6C504.79,-108.6 543.92,-108.6 550.01,-108.6"/>
</g>
<!-- ap5&#45;&gt;a5 -->
<g id="edge52" class="edge">
<title>ap5&#45;&gt;a5</title>
<path fill="none" stroke="#26313a" stroke-width="1.5" d="M498.96,-107.93C498.96,-107.93 498.96,-106.88 498.96,-106.88"/>
<polygon fill="#26313a" stroke="#26313a" stroke-width="1.5" points="501.59,-107.26 498.96,-99.76 496.34,-107.26 501.59,-107.26"/>
</g>
<!-- ap6&#45;&gt;ap7 -->
<g id="edge47" class="edge">
<title>ap6&#45;&gt;ap7</title>
<path fill="none" stroke="#26313a" stroke-width="1.5" d="M551.38,-108.6C556.63,-108.6 595.76,-108.6 601.85,-108.6"/>
</g>
<!-- ap6&#45;&gt;a6 -->
<g id="edge53" class="edge">
<title>ap6&#45;&gt;a6</title>
<path fill="none" stroke="#26313a" stroke-width="1.5" d="M550.8,-107.93C550.8,-107.93 550.8,-106.88 550.8,-106.88"/>
<polygon fill="#26313a" stroke="#26313a" stroke-width="1.5" points="553.43,-107.26 550.8,-99.76 548.18,-107.26 553.43,-107.26"/>
</g>
<!-- ap7&#45;&gt;a7 -->
<g id="edge54" class="edge">
<title>ap7&#45;&gt;a7</title>
<path fill="none" stroke="#26313a" stroke-width="1.5" d="M602.64,-107.93C602.64,-107.93 602.64,-106.88 602.64,-106.88"/>
<polygon fill="#26313a" stroke="#26313a" stroke-width="1.5" points="605.27,-107.26 602.64,-99.76 600.02,-107.26 605.27,-107.26"/>
</g>
<!-- student&#45;&gt;sdrop -->
<g id="edge7" class="edge">
<title>student&#45;&gt;sdrop</title>
<path fill="none" stroke="#26313a" stroke-width="1.5" d="M197.12,-386C197.12,-372.8 197.12,-356.36 197.12,-352.46"/>
</g>
<!-- teacher&#45;&gt;tdrop -->
<g id="edge24" class="edge">
<title>teacher&#45;&gt;tdrop</title>
<path fill="none" stroke="#26313a" stroke-width="1.5" d="M697.12,-386C697.12,-372.8 697.12,-356.36 697.12,-352.46"/>
</g>
<!-- admin&#45;&gt;ap4 -->
<g id="edge41" class="edge">
<title>admin&#45;&gt;ap4</title>
<path fill="none" stroke="#26313a" stroke-width="1.5" d="M447.12,-136.07C447.12,-125.02 447.12,-112.28 447.12,-109.26"/>
</g>
<!-- root -->
<g id="node1" class="node">
<title>root</title>
<polygon fill="none" stroke="#26313a" stroke-width="1.7" points="555.12,-512.32 339.12,-512.32 339.12,-474.88 555.12,-474.88 555.12,-512.32"/>
<text text-anchor="middle" x="447.12" y="-488.88" font-family="Microsoft YaHei" font-size="18.00">线上教育培训管理系统</text>
</g>
<!-- split -->
<g id="node2" class="node">
<title>split</title>
<ellipse fill="#ffffff" stroke="#ffffff" stroke-width="1.7" cx="447.12" cy="-451.6" rx="0.36" ry="0.36"/>
</g>
<!-- top_left -->
<g id="node3" class="node">
<title>top_left</title>
<ellipse fill="#ffffff" stroke="#ffffff" stroke-width="1.7" cx="197.12" cy="-451.6" rx="0.36" ry="0.36"/>
</g>
<!-- top_right -->
<g id="node4" class="node">
<title>top_right</title>
<ellipse fill="#ffffff" stroke="#ffffff" stroke-width="1.7" cx="697.12" cy="-451.6" rx="0.36" ry="0.36"/>
</g>
<!-- sp1 -->
<g id="node5" class="node">
<title>sp1</title>
<ellipse fill="#ffffff" stroke="#ffffff" stroke-width="1.7" cx="15.12" cy="-351.6" rx="0.36" ry="0.36"/>
</g>
<!-- sp2 -->
<g id="node6" class="node">
<title>sp2</title>
<ellipse fill="#ffffff" stroke="#ffffff" stroke-width="1.7" cx="66.96" cy="-351.6" rx="0.36" ry="0.36"/>
</g>
<!-- sp3 -->
<g id="node7" class="node">
<title>sp3</title>
<ellipse fill="#ffffff" stroke="#ffffff" stroke-width="1.7" cx="118.8" cy="-351.6" rx="0.36" ry="0.36"/>
</g>
<!-- sp4 -->
<g id="node8" class="node">
<title>sp4</title>
<ellipse fill="#ffffff" stroke="#ffffff" stroke-width="1.7" cx="170.64" cy="-351.6" rx="0.36" ry="0.36"/>
</g>
<!-- sdrop -->
<g id="node9" class="node">
<title>sdrop</title>
<ellipse fill="#ffffff" stroke="#ffffff" stroke-width="1.7" cx="197.12" cy="-351.6" rx="0.36" ry="0.36"/>
</g>
<!-- sp5 -->
<g id="node10" class="node">
<title>sp5</title>
<ellipse fill="#ffffff" stroke="#ffffff" stroke-width="1.7" cx="222.48" cy="-351.6" rx="0.36" ry="0.36"/>
</g>
<!-- sp6 -->
<g id="node11" class="node">
<title>sp6</title>
<ellipse fill="#ffffff" stroke="#ffffff" stroke-width="1.7" cx="274.32" cy="-351.6" rx="0.36" ry="0.36"/>
</g>
<!-- sp7 -->
<g id="node12" class="node">
<title>sp7</title>
<ellipse fill="#ffffff" stroke="#ffffff" stroke-width="1.7" cx="326.16" cy="-351.6" rx="0.36" ry="0.36"/>
</g>
<!-- sp8 -->
<g id="node13" class="node">
<title>sp8</title>
<ellipse fill="#ffffff" stroke="#ffffff" stroke-width="1.7" cx="378" cy="-351.6" rx="0.36" ry="0.36"/>
</g>
<!-- tp1 -->
<g id="node14" class="node">
<title>tp1</title>
<ellipse fill="#ffffff" stroke="#ffffff" stroke-width="1.7" cx="516.24" cy="-351.6" rx="0.36" ry="0.36"/>
</g>
<!-- tp2 -->
<g id="node15" class="node">
<title>tp2</title>
<ellipse fill="#ffffff" stroke="#ffffff" stroke-width="1.7" cx="568.08" cy="-351.6" rx="0.36" ry="0.36"/>
</g>
<!-- tp3 -->
<g id="node16" class="node">
<title>tp3</title>
<ellipse fill="#ffffff" stroke="#ffffff" stroke-width="1.7" cx="619.92" cy="-351.6" rx="0.36" ry="0.36"/>
</g>
<!-- tp4 -->
<g id="node17" class="node">
<title>tp4</title>
<ellipse fill="#ffffff" stroke="#ffffff" stroke-width="1.7" cx="671.76" cy="-351.6" rx="0.36" ry="0.36"/>
</g>
<!-- tdrop -->
<g id="node18" class="node">
<title>tdrop</title>
<ellipse fill="#ffffff" stroke="#ffffff" stroke-width="1.7" cx="697.12" cy="-351.6" rx="0.36" ry="0.36"/>
</g>
<!-- tp5 -->
<g id="node19" class="node">
<title>tp5</title>
<ellipse fill="#ffffff" stroke="#ffffff" stroke-width="1.7" cx="723.6" cy="-351.6" rx="0.36" ry="0.36"/>
</g>
<!-- tp6 -->
<g id="node20" class="node">
<title>tp6</title>
<ellipse fill="#ffffff" stroke="#ffffff" stroke-width="1.7" cx="775.44" cy="-351.6" rx="0.36" ry="0.36"/>
</g>
<!-- tp7 -->
<g id="node21" class="node">
<title>tp7</title>
<ellipse fill="#ffffff" stroke="#ffffff" stroke-width="1.7" cx="827.28" cy="-351.6" rx="0.36" ry="0.36"/>
</g>
<!-- tp8 -->
<g id="node22" class="node">
<title>tp8</title>
<ellipse fill="#ffffff" stroke="#ffffff" stroke-width="1.7" cx="879.12" cy="-351.6" rx="0.36" ry="0.36"/>
</g>
<!-- ap1 -->
<g id="node23" class="node">
<title>ap1</title>
<ellipse fill="#ffffff" stroke="#ffffff" stroke-width="1.7" cx="291.6" cy="-108.6" rx="0.36" ry="0.36"/>
</g>
<!-- ap2 -->
<g id="node24" class="node">
<title>ap2</title>
<ellipse fill="#ffffff" stroke="#ffffff" stroke-width="1.7" cx="343.44" cy="-108.6" rx="0.36" ry="0.36"/>
</g>
<!-- ap3 -->
<g id="node25" class="node">
<title>ap3</title>
<ellipse fill="#ffffff" stroke="#ffffff" stroke-width="1.7" cx="395.28" cy="-108.6" rx="0.36" ry="0.36"/>
</g>
<!-- ap4 -->
<g id="node26" class="node">
<title>ap4</title>
<ellipse fill="#ffffff" stroke="#ffffff" stroke-width="1.7" cx="447.12" cy="-108.6" rx="0.36" ry="0.36"/>
</g>
<!-- ap5 -->
<g id="node27" class="node">
<title>ap5</title>
<ellipse fill="#ffffff" stroke="#ffffff" stroke-width="1.7" cx="498.96" cy="-108.6" rx="0.36" ry="0.36"/>
</g>
<!-- ap6 -->
<g id="node28" class="node">
<title>ap6</title>
<ellipse fill="#ffffff" stroke="#ffffff" stroke-width="1.7" cx="550.8" cy="-108.6" rx="0.36" ry="0.36"/>
</g>
<!-- ap7 -->
<g id="node29" class="node">
<title>ap7</title>
<ellipse fill="#ffffff" stroke="#ffffff" stroke-width="1.7" cx="602.64" cy="-108.6" rx="0.36" ry="0.36"/>
</g>
<!-- student -->
<g id="node30" class="node">
<title>student</title>
<polygon fill="none" stroke="#26313a" stroke-width="1.7" points="233.12,-420.88 161.12,-420.88 161.12,-386.32 233.12,-386.32 233.12,-420.88"/>
<text text-anchor="middle" x="197.12" y="-399.28" font-family="Microsoft YaHei" font-size="16.00">学生</text>
</g>
<!-- teacher -->
<g id="node31" class="node">
<title>teacher</title>
<polygon fill="none" stroke="#26313a" stroke-width="1.7" points="733.12,-420.88 661.12,-420.88 661.12,-386.32 733.12,-386.32 733.12,-420.88"/>
<text text-anchor="middle" x="697.12" y="-399.28" font-family="Microsoft YaHei" font-size="16.00">教师</text>
</g>
<!-- admin -->
<g id="node32" class="node">
<title>admin</title>
<polygon fill="none" stroke="#26313a" stroke-width="1.7" points="493.2,-170.88 401.04,-170.88 401.04,-136.32 493.2,-136.32 493.2,-170.88"/>
<text text-anchor="middle" x="447.12" y="-149.28" font-family="Microsoft YaHei" font-size="16.00">管理员</text>
</g>
<!-- s1 -->
<g id="node33" class="node">
<title>s1</title>
<polygon fill="none" stroke="#26313a" stroke-width="1.7" points="30.24,-342.2 0,-342.2 0,-245 30.24,-245 30.24,-342.2"/>
<text text-anchor="middle" x="15.12" y="-321.35" font-family="Microsoft YaHei" font-size="15.00">注</text>
<text text-anchor="middle" x="15.12" y="-300.35" font-family="Microsoft YaHei" font-size="15.00">册</text>
<text text-anchor="middle" x="15.12" y="-279.35" font-family="Microsoft YaHei" font-size="15.00">登</text>
<text text-anchor="middle" x="15.12" y="-258.35" font-family="Microsoft YaHei" font-size="15.00">录</text>
</g>
<!-- s2 -->
<g id="node34" class="node">
<title>s2</title>
<polygon fill="none" stroke="#26313a" stroke-width="1.7" points="82.08,-342.2 51.84,-342.2 51.84,-245 82.08,-245 82.08,-342.2"/>
<text text-anchor="middle" x="66.96" y="-321.35" font-family="Microsoft YaHei" font-size="15.00">课</text>
<text text-anchor="middle" x="66.96" y="-300.35" font-family="Microsoft YaHei" font-size="15.00">程</text>
<text text-anchor="middle" x="66.96" y="-279.35" font-family="Microsoft YaHei" font-size="15.00">浏</text>
<text text-anchor="middle" x="66.96" y="-258.35" font-family="Microsoft YaHei" font-size="15.00">览</text>
</g>
<!-- s3 -->
<g id="node35" class="node">
<title>s3</title>
<polygon fill="none" stroke="#26313a" stroke-width="1.7" points="133.92,-342.2 103.68,-342.2 103.68,-245 133.92,-245 133.92,-342.2"/>
<text text-anchor="middle" x="118.8" y="-321.35" font-family="Microsoft YaHei" font-size="15.00">章</text>
<text text-anchor="middle" x="118.8" y="-300.35" font-family="Microsoft YaHei" font-size="15.00">节</text>
<text text-anchor="middle" x="118.8" y="-279.35" font-family="Microsoft YaHei" font-size="15.00">学</text>
<text text-anchor="middle" x="118.8" y="-258.35" font-family="Microsoft YaHei" font-size="15.00">习</text>
</g>
<!-- s4 -->
<g id="node36" class="node">
<title>s4</title>
<polygon fill="none" stroke="#26313a" stroke-width="1.7" points="185.76,-342.2 155.52,-342.2 155.52,-245 185.76,-245 185.76,-342.2"/>
<text text-anchor="middle" x="170.64" y="-321.35" font-family="Microsoft YaHei" font-size="15.00">作</text>
<text text-anchor="middle" x="170.64" y="-300.35" font-family="Microsoft YaHei" font-size="15.00">业</text>
<text text-anchor="middle" x="170.64" y="-279.35" font-family="Microsoft YaHei" font-size="15.00">提</text>
<text text-anchor="middle" x="170.64" y="-258.35" font-family="Microsoft YaHei" font-size="15.00">交</text>
</g>
<!-- s5 -->
<g id="node37" class="node">
<title>s5</title>
<polygon fill="none" stroke="#26313a" stroke-width="1.7" points="237.6,-342.2 207.36,-342.2 207.36,-245 237.6,-245 237.6,-342.2"/>
<text text-anchor="middle" x="222.48" y="-321.35" font-family="Microsoft YaHei" font-size="15.00">在</text>
<text text-anchor="middle" x="222.48" y="-300.35" font-family="Microsoft YaHei" font-size="15.00">线</text>
<text text-anchor="middle" x="222.48" y="-279.35" font-family="Microsoft YaHei" font-size="15.00">考</text>
<text text-anchor="middle" x="222.48" y="-258.35" font-family="Microsoft YaHei" font-size="15.00">试</text>
</g>
<!-- s6 -->
<g id="node38" class="node">
<title>s6</title>
<polygon fill="none" stroke="#26313a" stroke-width="1.7" points="289.44,-342.2 259.2,-342.2 259.2,-245 289.44,-245 289.44,-342.2"/>
<text text-anchor="middle" x="274.32" y="-321.35" font-family="Microsoft YaHei" font-size="15.00">论</text>
<text text-anchor="middle" x="274.32" y="-300.35" font-family="Microsoft YaHei" font-size="15.00">坛</text>
<text text-anchor="middle" x="274.32" y="-279.35" font-family="Microsoft YaHei" font-size="15.00">交</text>
<text text-anchor="middle" x="274.32" y="-258.35" font-family="Microsoft YaHei" font-size="15.00">流</text>
</g>
<!-- s7 -->
<g id="node39" class="node">
<title>s7</title>
<polygon fill="none" stroke="#26313a" stroke-width="1.7" points="341.28,-342.2 311.04,-342.2 311.04,-245 341.28,-245 341.28,-342.2"/>
<text text-anchor="middle" x="326.16" y="-321.35" font-family="Microsoft YaHei" font-size="15.00">智</text>
<text text-anchor="middle" x="326.16" y="-300.35" font-family="Microsoft YaHei" font-size="15.00">能</text>
<text text-anchor="middle" x="326.16" y="-279.35" font-family="Microsoft YaHei" font-size="15.00">问</text>
<text text-anchor="middle" x="326.16" y="-258.35" font-family="Microsoft YaHei" font-size="15.00">答</text>
</g>
<!-- s8 -->
<g id="node40" class="node">
<title>s8</title>
<polygon fill="none" stroke="#26313a" stroke-width="1.7" points="393.12,-342.2 362.88,-342.2 362.88,-245 393.12,-245 393.12,-342.2"/>
<text text-anchor="middle" x="378" y="-321.35" font-family="Microsoft YaHei" font-size="15.00">个</text>
<text text-anchor="middle" x="378" y="-300.35" font-family="Microsoft YaHei" font-size="15.00">人</text>
<text text-anchor="middle" x="378" y="-279.35" font-family="Microsoft YaHei" font-size="15.00">中</text>
<text text-anchor="middle" x="378" y="-258.35" font-family="Microsoft YaHei" font-size="15.00">心</text>
</g>
<!-- t1 -->
<g id="node41" class="node">
<title>t1</title>
<polygon fill="none" stroke="#26313a" stroke-width="1.7" points="531.36,-342.2 501.12,-342.2 501.12,-245 531.36,-245 531.36,-342.2"/>
<text text-anchor="middle" x="516.24" y="-321.35" font-family="Microsoft YaHei" font-size="15.00">注</text>
<text text-anchor="middle" x="516.24" y="-300.35" font-family="Microsoft YaHei" font-size="15.00">册</text>
<text text-anchor="middle" x="516.24" y="-279.35" font-family="Microsoft YaHei" font-size="15.00">登</text>
<text text-anchor="middle" x="516.24" y="-258.35" font-family="Microsoft YaHei" font-size="15.00">录</text>
</g>
<!-- t2 -->
<g id="node42" class="node">
<title>t2</title>
<polygon fill="none" stroke="#26313a" stroke-width="1.7" points="583.2,-342.2 552.96,-342.2 552.96,-245 583.2,-245 583.2,-342.2"/>
<text text-anchor="middle" x="568.08" y="-321.35" font-family="Microsoft YaHei" font-size="15.00">课</text>
<text text-anchor="middle" x="568.08" y="-300.35" font-family="Microsoft YaHei" font-size="15.00">程</text>
<text text-anchor="middle" x="568.08" y="-279.35" font-family="Microsoft YaHei" font-size="15.00">管</text>
<text text-anchor="middle" x="568.08" y="-258.35" font-family="Microsoft YaHei" font-size="15.00">理</text>
</g>
<!-- t3 -->
<g id="node43" class="node">
<title>t3</title>
<polygon fill="none" stroke="#26313a" stroke-width="1.7" points="635.04,-342.2 604.8,-342.2 604.8,-245 635.04,-245 635.04,-342.2"/>
<text text-anchor="middle" x="619.92" y="-321.35" font-family="Microsoft YaHei" font-size="15.00">章</text>
<text text-anchor="middle" x="619.92" y="-300.35" font-family="Microsoft YaHei" font-size="15.00">节</text>
<text text-anchor="middle" x="619.92" y="-279.35" font-family="Microsoft YaHei" font-size="15.00">管</text>
<text text-anchor="middle" x="619.92" y="-258.35" font-family="Microsoft YaHei" font-size="15.00">理</text>
</g>
<!-- t4 -->
<g id="node44" class="node">
<title>t4</title>
<polygon fill="none" stroke="#26313a" stroke-width="1.7" points="686.88,-342.2 656.64,-342.2 656.64,-245 686.88,-245 686.88,-342.2"/>
<text text-anchor="middle" x="671.76" y="-321.35" font-family="Microsoft YaHei" font-size="15.00">资</text>
<text text-anchor="middle" x="671.76" y="-300.35" font-family="Microsoft YaHei" font-size="15.00">源</text>
<text text-anchor="middle" x="671.76" y="-279.35" font-family="Microsoft YaHei" font-size="15.00">管</text>
<text text-anchor="middle" x="671.76" y="-258.35" font-family="Microsoft YaHei" font-size="15.00">理</text>
</g>
<!-- t5 -->
<g id="node45" class="node">
<title>t5</title>
<polygon fill="none" stroke="#26313a" stroke-width="1.7" points="738.72,-342.2 708.48,-342.2 708.48,-245 738.72,-245 738.72,-342.2"/>
<text text-anchor="middle" x="723.6" y="-321.35" font-family="Microsoft YaHei" font-size="15.00">作</text>
<text text-anchor="middle" x="723.6" y="-300.35" font-family="Microsoft YaHei" font-size="15.00">业</text>
<text text-anchor="middle" x="723.6" y="-279.35" font-family="Microsoft YaHei" font-size="15.00">管</text>
<text text-anchor="middle" x="723.6" y="-258.35" font-family="Microsoft YaHei" font-size="15.00">理</text>
</g>
<!-- t6 -->
<g id="node46" class="node">
<title>t6</title>
<polygon fill="none" stroke="#26313a" stroke-width="1.7" points="790.56,-342.2 760.32,-342.2 760.32,-245 790.56,-245 790.56,-342.2"/>
<text text-anchor="middle" x="775.44" y="-321.35" font-family="Microsoft YaHei" font-size="15.00">题</text>
<text text-anchor="middle" x="775.44" y="-300.35" font-family="Microsoft YaHei" font-size="15.00">库</text>
<text text-anchor="middle" x="775.44" y="-279.35" font-family="Microsoft YaHei" font-size="15.00">管</text>
<text text-anchor="middle" x="775.44" y="-258.35" font-family="Microsoft YaHei" font-size="15.00">理</text>
</g>
<!-- t7 -->
<g id="node47" class="node">
<title>t7</title>
<polygon fill="none" stroke="#26313a" stroke-width="1.7" points="842.4,-342.2 812.16,-342.2 812.16,-245 842.4,-245 842.4,-342.2"/>
<text text-anchor="middle" x="827.28" y="-321.35" font-family="Microsoft YaHei" font-size="15.00">考</text>
<text text-anchor="middle" x="827.28" y="-300.35" font-family="Microsoft YaHei" font-size="15.00">试</text>
<text text-anchor="middle" x="827.28" y="-279.35" font-family="Microsoft YaHei" font-size="15.00">管</text>
<text text-anchor="middle" x="827.28" y="-258.35" font-family="Microsoft YaHei" font-size="15.00">理</text>
</g>
<!-- t8 -->
<g id="node48" class="node">
<title>t8</title>
<polygon fill="none" stroke="#26313a" stroke-width="1.7" points="894.24,-342.2 864,-342.2 864,-245 894.24,-245 894.24,-342.2"/>
<text text-anchor="middle" x="879.12" y="-321.35" font-family="Microsoft YaHei" font-size="15.00">成</text>
<text text-anchor="middle" x="879.12" y="-300.35" font-family="Microsoft YaHei" font-size="15.00">绩</text>
<text text-anchor="middle" x="879.12" y="-279.35" font-family="Microsoft YaHei" font-size="15.00">统</text>
<text text-anchor="middle" x="879.12" y="-258.35" font-family="Microsoft YaHei" font-size="15.00">计</text>
</g>
<!-- a1 -->
<g id="node49" class="node">
<title>a1</title>
<polygon fill="none" stroke="#26313a" stroke-width="1.7" points="306.72,-97.2 276.48,-97.2 276.48,0 306.72,0 306.72,-97.2"/>
<text text-anchor="middle" x="291.6" y="-76.35" font-family="Microsoft YaHei" font-size="15.00">用</text>
<text text-anchor="middle" x="291.6" y="-55.35" font-family="Microsoft YaHei" font-size="15.00">户</text>
<text text-anchor="middle" x="291.6" y="-34.35" font-family="Microsoft YaHei" font-size="15.00">管</text>
<text text-anchor="middle" x="291.6" y="-13.35" font-family="Microsoft YaHei" font-size="15.00">理</text>
</g>
<!-- a2 -->
<g id="node50" class="node">
<title>a2</title>
<polygon fill="none" stroke="#26313a" stroke-width="1.7" points="358.56,-97.2 328.32,-97.2 328.32,0 358.56,0 358.56,-97.2"/>
<text text-anchor="middle" x="343.44" y="-76.35" font-family="Microsoft YaHei" font-size="15.00">课</text>
<text text-anchor="middle" x="343.44" y="-55.35" font-family="Microsoft YaHei" font-size="15.00">程</text>
<text text-anchor="middle" x="343.44" y="-34.35" font-family="Microsoft YaHei" font-size="15.00">审</text>
<text text-anchor="middle" x="343.44" y="-13.35" font-family="Microsoft YaHei" font-size="15.00">核</text>
</g>
<!-- a3 -->
<g id="node51" class="node">
<title>a3</title>
<polygon fill="none" stroke="#26313a" stroke-width="1.7" points="410.4,-97.2 380.16,-97.2 380.16,0 410.4,0 410.4,-97.2"/>
<text text-anchor="middle" x="395.28" y="-76.35" font-family="Microsoft YaHei" font-size="15.00">资</text>
<text text-anchor="middle" x="395.28" y="-55.35" font-family="Microsoft YaHei" font-size="15.00">源</text>
<text text-anchor="middle" x="395.28" y="-34.35" font-family="Microsoft YaHei" font-size="15.00">审</text>
<text text-anchor="middle" x="395.28" y="-13.35" font-family="Microsoft YaHei" font-size="15.00">核</text>
</g>
<!-- a4 -->
<g id="node52" class="node">
<title>a4</title>
<polygon fill="none" stroke="#26313a" stroke-width="1.7" points="462.24,-97.2 432,-97.2 432,0 462.24,0 462.24,-97.2"/>
<text text-anchor="middle" x="447.12" y="-76.35" font-family="Microsoft YaHei" font-size="15.00">公</text>
<text text-anchor="middle" x="447.12" y="-55.35" font-family="Microsoft YaHei" font-size="15.00">告</text>
<text text-anchor="middle" x="447.12" y="-34.35" font-family="Microsoft YaHei" font-size="15.00">管</text>
<text text-anchor="middle" x="447.12" y="-13.35" font-family="Microsoft YaHei" font-size="15.00">理</text>
</g>
<!-- a5 -->
<g id="node53" class="node">
<title>a5</title>
<polygon fill="none" stroke="#26313a" stroke-width="1.7" points="514.08,-97.2 483.84,-97.2 483.84,0 514.08,0 514.08,-97.2"/>
<text text-anchor="middle" x="498.96" y="-76.35" font-family="Microsoft YaHei" font-size="15.00">论</text>
<text text-anchor="middle" x="498.96" y="-55.35" font-family="Microsoft YaHei" font-size="15.00">坛</text>
<text text-anchor="middle" x="498.96" y="-34.35" font-family="Microsoft YaHei" font-size="15.00">管</text>
<text text-anchor="middle" x="498.96" y="-13.35" font-family="Microsoft YaHei" font-size="15.00">理</text>
</g>
<!-- a6 -->
<g id="node54" class="node">
<title>a6</title>
<polygon fill="none" stroke="#26313a" stroke-width="1.7" points="565.92,-97.2 535.68,-97.2 535.68,0 565.92,0 565.92,-97.2"/>
<text text-anchor="middle" x="550.8" y="-76.35" font-family="Microsoft YaHei" font-size="15.00">数</text>
<text text-anchor="middle" x="550.8" y="-55.35" font-family="Microsoft YaHei" font-size="15.00">据</text>
<text text-anchor="middle" x="550.8" y="-34.35" font-family="Microsoft YaHei" font-size="15.00">字</text>
<text text-anchor="middle" x="550.8" y="-13.35" font-family="Microsoft YaHei" font-size="15.00">典</text>
</g>
<!-- a7 -->
<g id="node55" class="node">
<title>a7</title>
<polygon fill="none" stroke="#26313a" stroke-width="1.7" points="617.76,-97.2 587.52,-97.2 587.52,0 617.76,0 617.76,-97.2"/>
<text text-anchor="middle" x="602.64" y="-76.35" font-family="Microsoft YaHei" font-size="15.00">系</text>
<text text-anchor="middle" x="602.64" y="-55.35" font-family="Microsoft YaHei" font-size="15.00">统</text>
<text text-anchor="middle" x="602.64" y="-34.35" font-family="Microsoft YaHei" font-size="15.00">配</text>
<text text-anchor="middle" x="602.64" y="-13.35" font-family="Microsoft YaHei" font-size="15.00">置</text>
</g>
</g>
</svg>
