<?xml version="1.0" encoding="UTF-8" standalone="no"?>
<!DOCTYPE svg PUBLIC "-//W3C//DTD SVG 1.1//EN"
 "http://www.w3.org/Graphics/SVG/1.1/DTD/svg11.dtd">
<!-- Generated by graphviz version 2.42.4 (0)
 -->
<!-- Title: G Pages: 1 -->
<svg width="345pt" height="562pt"
 viewBox="0.00 0.00 344.77 562.00" xmlns="http://www.w3.org/2000/svg" xmlns:xlink="http://www.w3.org/1999/xlink">
<g id="graph0" class="graph" transform="scale(1 1) rotate(0) translate(4 558)">
<title>G</title>
<polygon fill="white" stroke="transparent" points="-4,4 -4,-558 340.77,-558 340.77,4 -4,4"/>
<!-- start -->
<g id="node1" class="node">
<title>start</title>
<ellipse fill="#ddeedc" stroke="#6b9b6b" cx="192.27" cy="-536" rx="27" ry="18"/>
<text text-anchor="middle" x="192.27" y="-532.9" font-family="Microsoft YaHei" font-size="12.00">开始</text>
</g>
<!-- login -->
<g id="node2" class="node">
<title>login</title>
<path fill="#eef7f0" stroke="#6b9b6b" d="M230.77,-491C230.77,-491 153.77,-491 153.77,-491 147.77,-491 141.77,-485 141.77,-479 141.77,-479 141.77,-467 141.77,-467 141.77,-461 147.77,-455 153.77,-455 153.77,-455 230.77,-455 230.77,-455 236.77,-455 242.77,-461 242.77,-467 242.77,-467 242.77,-479 242.77,-479 242.77,-485 236.77,-491 230.77,-491"/>
<text text-anchor="middle" x="192.27" y="-469.9" font-family="Microsoft YaHei" font-size="12.00">管理员登录系统</text>
</g>
<!-- start&#45;&gt;login -->
<g id="edge1" class="edge">
<title>start&#45;&gt;login</title>
<path fill="none" stroke="#6f8b72" d="M192.27,-517.78C192.27,-517.78 192.27,-498.9 192.27,-498.9"/>
<polygon fill="#6f8b72" stroke="#6f8b72" points="194.89,-498.9 192.27,-491.4 189.64,-498.9 194.89,-498.9"/>
</g>
<!-- courseReview -->
<g id="node3" class="node">
<title>courseReview</title>
<path fill="#eef7f0" stroke="#6b9b6b" d="M242.77,-428C242.77,-428 141.77,-428 141.77,-428 135.77,-428 129.77,-422 129.77,-416 129.77,-416 129.77,-404 129.77,-404 129.77,-398 135.77,-392 141.77,-392 141.77,-392 242.77,-392 242.77,-392 248.77,-392 254.77,-398 254.77,-404 254.77,-404 254.77,-416 254.77,-416 254.77,-422 248.77,-428 242.77,-428"/>
<text text-anchor="middle" x="192.27" y="-406.9" font-family="Microsoft YaHei" font-size="12.00">审核教师提交的课程</text>
</g>
<!-- login&#45;&gt;courseReview -->
<g id="edge2" class="edge">
<title>login&#45;&gt;courseReview</title>
<path fill="none" stroke="#6f8b72" d="M192.27,-454.78C192.27,-454.78 192.27,-435.9 192.27,-435.9"/>
<polygon fill="#6f8b72" stroke="#6f8b72" points="194.89,-435.9 192.27,-428.4 189.64,-435.9 194.89,-435.9"/>
</g>
<!-- resourceReview -->
<g id="node4" class="node">
<title>resourceReview</title>
<path fill="#eef7f0" stroke="#6b9b6b" d="M254.77,-365C254.77,-365 129.77,-365 129.77,-365 123.77,-365 117.77,-359 117.77,-353 117.77,-353 117.77,-341 117.77,-341 117.77,-335 123.77,-329 129.77,-329 129.77,-329 254.77,-329 254.77,-329 260.77,-329 266.77,-335 266.77,-341 266.77,-341 266.77,-353 266.77,-353 266.77,-359 260.77,-365 254.77,-365"/>
<text text-anchor="middle" x="192.27" y="-343.9" font-family="Microsoft YaHei" font-size="12.00">审核章节资源与发布内容</text>
</g>
<!-- courseReview&#45;&gt;resourceReview -->
<g id="edge3" class="edge">
<title>courseReview&#45;&gt;resourceReview</title>
<path fill="none" stroke="#6f8b72" d="M192.27,-391.78C192.27,-391.78 192.27,-372.9 192.27,-372.9"/>
<polygon fill="#6f8b72" stroke="#6f8b72" points="194.89,-372.9 192.27,-365.4 189.64,-372.9 194.89,-372.9"/>
</g>
<!-- userManage -->
<g id="node5" class="node">
<title>userManage</title>
<path fill="#eef7f0" stroke="#6b9b6b" d="M260.77,-302C260.77,-302 123.77,-302 123.77,-302 117.77,-302 111.77,-296 111.77,-290 111.77,-290 111.77,-278 111.77,-278 111.77,-272 117.77,-266 123.77,-266 123.77,-266 260.77,-266 260.77,-266 266.77,-266 272.77,-272 272.77,-278 272.77,-278 272.77,-290 272.77,-290 272.77,-296 266.77,-302 260.77,-302"/>
<text text-anchor="middle" x="192.27" y="-280.9" font-family="Microsoft YaHei" font-size="12.00">维护教师、学生与基础数据</text>
</g>
<!-- resourceReview&#45;&gt;userManage -->
<g id="edge4" class="edge">
<title>resourceReview&#45;&gt;userManage</title>
<path fill="none" stroke="#6f8b72" d="M192.27,-328.78C192.27,-328.78 192.27,-309.9 192.27,-309.9"/>
<polygon fill="#6f8b72" stroke="#6f8b72" points="194.89,-309.9 192.27,-302.4 189.64,-309.9 194.89,-309.9"/>
</g>
<!-- noticeManage -->
<g id="node6" class="node">
<title>noticeManage</title>
<path fill="#eef7f0" stroke="#6b9b6b" d="M260.77,-239C260.77,-239 123.77,-239 123.77,-239 117.77,-239 111.77,-233 111.77,-227 111.77,-227 111.77,-215 111.77,-215 111.77,-209 117.77,-203 123.77,-203 123.77,-203 260.77,-203 260.77,-203 266.77,-203 272.77,-209 272.77,-215 272.77,-215 272.77,-227 272.77,-227 272.77,-233 266.77,-239 260.77,-239"/>
<text text-anchor="middle" x="192.27" y="-217.9" font-family="Microsoft YaHei" font-size="12.00">维护公告、会议和论坛内容</text>
</g>
<!-- userManage&#45;&gt;noticeManage -->
<g id="edge5" class="edge">
<title>userManage&#45;&gt;noticeManage</title>
<path fill="none" stroke="#6f8b72" d="M192.27,-265.78C192.27,-265.78 192.27,-246.9 192.27,-246.9"/>
<polygon fill="#6f8b72" stroke="#6f8b72" points="194.89,-246.9 192.27,-239.4 189.64,-246.9 194.89,-246.9"/>
</g>
<!-- dashboard -->
<g id="node7" class="node">
<title>dashboard</title>
<path fill="#eef7f0" stroke="#6b9b6b" d="M254.77,-176C254.77,-176 129.77,-176 129.77,-176 123.77,-176 117.77,-170 117.77,-164 117.77,-164 117.77,-152 117.77,-152 117.77,-146 123.77,-140 129.77,-140 129.77,-140 254.77,-140 254.77,-140 260.77,-140 266.77,-146 266.77,-152 266.77,-152 266.77,-164 266.77,-164 266.77,-170 260.77,-176 254.77,-176"/>
<text text-anchor="middle" x="192.27" y="-154.9" font-family="Microsoft YaHei" font-size="12.00">查看统计概览与运行情况</text>
</g>
<!-- noticeManage&#45;&gt;dashboard -->
<g id="edge6" class="edge">
<title>noticeManage&#45;&gt;dashboard</title>
<path fill="none" stroke="#6f8b72" d="M192.27,-202.78C192.27,-202.78 192.27,-183.9 192.27,-183.9"/>
<polygon fill="#6f8b72" stroke="#6f8b72" points="194.89,-183.9 192.27,-176.4 189.64,-183.9 194.89,-183.9"/>
</g>
<!-- optimize -->
<g id="node8" class="node">
<title>optimize</title>
<path fill="#eaf5ea" stroke="#6b9b6b" d="M107.4,-111.21C107.4,-111.21 12.1,-96.79 12.1,-96.79 6.16,-95.9 6.16,-94.1 12.1,-93.21 12.1,-93.21 107.4,-78.79 107.4,-78.79 113.34,-77.9 125.2,-77.9 131.13,-78.79 131.13,-78.79 226.44,-93.21 226.44,-93.21 232.37,-94.1 232.37,-95.9 226.44,-96.79 226.44,-96.79 131.13,-111.21 131.13,-111.21 125.2,-112.1 113.34,-112.1 107.4,-111.21"/>
<text text-anchor="middle" x="119.27" y="-91.9" font-family="Microsoft YaHei" font-size="12.00">发现异常或配置需求？</text>
</g>
<!-- dashboard&#45;&gt;optimize -->
<g id="edge7" class="edge">
<title>dashboard&#45;&gt;optimize</title>
<path fill="none" stroke="#6f8b72" d="M178.15,-139.78C178.15,-139.78 178.15,-111.76 178.15,-111.76"/>
<polygon fill="#6f8b72" stroke="#6f8b72" points="180.78,-111.76 178.15,-104.26 175.53,-111.76 180.78,-111.76"/>
</g>
<!-- adjust -->
<g id="node9" class="node">
<title>adjust</title>
<path fill="#eef7f0" stroke="#6b9b6b" d="M324.77,-36C324.77,-36 187.77,-36 187.77,-36 181.77,-36 175.77,-30 175.77,-24 175.77,-24 175.77,-12 175.77,-12 175.77,-6 181.77,0 187.77,0 187.77,0 324.77,0 324.77,0 330.77,0 336.77,-6 336.77,-12 336.77,-12 336.77,-24 336.77,-24 336.77,-30 330.77,-36 324.77,-36"/>
<text text-anchor="middle" x="256.27" y="-14.9" font-family="Microsoft YaHei" font-size="12.00">调整字典、类型或管理策略</text>
</g>
<!-- optimize&#45;&gt;adjust -->
<g id="edge8" class="edge">
<title>optimize&#45;&gt;adjust</title>
<path fill="none" stroke="#6f8b72" d="M207.15,-89.95C207.15,-89.95 207.15,-43.75 207.15,-43.75"/>
<polygon fill="#6f8b72" stroke="#6f8b72" points="209.78,-43.75 207.15,-36.25 204.53,-43.75 209.78,-43.75"/>
<text text-anchor="middle" x="204.77" y="-52.8" font-family="Times,serif" font-size="14.00">是</text>
</g>
<!-- end -->
<g id="node10" class="node">
<title>end</title>
<ellipse fill="#ddeedc" stroke="#6b9b6b" cx="119.27" cy="-18" rx="27" ry="18"/>
<text text-anchor="middle" x="119.27" y="-14.9" font-family="Microsoft YaHei" font-size="12.00">结束</text>
</g>
<!-- optimize&#45;&gt;end -->
<g id="edge10" class="edge">
<title>optimize&#45;&gt;end</title>
<path fill="none" stroke="#6f8b72" d="M119.27,-76.75C119.27,-76.75 119.27,-43.62 119.27,-43.62"/>
<polygon fill="#6f8b72" stroke="#6f8b72" points="121.89,-43.62 119.27,-36.12 116.64,-43.62 121.89,-43.62"/>
<text text-anchor="middle" x="126.77" y="-52.8" font-family="Times,serif" font-size="14.00">否</text>
</g>
<!-- adjust&#45;&gt;dashboard -->
<g id="edge9" class="edge">
<title>adjust&#45;&gt;dashboard</title>
<path fill="none" stroke="#6f8b72" d="M252.65,-36.02C252.65,-36.02 252.65,-132.11 252.65,-132.11"/>
<polygon fill="#6f8b72" stroke="#6f8b72" points="250.03,-132.11 252.65,-139.61 255.28,-132.11 250.03,-132.11"/>
</g>
</g>
</svg>
