<?xml version="1.0" encoding="UTF-8" standalone="no"?>
<!DOCTYPE svg PUBLIC "-//W3C//DTD SVG 1.1//EN"
 "http://www.w3.org/Graphics/SVG/1.1/DTD/svg11.dtd">
<!-- Generated by graphviz version 12.2.0 (20241103.1931)
 -->
<!-- Title: G Pages: 1 -->
<svg width="336pt" height="674pt"
 viewBox="0.00 0.00 335.62 674.00" xmlns="http://www.w3.org/2000/svg" xmlns:xlink="http://www.w3.org/1999/xlink">
<g id="graph0" class="graph" transform="scale(1 1) rotate(0) translate(4 670)">
<title>G</title>
<polygon fill="white" stroke="none" points="-4,4 -4,-670 331.62,-670 331.62,4 -4,4"/>
<g id="clust1" class="cluster">
<title>cluster_sys</title>
<path fill="none" stroke="#d8d8d8" d="M130,-8C130,-8 307.62,-8 307.62,-8 313.62,-8 319.62,-14 319.62,-20 319.62,-20 319.62,-646 319.62,-646 319.62,-652 313.62,-658 307.62,-658 307.62,-658 130,-658 130,-658 124,-658 118,-652 118,-646 118,-646 118,-20 118,-20 118,-14 124,-8 130,-8"/>
<text text-anchor="middle" x="218.81" y="-640.7" font-family="Times New Roman,serif" font-size="14.00">线上教育培训管理系统</text>
</g>
<!-- actor -->
<g id="node1" class="node">
<title>actor</title>
<text text-anchor="middle" x="27" y="-318.85" font-family="Microsoft YaHei" font-size="12.00">管理员</text>
</g>
<!-- uc1 -->
<g id="node2" class="node">
<title>uc1</title>
<ellipse fill="none" stroke="black" cx="218.81" cy="-34" rx="27.3" ry="18"/>
<text text-anchor="middle" x="218.81" y="-30.85" font-family="Microsoft YaHei" font-size="12.00">登录</text>
</g>
<!-- actor&#45;&gt;uc1 -->
<g id="edge1" class="edge">
<title>actor&#45;&gt;uc1</title>
<path fill="none" stroke="#7a8a99" d="M29.29,-304.01C33.5,-258.47 50.76,-137.45 118,-70 134.68,-53.27 159.7,-44.27 180.51,-39.45"/>
<polygon fill="#7a8a99" stroke="#7a8a99" points="180.99,-42.92 190.08,-37.48 179.58,-36.07 180.99,-42.92"/>
</g>
<!-- uc2 -->
<g id="node3" class="node">
<title>uc2</title>
<ellipse fill="none" stroke="black" cx="218.81" cy="-106" rx="43.67" ry="18"/>
<text text-anchor="middle" x="218.81" y="-102.85" font-family="Microsoft YaHei" font-size="12.00">审核课程</text>
</g>
<!-- actor&#45;&gt;uc2 -->
<g id="edge2" class="edge">
<title>actor&#45;&gt;uc2</title>
<path fill="none" stroke="#7a8a99" d="M32.15,-304.2C41.38,-268.42 66.95,-187.38 118,-142 131.78,-129.75 150.04,-121.58 167.17,-116.17"/>
<polygon fill="#7a8a99" stroke="#7a8a99" points="168.11,-119.54 176.75,-113.41 166.17,-112.81 168.11,-119.54"/>
</g>
<!-- uc3 -->
<g id="node4" class="node">
<title>uc3</title>
<ellipse fill="none" stroke="black" cx="218.81" cy="-178" rx="43.67" ry="18"/>
<text text-anchor="middle" x="218.81" y="-174.85" font-family="Microsoft YaHei" font-size="12.00">审核资源</text>
</g>
<!-- actor&#45;&gt;uc3 -->
<g id="edge3" class="edge">
<title>actor&#45;&gt;uc3</title>
<path fill="none" stroke="#7a8a99" d="M38.57,-304.17C53.47,-280.45 82.82,-238.65 118,-214 133.22,-203.34 151.95,-195.49 169.05,-189.89"/>
<polygon fill="#7a8a99" stroke="#7a8a99" points="170.03,-193.25 178.56,-186.97 167.97,-186.56 170.03,-193.25"/>
</g>
<!-- uc4 -->
<g id="node5" class="node">
<title>uc4</title>
<ellipse fill="none" stroke="black" cx="218.81" cy="-250" rx="43.67" ry="18"/>
<text text-anchor="middle" x="218.81" y="-246.85" font-family="Microsoft YaHei" font-size="12.00">用户管理</text>
</g>
<!-- actor&#45;&gt;uc4 -->
<g id="edge4" class="edge">
<title>actor&#45;&gt;uc4</title>
<path fill="none" stroke="#7a8a99" d="M53.9,-311.37C71.84,-304.07 96.29,-294.25 118,-286 136.39,-279.01 156.82,-271.58 174.37,-265.3"/>
<polygon fill="#7a8a99" stroke="#7a8a99" points="175.22,-268.72 183.46,-262.06 172.87,-262.12 175.22,-268.72"/>
</g>
<!-- uc5 -->
<g id="node6" class="node">
<title>uc5</title>
<ellipse fill="none" stroke="black" cx="218.81" cy="-322" rx="68.24" ry="18"/>
<text text-anchor="middle" x="218.81" y="-318.85" font-family="Microsoft YaHei" font-size="12.00">字典与类型管理</text>
</g>
<!-- actor&#45;&gt;uc5 -->
<g id="edge5" class="edge">
<title>actor&#45;&gt;uc5</title>
<path fill="none" stroke="#7a8a99" d="M53.99,-322C75.87,-322 108.35,-322 138.63,-322"/>
<polygon fill="#7a8a99" stroke="#7a8a99" points="138.58,-325.5 148.58,-322 138.58,-318.5 138.58,-325.5"/>
</g>
<!-- uc6 -->
<g id="node7" class="node">
<title>uc6</title>
<ellipse fill="none" stroke="black" cx="218.81" cy="-394" rx="92.81" ry="18"/>
<text text-anchor="middle" x="218.81" y="-390.85" font-family="Microsoft YaHei" font-size="12.00">公告、会议与论坛管理</text>
</g>
<!-- actor&#45;&gt;uc6 -->
<g id="edge6" class="edge">
<title>actor&#45;&gt;uc6</title>
<path fill="none" stroke="#7a8a99" d="M53.9,-332.63C71.84,-339.93 96.29,-349.75 118,-358 132.13,-363.37 147.46,-369 161.77,-374.17"/>
<polygon fill="#7a8a99" stroke="#7a8a99" points="160.45,-377.42 171.05,-377.51 162.82,-370.83 160.45,-377.42"/>
</g>
<!-- uc7 -->
<g id="node8" class="node">
<title>uc7</title>
<ellipse fill="none" stroke="black" cx="218.81" cy="-466" rx="43.67" ry="18"/>
<text text-anchor="middle" x="218.81" y="-462.85" font-family="Microsoft YaHei" font-size="12.00">统计概览</text>
</g>
<!-- actor&#45;&gt;uc7 -->
<g id="edge7" class="edge">
<title>actor&#45;&gt;uc7</title>
<path fill="none" stroke="#7a8a99" d="M38.57,-339.83C53.47,-363.55 82.82,-405.35 118,-430 133.22,-440.66 151.95,-448.51 169.05,-454.11"/>
<polygon fill="#7a8a99" stroke="#7a8a99" points="167.97,-457.44 178.56,-457.03 170.03,-450.75 167.97,-457.44"/>
</g>
<!-- uc8 -->
<g id="node9" class="node">
<title>uc8</title>
<ellipse fill="none" stroke="black" cx="218.81" cy="-538" rx="60.05" ry="18"/>
<text text-anchor="middle" x="218.81" y="-534.85" font-family="Microsoft YaHei" font-size="12.00">系统运行维护</text>
</g>
<!-- actor&#45;&gt;uc8 -->
<g id="edge8" class="edge">
<title>actor&#45;&gt;uc8</title>
<path fill="none" stroke="#7a8a99" d="M32.15,-339.8C41.38,-375.58 66.95,-456.62 118,-502 129.14,-511.9 143.2,-519.14 157.23,-524.41"/>
<polygon fill="#7a8a99" stroke="#7a8a99" points="155.87,-527.64 166.47,-527.57 158.14,-521.02 155.87,-527.64"/>
</g>
<!-- uc9 -->
<g id="node10" class="node">
<title>uc9</title>
<ellipse fill="none" stroke="black" cx="218.81" cy="-610" rx="60.05" ry="18"/>
<text text-anchor="middle" x="218.81" y="-606.85" font-family="Microsoft YaHei" font-size="12.00">后台智能问答</text>
</g>
<!-- actor&#45;&gt;uc9 -->
<g id="edge9" class="edge">
<title>actor&#45;&gt;uc9</title>
<path fill="none" stroke="#7a8a99" d="M29.29,-339.99C33.5,-385.53 50.76,-506.55 118,-574 128.41,-584.45 142.08,-591.88 155.95,-597.17"/>
<polygon fill="#7a8a99" stroke="#7a8a99" points="154.51,-600.37 165.1,-600.31 156.78,-593.75 154.51,-600.37"/>
</g>
</g>
</svg>
