<svg id="SvgjsSvg1006" width="387.3999938964844" height="510" xmlns="http://www.w3.org/2000/svg" version="1.1" xmlns:xlink="http://www.w3.org/1999/xlink" xmlns:svgjs="http://svgjs.com/svgjs"><defs id="SvgjsDefs1007"><pattern patternUnits="userSpaceOnUse" id="pattern_mark_0" width="300" height="300"><text x="150" y="100" fill="rgba(229,229,229,0.8)" font-size="18" transform="rotate(-45, 150, 150)" style="dominant-baseline: middle; text-anchor: middle;"></text></pattern><pattern patternUnits="userSpaceOnUse" id="pattern_mark_1" width="300" height="300"><text x="150" y="200" fill="rgba(229,229,229,0.8)" font-size="18" transform="rotate(-45, 150, 150)" style="dominant-baseline: middle; text-anchor: middle;"></text></pattern></defs><rect id="svgbackgroundid" width="387.3999938964844" height="510" fill="transparent"></rect><rect id="SvgjsRect1009" width="387.3999938964844" height="510" fill="url(#pattern_mark_0)"></rect><rect id="SvgjsRect1010" width="387.3999938964844" height="510" fill="url(#pattern_mark_1)"></rect><g id="SvgjsG1011" transform="translate(45,205)"><path id="SvgjsPath1012" d="M 23.333 12.5C 23.333 -4.167 46.667 -4.167 46.667 12.5C 46.667 29.167 23.333 29.167 23.333 12.5M 35 25L 35 75M 35 75L 5.833 100M 35 75L 64.167 100M 0 50L 70 50" stroke="rgba(33,41,48,1)" stroke-width="2" fill-opacity="1" fill="#ffffff"></path><path id="SvgjsPath1013" d="M 0 0L 70 0L 70 100L 0 100Z" stroke="none" fill="none"></path><g id="SvgjsG1014"><text id="SvgjsText1015" font-family="&quot;Microsoft YaHei&quot;, 微软雅黑, Arial" text-anchor="middle" font-size="13px" width="110px" fill="#323232" font-weight="400" align="middle" lineHeight="125%" anchor="middle" family="&quot;Microsoft YaHei&quot;, 微软雅黑, Arial" size="13px" weight="400" font-style="" opacity="1" transform="rotate(0, 35, 115)"><tspan id="SvgjsTspan1016" x="35" y="119.6400131225586" style="" dominant-baseline="alphabetic">学生</tspan></text></g></g><g id="SvgjsG1017" transform="translate(208,85)"><path id="SvgjsPath1018" d="M 0 20C 0 -6.667 154.4 -6.667 154.4 20C 154.4 46.667 0 46.667 0 20Z" stroke="rgba(33,41,48,1)" stroke-width="2" fill-opacity="1" fill="#ffffff"></path><g id="SvgjsG1019"><text id="SvgjsText1020" font-family="&quot;Microsoft YaHei&quot;, 微软雅黑, Arial" text-anchor="middle" font-size="13px" width="135px" fill="#323232" font-weight="400" align="middle" lineHeight="125%" anchor="middle" family="&quot;Microsoft YaHei&quot;, 微软雅黑, Arial" size="13px" weight="400" font-style="" opacity="1" transform="rotate(0, 77.5, 20)"><tspan id="SvgjsTspan1021" x="77.5" y="24.640013122558592" style="" dominant-baseline="alphabetic">选课与我的课程</tspan></text></g></g><g id="SvgjsG1022" transform="translate(208,145)"><path id="SvgjsPath1023" d="M 0 20C 0 -6.667 154.4 -6.667 154.4 20C 154.4 46.667 0 46.667 0 20Z" stroke="rgba(33,41,48,1)" stroke-width="2" fill-opacity="1" fill="#ffffff"></path><g id="SvgjsG1024"><text id="SvgjsText1025" font-family="&quot;Microsoft YaHei&quot;, 微软雅黑, Arial" text-anchor="middle" font-size="13px" width="135px" fill="#323232" font-weight="400" align="middle" lineHeight="125%" anchor="middle" family="&quot;Microsoft YaHei&quot;, 微软雅黑, Arial" size="13px" weight="400" font-style="" opacity="1" transform="rotate(0, 77.5, 20)"><tspan id="SvgjsTspan1026" x="77.49375033378601" y="24.640013122558592" style="" dominant-baseline="alphabetic">章节学习 / 视频播放</tspan></text></g></g><g id="SvgjsG1027" transform="translate(208,205)"><path id="SvgjsPath1028" d="M 0 20C 0 -6.667 154.4 -6.667 154.4 20C 154.4 46.667 0 46.667 0 20Z" stroke="rgba(33,41,48,1)" stroke-width="2" fill-opacity="1" fill="#ffffff"></path><g id="SvgjsG1029"><text id="SvgjsText1030" font-family="&quot;Microsoft YaHei&quot;, 微软雅黑, Arial" text-anchor="middle" font-size="13px" width="135px" fill="#323232" font-weight="400" align="middle" lineHeight="125%" anchor="middle" family="&quot;Microsoft YaHei&quot;, 微软雅黑, Arial" size="13px" weight="400" font-style="" opacity="1" transform="rotate(0, 77.5, 20)"><tspan id="SvgjsTspan1031" x="77.5" y="24.640013122558592" style="" dominant-baseline="alphabetic">学习进度查看</tspan></text></g></g><g id="SvgjsG1032" transform="translate(208,265)"><path id="SvgjsPath1033" d="M 0 20C 0 -6.667 154.4 -6.667 154.4 20C 154.4 46.667 0 46.667 0 20Z" stroke="rgba(33,41,48,1)" stroke-width="2" fill-opacity="1" fill="#ffffff"></path><g id="SvgjsG1034"><text id="SvgjsText1035" font-family="&quot;Microsoft YaHei&quot;, 微软雅黑, Arial" text-anchor="middle" font-size="13px" width="135px" fill="#323232" font-weight="400" align="middle" lineHeight="125%" anchor="middle" family="&quot;Microsoft YaHei&quot;, 微软雅黑, Arial" size="13px" weight="400" font-style="" opacity="1" transform="rotate(0, 77.5, 20)"><tspan id="SvgjsTspan1036" x="77.5" y="24.640013122558592" style="" dominant-baseline="alphabetic">作业提交</tspan></text></g></g><g id="SvgjsG1037" transform="translate(208,325)"><path id="SvgjsPath1038" d="M 0 20C 0 -6.667 154.4 -6.667 154.4 20C 154.4 46.667 0 46.667 0 20Z" stroke="rgba(33,41,48,1)" stroke-width="2" fill-opacity="1" fill="#ffffff"></path><g id="SvgjsG1039"><text id="SvgjsText1040" font-family="&quot;Microsoft YaHei&quot;, 微软雅黑, Arial" text-anchor="middle" font-size="13px" width="135px" fill="#323232" font-weight="400" align="middle" lineHeight="125%" anchor="middle" family="&quot;Microsoft YaHei&quot;, 微软雅黑, Arial" size="13px" weight="400" font-style="" opacity="1" transform="rotate(0, 77.5, 20)"><tspan id="SvgjsTspan1041" x="77.5" y="24.640013122558592" style="" dominant-baseline="alphabetic">参加考试</tspan></text></g></g><g id="SvgjsG1042"><path id="SvgjsPath1043" d="M207.4730603311383 105.84990269171239L115.5269396688617 254.15009730828763" stroke="#323232" stroke-width="2" fill="none"></path></g><g id="SvgjsG1044"><path id="SvgjsPath1045" d="M207.2813978582334 165.69542142751607L115.71860214176661 254.30457857248393" stroke="#323232" stroke-width="2" fill="none"></path></g><g id="SvgjsG1046"><path id="SvgjsPath1047" d="M207.04829138223943 225.30700277992275L115.95170861776057 254.69299722007725" stroke="#323232" stroke-width="2" fill="none"></path></g><g id="SvgjsG1048"><path id="SvgjsPath1049" d="M207.04829138223943 284.69299722007725L115.95170861776057 255.30700277992275" stroke="#323232" stroke-width="2" fill="none"></path></g><g id="SvgjsG1050"><path id="SvgjsPath1051" d="M207.2813978582334 344.30457857248393L115.71860214176661 255.69542142751607" stroke="#323232" stroke-width="2" fill="none"></path></g><g id="SvgjsG1052" transform="translate(208,385)"><path id="SvgjsPath1053" d="M 0 20C 0 -6.667 154.4 -6.667 154.4 20C 154.4 46.667 0 46.667 0 20Z" stroke="rgba(33,41,48,1)" stroke-width="2" fill-opacity="1" fill="#ffffff"></path><g id="SvgjsG1054"><text id="SvgjsText1055" font-family="&quot;Microsoft YaHei&quot;, 微软雅黑, Arial" text-anchor="middle" font-size="13px" width="135px" fill="#323232" font-weight="400" align="middle" lineHeight="125%" anchor="middle" family="&quot;Microsoft YaHei&quot;, 微软雅黑, Arial" size="13px" weight="400" font-style="" opacity="1" transform="rotate(0, 77.5, 20)"><tspan id="SvgjsTspan1056" x="77.5" y="24.640013122558592" style="" dominant-baseline="alphabetic">查看成绩与学分</tspan></text></g></g><g id="SvgjsG1057"><path id="SvgjsPath1058" d="M207.4730603311383 404.1500973082876L115.5269396688617 255.84990269171237" stroke="#323232" stroke-width="2" fill="none"></path></g><g id="SvgjsG1059" transform="translate(208,25)"><path id="SvgjsPath1060" d="M 0 20C 0 -6.667 154.4 -6.667 154.4 20C 154.4 46.667 0 46.667 0 20Z" stroke="rgba(33,41,48,1)" stroke-width="2" fill-opacity="1" fill="#ffffff"></path><g id="SvgjsG1061"><text id="SvgjsText1062" font-family="&quot;Microsoft YaHei&quot;, 微软雅黑, Arial" text-anchor="middle" font-size="13px" width="135px" fill="#323232" font-weight="400" align="middle" lineHeight="125%" anchor="middle" family="&quot;Microsoft YaHei&quot;, 微软雅黑, Arial" size="13px" weight="400" font-style="" opacity="1" transform="rotate(0, 77.5, 20)"><tspan id="SvgjsTspan1063" x="77.5" y="24.640013122558592" style="" dominant-baseline="alphabetic">个人中心</tspan></text></g></g><g id="SvgjsG1064"><path id="SvgjsPath1065" d="M207.59507384172798 45.91434938964656L115.40492615827202 254.0856506103534" stroke="#323232" stroke-width="2" fill="none"></path></g><g id="SvgjsG1066" transform="translate(208,445)"><path id="SvgjsPath1067" d="M 0 20C 0 -6.667 154.4 -6.667 154.4 20C 154.4 46.667 0 46.667 0 20Z" stroke="rgba(33,41,48,1)" stroke-width="2" fill-opacity="1" fill="#ffffff"></path><g id="SvgjsG1068"><text id="SvgjsText1069" font-family="&quot;Microsoft YaHei&quot;, 微软雅黑, Arial" text-anchor="middle" font-size="13px" width="135px" fill="#323232" font-weight="400" align="middle" lineHeight="125%" anchor="middle" family="&quot;Microsoft YaHei&quot;, 微软雅黑, Arial" size="13px" weight="400" font-style="" opacity="1" transform="rotate(0, 77.5, 20)"><tspan id="SvgjsTspan1070" x="77.50000190734863" y="24.640013122558592" style="" dominant-baseline="alphabetic">AI 智能问答</tspan></text></g></g><g id="SvgjsG1071"><path id="SvgjsPath1072" d="M207.59507384172798 464.0856506103534L115.40492615827202 255.9143493896466" stroke="#323232" stroke-width="2" fill="none"></path></g><g id="SvgjsG1073"></g></svg>