<svg id="SvgjsSvg1074" width="386.3999938964844" height="510" xmlns="http://www.w3.org/2000/svg" version="1.1" xmlns:xlink="http://www.w3.org/1999/xlink" xmlns:svgjs="http://svgjs.com/svgjs"><defs id="SvgjsDefs1075"><pattern patternUnits="userSpaceOnUse" id="pattern_mark_0" width="300" height="300"><text x="150" y="100" fill="rgba(229,229,229,0.8)" font-size="18" transform="rotate(-45, 150, 150)" style="dominant-baseline: middle; text-anchor: middle;"></text></pattern><pattern patternUnits="userSpaceOnUse" id="pattern_mark_1" width="300" height="300"><text x="150" y="200" fill="rgba(229,229,229,0.8)" font-size="18" transform="rotate(-45, 150, 150)" style="dominant-baseline: middle; text-anchor: middle;"></text></pattern></defs><rect id="svgbackgroundid" width="386.3999938964844" height="510" fill="transparent"></rect><rect id="SvgjsRect1077" width="386.3999938964844" height="510" fill="url(#pattern_mark_0)"></rect><rect id="SvgjsRect1078" width="386.3999938964844" height="510" fill="url(#pattern_mark_1)"></rect><g id="SvgjsG1079" transform="translate(207,85)"><path id="SvgjsPath1080" d="M 0 20C 0 -6.667 154.4 -6.667 154.4 20C 154.4 46.667 0 46.667 0 20Z" stroke="rgba(33,41,48,1)" stroke-width="2" fill-opacity="1" fill="#ffffff"></path><g id="SvgjsG1081"><text id="SvgjsText1082" font-family="&quot;Microsoft YaHei&quot;, 微软雅黑, Arial" text-anchor="middle" font-size="13px" width="135px" fill="#323232" font-weight="400" align="middle" lineHeight="125%" anchor="middle" family="&quot;Microsoft YaHei&quot;, 微软雅黑, Arial" size="13px" weight="400" font-style="" opacity="1" transform="rotate(0, 77.5, 20)"><tspan id="SvgjsTspan1083" x="77.5" y="24.640013122558592" style="" dominant-baseline="alphabetic">课程管理</tspan></text></g></g><g id="SvgjsG1084" transform="translate(207,145)"><path id="SvgjsPath1085" d="M 0 20C 0 -6.667 154.4 -6.667 154.4 20C 154.4 46.667 0 46.667 0 20Z" stroke="rgba(33,41,48,1)" stroke-width="2" fill-opacity="1" fill="#ffffff"></path><g id="SvgjsG1086"><text id="SvgjsText1087" font-family="&quot;Microsoft YaHei&quot;, 微软雅黑, Arial" text-anchor="middle" font-size="13px" width="135px" fill="#323232" font-weight="400" align="middle" lineHeight="125%" anchor="middle" family="&quot;Microsoft YaHei&quot;, 微软雅黑, Arial" size="13px" weight="400" font-style="" opacity="1" transform="rotate(0, 77.5, 20)"><tspan id="SvgjsTspan1088" x="77.5" y="24.640013122558592" style="" dominant-baseline="alphabetic">章节管理</tspan></text></g></g><g id="SvgjsG1089" transform="translate(207,205)"><path id="SvgjsPath1090" d="M 0 20C 0 -6.667 154.4 -6.667 154.4 20C 154.4 46.667 0 46.667 0 20Z" stroke="rgba(33,41,48,1)" stroke-width="2" fill-opacity="1" fill="#ffffff"></path><g id="SvgjsG1091"><text id="SvgjsText1092" font-family="&quot;Microsoft YaHei&quot;, 微软雅黑, Arial" text-anchor="middle" font-size="13px" width="135px" fill="#323232" font-weight="400" align="middle" lineHeight="125%" anchor="middle" family="&quot;Microsoft YaHei&quot;, 微软雅黑, Arial" size="13px" weight="400" font-style="" opacity="1" transform="rotate(0, 77.5, 20)"><tspan id="SvgjsTspan1093" x="77.5" y="24.640013122558592" style="" dominant-baseline="alphabetic">资源管理</tspan></text></g></g><g id="SvgjsG1094" transform="translate(207,265)"><path id="SvgjsPath1095" d="M 0 20C 0 -6.667 154.4 -6.667 154.4 20C 154.4 46.667 0 46.667 0 20Z" stroke="rgba(33,41,48,1)" stroke-width="2" fill-opacity="1" fill="#ffffff"></path><g id="SvgjsG1096"><text id="SvgjsText1097" font-family="&quot;Microsoft YaHei&quot;, 微软雅黑, Arial" text-anchor="middle" font-size="13px" width="135px" fill="#323232" font-weight="400" align="middle" lineHeight="125%" anchor="middle" family="&quot;Microsoft YaHei&quot;, 微软雅黑, Arial" size="13px" weight="400" font-style="" opacity="1" transform="rotate(0, 77.5, 20)"><tspan id="SvgjsTspan1098" x="77.5" y="24.640013122558592" style="" dominant-baseline="alphabetic">作业管理</tspan></text></g></g><g id="SvgjsG1099" transform="translate(207,325)"><path id="SvgjsPath1100" d="M 0 20C 0 -6.667 154.4 -6.667 154.4 20C 154.4 46.667 0 46.667 0 20Z" stroke="rgba(33,41,48,1)" stroke-width="2" fill-opacity="1" fill="#ffffff"></path><g id="SvgjsG1101"><text id="SvgjsText1102" font-family="&quot;Microsoft YaHei&quot;, 微软雅黑, Arial" text-anchor="middle" font-size="13px" width="135px" fill="#323232" font-weight="400" align="middle" lineHeight="125%" anchor="middle" family="&quot;Microsoft YaHei&quot;, 微软雅黑, Arial" size="13px" weight="400" font-style="" opacity="1" transform="rotate(0, 77.5, 20)"><tspan id="SvgjsTspan1103" x="77.5" y="24.640013122558592" style="" dominant-baseline="alphabetic">考试与题库管理</tspan></text></g></g><g id="SvgjsG1104"><path id="SvgjsPath1105" d="M206.47717144643616 105.85243785907147L115.52282855356384 254.14756214092853" stroke="#323232" stroke-width="2" fill="none"></path></g><g id="SvgjsG1106"><path id="SvgjsPath1107" d="M206.2851659744149 165.69929415546372L115.7148340255851 254.30070584453625" stroke="#323232" stroke-width="2" fill="none"></path></g><g id="SvgjsG1108"><path id="SvgjsPath1109" d="M206.04927016051852 225.31002059983092L115.95072983948148 254.68997940016908" stroke="#323232" stroke-width="2" fill="none"></path></g><g id="SvgjsG1110"><path id="SvgjsPath1111" d="M206.04927016051852 284.6899794001691L115.95072983948148 255.31002059983092" stroke="#323232" stroke-width="2" fill="none"></path></g><g id="SvgjsG1112"><path id="SvgjsPath1113" d="M206.2851659744149 344.30070584453625L115.7148340255851 255.69929415546375" stroke="#323232" stroke-width="2" fill="none"></path></g><g id="SvgjsG1114" transform="translate(207,385)"><path id="SvgjsPath1115" d="M 0 20C 0 -6.667 154.4 -6.667 154.4 20C 154.4 46.667 0 46.667 0 20Z" stroke="rgba(33,41,48,1)" stroke-width="2" fill-opacity="1" fill="#ffffff"></path><g id="SvgjsG1116"><text id="SvgjsText1117" font-family="&quot;Microsoft YaHei&quot;, 微软雅黑, Arial" text-anchor="middle" font-size="13px" width="135px" fill="#323232" font-weight="400" align="middle" lineHeight="125%" anchor="middle" family="&quot;Microsoft YaHei&quot;, 微软雅黑, Arial" size="13px" weight="400" font-style="" opacity="1" transform="rotate(0, 77.5, 20)"><tspan id="SvgjsTspan1118" x="77.5" y="24.640013122558592" style="" dominant-baseline="alphabetic">成绩统计</tspan></text></g></g><g id="SvgjsG1119"><path id="SvgjsPath1120" d="M206.47717144643616 404.1475621409285L115.52282855356384 255.85243785907147" stroke="#323232" stroke-width="2" fill="none"></path></g><g id="SvgjsG1121" transform="translate(207,25)"><path id="SvgjsPath1122" d="M 0 20C 0 -6.667 154.4 -6.667 154.4 20C 154.4 46.667 0 46.667 0 20Z" stroke="rgba(33,41,48,1)" stroke-width="2" fill-opacity="1" fill="#ffffff"></path><g id="SvgjsG1123"><text id="SvgjsText1124" font-family="&quot;Microsoft YaHei&quot;, 微软雅黑, Arial" text-anchor="middle" font-size="13px" width="135px" fill="#323232" font-weight="400" align="middle" lineHeight="125%" anchor="middle" family="&quot;Microsoft YaHei&quot;, 微软雅黑, Arial" size="13px" weight="400" font-style="" opacity="1" transform="rotate(0, 77.5, 20)"><tspan id="SvgjsTspan1125" x="77.5" y="24.640013122558592" style="" dominant-baseline="alphabetic">个人中心</tspan></text></g></g><g id="SvgjsG1126"><path id="SvgjsPath1127" d="M206.59872359499332 45.91595701142841L115.40127640500668 254.08404298857158" stroke="#323232" stroke-width="2" fill="none"></path></g><g id="SvgjsG1128" transform="translate(207,445)"><path id="SvgjsPath1129" d="M 0 20C 0 -6.667 154.4 -6.667 154.4 20C 154.4 46.667 0 46.667 0 20Z" stroke="rgba(33,41,48,1)" stroke-width="2" fill-opacity="1" fill="#ffffff"></path><g id="SvgjsG1130"><text id="SvgjsText1131" font-family="&quot;Microsoft YaHei&quot;, 微软雅黑, Arial" text-anchor="middle" font-size="13px" width="135px" fill="#323232" font-weight="400" align="middle" lineHeight="125%" anchor="middle" family="&quot;Microsoft YaHei&quot;, 微软雅黑, Arial" size="13px" weight="400" font-style="" opacity="1" transform="rotate(0, 77.5, 20)"><tspan id="SvgjsTspan1132" x="77.50000190734863" y="24.640013122558592" style="" dominant-baseline="alphabetic">AI 题目生成</tspan></text></g></g><g id="SvgjsG1133"><path id="SvgjsPath1134" d="M206.59872359499332 464.0840429885716L115.40127640500668 255.91595701142842" stroke="#323232" stroke-width="2" fill="none"></path></g><g id="SvgjsG1135" transform="translate(45,205)"><path id="SvgjsPath1136" d="M 23.333 12.5C 23.333 -4.167 46.667 -4.167 46.667 12.5C 46.667 29.167 23.333 29.167 23.333 12.5M 35 25L 35 75M 35 75L 5.833 100M 35 75L 64.167 100M 0 50L 70 50" stroke="rgba(33,41,48,1)" stroke-width="2" fill-opacity="1" fill="#ffffff"></path><path id="SvgjsPath1137" d="M 0 0L 70 0L 70 100L 0 100Z" stroke="none" fill="none"></path><g id="SvgjsG1138"><text id="SvgjsText1139" font-family="&quot;Microsoft YaHei&quot;, 微软雅黑, Arial" text-anchor="middle" font-size="13px" width="110px" fill="#323232" font-weight="400" align="middle" lineHeight="125%" anchor="middle" family="&quot;Microsoft YaHei&quot;, 微软雅黑, Arial" size="13px" weight="400" font-style="" opacity="1" transform="rotate(0, 35, 115)"><tspan id="SvgjsTspan1140" x="35" y="119.6400131225586" style="" dominant-baseline="alphabetic">教师</tspan></text></g></g><g id="SvgjsG1141"></g></svg>