<svg id="SvgjsSvg1006" width="378.3999938964844" height="510" xmlns="http://www.w3.org/2000/svg" version="1.1" xmlns:xlink="http://www.w3.org/1999/xlink" xmlns:svgjs="http://svgjs.com/svgjs"><defs id="SvgjsDefs1007"><pattern patternUnits="userSpaceOnUse" id="pattern_mark_0" width="300" height="300"><text x="150" y="100" fill="rgba(229,229,229,0.8)" font-size="18" transform="rotate(-45, 150, 150)" style="dominant-baseline: middle; text-anchor: middle;"></text></pattern><pattern patternUnits="userSpaceOnUse" id="pattern_mark_1" width="300" height="300"><text x="150" y="200" fill="rgba(229,229,229,0.8)" font-size="18" transform="rotate(-45, 150, 150)" style="dominant-baseline: middle; text-anchor: middle;"></text></pattern></defs><rect id="svgbackgroundid" width="378.3999938964844" height="510" fill="transparent"></rect><rect id="SvgjsRect1009" width="378.3999938964844" height="510" fill="url(#pattern_mark_0)"></rect><rect id="SvgjsRect1010" width="378.3999938964844" height="510" fill="url(#pattern_mark_1)"></rect><g id="SvgjsG1011" transform="translate(199,85)"><path id="SvgjsPath1012" d="M 0 20C 0 -6.667 154.4 -6.667 154.4 20C 154.4 46.667 0 46.667 0 20Z" stroke="rgba(33,41,48,1)" stroke-width="2" fill-opacity="1" fill="#ffffff"></path><g id="SvgjsG1013"><text id="SvgjsText1014" font-family="&quot;Microsoft YaHei&quot;, 微软雅黑, Arial" text-anchor="middle" font-size="13px" width="135px" fill="#323232" font-weight="400" align="middle" lineHeight="125%" anchor="middle" family="&quot;Microsoft YaHei&quot;, 微软雅黑, Arial" size="13px" weight="400" font-style="" opacity="1" transform="rotate(0, 77.5, 20)"><tspan id="SvgjsTspan1015" x="77.5" y="24.640013122558592" style="" dominant-baseline="alphabetic">用户管理</tspan></text></g></g><g id="SvgjsG1016" transform="translate(199,145)"><path id="SvgjsPath1017" d="M 0 20C 0 -6.667 154.4 -6.667 154.4 20C 154.4 46.667 0 46.667 0 20Z" stroke="rgba(33,41,48,1)" stroke-width="2" fill-opacity="1" fill="#ffffff"></path><g id="SvgjsG1018"><text id="SvgjsText1019" font-family="&quot;Microsoft YaHei&quot;, 微软雅黑, Arial" text-anchor="middle" font-size="13px" width="135px" fill="#323232" font-weight="400" align="middle" lineHeight="125%" anchor="middle" family="&quot;Microsoft YaHei&quot;, 微软雅黑, Arial" size="13px" weight="400" font-style="" opacity="1" transform="rotate(0, 77.5, 20)"><tspan id="SvgjsTspan1020" x="77.5" y="24.640013122558592" style="" dominant-baseline="alphabetic">教师管理</tspan></text></g></g><g id="SvgjsG1021" transform="translate(199,205)"><path id="SvgjsPath1022" d="M 0 20C 0 -6.667 154.4 -6.667 154.4 20C 154.4 46.667 0 46.667 0 20Z" stroke="rgba(33,41,48,1)" stroke-width="2" fill-opacity="1" fill="#ffffff"></path><g id="SvgjsG1023"><text id="SvgjsText1024" font-family="&quot;Microsoft YaHei&quot;, 微软雅黑, Arial" text-anchor="middle" font-size="13px" width="135px" fill="#323232" font-weight="400" align="middle" lineHeight="125%" anchor="middle" family="&quot;Microsoft YaHei&quot;, 微软雅黑, Arial" size="13px" weight="400" font-style="" opacity="1" transform="rotate(0, 77.5, 20)"><tspan id="SvgjsTspan1025" x="77.5" y="24.640013122558592" style="" dominant-baseline="alphabetic">课程审核</tspan></text></g></g><g id="SvgjsG1026" transform="translate(199,265)"><path id="SvgjsPath1027" d="M 0 20C 0 -6.667 154.4 -6.667 154.4 20C 154.4 46.667 0 46.667 0 20Z" stroke="rgba(33,41,48,1)" stroke-width="2" fill-opacity="1" fill="#ffffff"></path><g id="SvgjsG1028"><text id="SvgjsText1029" font-family="&quot;Microsoft YaHei&quot;, 微软雅黑, Arial" text-anchor="middle" font-size="13px" width="135px" fill="#323232" font-weight="400" align="middle" lineHeight="125%" anchor="middle" family="&quot;Microsoft YaHei&quot;, 微软雅黑, Arial" size="13px" weight="400" font-style="" opacity="1" transform="rotate(0, 77.5, 20)"><tspan id="SvgjsTspan1030" x="77.5" y="24.640013122558592" style="" dominant-baseline="alphabetic">字典与配置</tspan></text></g></g><g id="SvgjsG1031" transform="translate(199,325)"><path id="SvgjsPath1032" d="M 0 20C 0 -6.667 154.4 -6.667 154.4 20C 154.4 46.667 0 46.667 0 20Z" stroke="rgba(33,41,48,1)" stroke-width="2" fill-opacity="1" fill="#ffffff"></path><g id="SvgjsG1033"><text id="SvgjsText1034" font-family="&quot;Microsoft YaHei&quot;, 微软雅黑, Arial" text-anchor="middle" font-size="13px" width="135px" fill="#323232" font-weight="400" align="middle" lineHeight="125%" anchor="middle" family="&quot;Microsoft YaHei&quot;, 微软雅黑, Arial" size="13px" weight="400" font-style="" opacity="1" transform="rotate(0, 77.5, 20)"><tspan id="SvgjsTspan1035" x="77.5" y="24.640013122558592" style="" dominant-baseline="alphabetic">公告管理</tspan></text></g></g><g id="SvgjsG1036"><path id="SvgjsPath1037" d="M198.48131936976642 105.85496807181353L108.51868063023358 254.14503192818648" stroke="#323232" stroke-width="2" fill="none"></path></g><g id="SvgjsG1038"><path id="SvgjsPath1039" d="M198.28899740278803 165.70318938185798L108.71100259721197 254.296810618142" stroke="#323232" stroke-width="2" fill="none"></path></g><g id="SvgjsG1040"><path id="SvgjsPath1041" d="M198.05027821821147 225.31309509289733L108.94972178178853 254.6869049071027" stroke="#323232" stroke-width="2" fill="none"></path></g><g id="SvgjsG1042"><path id="SvgjsPath1043" d="M198.05027821821147 284.6869049071027L108.94972178178853 255.3130950928973" stroke="#323232" stroke-width="2" fill="none"></path></g><g id="SvgjsG1044"><path id="SvgjsPath1045" d="M198.28899740278803 344.296810618142L108.71100259721197 255.703189381858" stroke="#323232" stroke-width="2" fill="none"></path></g><g id="SvgjsG1046" transform="translate(199,385)"><path id="SvgjsPath1047" d="M 0 20C 0 -6.667 154.4 -6.667 154.4 20C 154.4 46.667 0 46.667 0 20Z" stroke="rgba(33,41,48,1)" stroke-width="2" fill-opacity="1" fill="#ffffff"></path><g id="SvgjsG1048"><text id="SvgjsText1049" font-family="&quot;Microsoft YaHei&quot;, 微软雅黑, Arial" text-anchor="middle" font-size="13px" width="135px" fill="#323232" font-weight="400" align="middle" lineHeight="125%" anchor="middle" family="&quot;Microsoft YaHei&quot;, 微软雅黑, Arial" size="13px" weight="400" font-style="" opacity="1" transform="rotate(0, 77.5, 20)"><tspan id="SvgjsTspan1050" x="77.49375128746033" y="24.640013122558592" style="" dominant-baseline="alphabetic">考试 / 题库审核</tspan></text></g></g><g id="SvgjsG1051"><path id="SvgjsPath1052" d="M198.48131936976642 404.1450319281865L108.51868063023358 255.85496807181352" stroke="#323232" stroke-width="2" fill="none"></path></g><g id="SvgjsG1053" transform="translate(199,25)"><path id="SvgjsPath1054" d="M 0 20C 0 -6.667 154.4 -6.667 154.4 20C 154.4 46.667 0 46.667 0 20Z" stroke="rgba(33,41,48,1)" stroke-width="2" fill-opacity="1" fill="#ffffff"></path><g id="SvgjsG1055"><text id="SvgjsText1056" font-family="&quot;Microsoft YaHei&quot;, 微软雅黑, Arial" text-anchor="middle" font-size="13px" width="135px" fill="#323232" font-weight="400" align="middle" lineHeight="125%" anchor="middle" family="&quot;Microsoft YaHei&quot;, 微软雅黑, Arial" size="13px" weight="400" font-style="" opacity="1" transform="rotate(0, 77.5, 20)"><tspan id="SvgjsTspan1057" x="77.5" y="24.640013122558592" style="" dominant-baseline="alphabetic">个人中心</tspan></text></g></g><g id="SvgjsG1058"><path id="SvgjsPath1059" d="M198.6023925623657 45.91755562530993L108.39760743763429 254.08244437469006" stroke="#323232" stroke-width="2" fill="none"></path></g><g id="SvgjsG1060" transform="translate(199,445)"><path id="SvgjsPath1061" d="M 0 20C 0 -6.667 154.4 -6.667 154.4 20C 154.4 46.667 0 46.667 0 20Z" stroke="rgba(33,41,48,1)" stroke-width="2" fill-opacity="1" fill="#ffffff"></path><g id="SvgjsG1062"><text id="SvgjsText1063" font-family="&quot;Microsoft YaHei&quot;, 微软雅黑, Arial" text-anchor="middle" font-size="13px" width="135px" fill="#323232" font-weight="400" align="middle" lineHeight="125%" anchor="middle" family="&quot;Microsoft YaHei&quot;, 微软雅黑, Arial" size="13px" weight="400" font-style="" opacity="1" transform="rotate(0, 77.5, 20)"><tspan id="SvgjsTspan1064" x="77.50000190734863" y="24.640013122558592" style="" dominant-baseline="alphabetic">AI 参数配置</tspan></text></g></g><g id="SvgjsG1065"><path id="SvgjsPath1066" d="M198.6023925623657 464.08244437469006L108.39760743763429 255.91755562530994" stroke="#323232" stroke-width="2" fill="none"></path></g><g id="SvgjsG1067" transform="translate(38,205)"><path id="SvgjsPath1068" d="M 23.333 12.5C 23.333 -4.167 46.667 -4.167 46.667 12.5C 46.667 29.167 23.333 29.167 23.333 12.5M 35 25L 35 75M 35 75L 5.833 100M 35 75L 64.167 100M 0 50L 70 50" stroke="rgba(33,41,48,1)" stroke-width="2" fill-opacity="1" fill="#ffffff"></path><path id="SvgjsPath1069" d="M 0 0L 70 0L 70 100L 0 100Z" stroke="none" fill="none"></path><g id="SvgjsG1070"><text id="SvgjsText1071" font-family="&quot;Microsoft YaHei&quot;, 微软雅黑, Arial" text-anchor="middle" font-size="13px" width="110px" fill="#323232" font-weight="400" align="middle" lineHeight="125%" anchor="middle" family="&quot;Microsoft YaHei&quot;, 微软雅黑, Arial" size="13px" weight="400" font-style="" opacity="1" transform="rotate(0, 35, 115)"></text></g></g><g id="SvgjsG1072" transform="translate(25,305)"><path id="SvgjsPath1073" d="M 0 0L 98 0L 98 25L 0 25Z" stroke="none" fill="none"></path><g id="SvgjsG1074"><text id="SvgjsText1075" font-family="&quot;Microsoft YaHei&quot;, 微软雅黑, Arial" text-anchor="middle" font-size="13px" width="98px" fill="#323232" font-weight="400" align="middle" lineHeight="125%" anchor="middle" family="&quot;Microsoft YaHei&quot;, 微软雅黑, Arial" size="13px" weight="400" font-style="" opacity="1" transform="rotate(0, 49, 12.5)"><tspan id="SvgjsTspan1076" x="49" y="17.140013122558592" style="" dominant-baseline="alphabetic">管理员</tspan></text></g></g><g id="SvgjsG1077"></g></svg>